<?xml version="1.0" standalone="no"?>
<!DOCTYPE svg PUBLIC "-//W3C//DTD SVG 20010904//EN"
 "http://www.w3.org/TR/2001/REC-SVG-20010904/DTD/svg10.dtd">
<svg version="1.0" xmlns="http://www.w3.org/2000/svg"
 width="217.000000pt" height="216.000000pt" viewBox="0 0 217.000000 216.000000"
 preserveAspectRatio="xMidYMid meet">

<g transform="translate(0.000000,216.000000) scale(0.100000,-0.100000)"
fill="#000000" stroke="none">
<path d="M922 2135 c-500 -78 -883 -492 -918 -992 -34 -495 295 -957 781
-1098 260 -75 532 -50 781 71 52 25 97 50 100 55 3 5 -35 -11 -83 -35 -48 -24
-89 -43 -90 -42 -1 1 -4 13 -7 26 -3 14 -9 40 -15 58 -11 36 -25 185 -15 164
7 -15 108 -87 180 -130 l52 -30 78 63 c98 78 127 109 199 210 63 88 105 167
141 263 28 74 30 90 9 72 -8 -7 -12 -16 -9 -21 3 -5 -33 -27 -79 -49 -82 -39
-133 -55 -72 -24 17 9 64 39 106 66 75 50 77 52 88 106 6 31 10 69 10 86 -1
17 -7 -3 -15 -44 -7 -41 -13 -76 -13 -77 -1 -1 -30 -23 -65 -48 -136 -97 -266
-133 -381 -105 -30 7 -55 15 -55 18 0 2 13 32 30 67 33 69 49 135 59 238 l6
69 65 17 c97 25 222 119 308 234 11 15 23 24 25 20 13 -21 38 -230 35 -288 -1
-36 1 -65 6 -65 18 0 -2 241 -29 345 -135 531 -670 885 -1213 800z m352 -16
c27 -5 58 -16 67 -25 35 -31 132 -187 151 -242 29 -83 35 -181 14 -237 -10
-25 -19 -45 -22 -45 -3 0 -83 38 -153 73 -17 8 -28 26 -36 57 -16 62 -49 122
-76 139 -21 12 -25 11 -42 -10 -15 -19 -18 -36 -15 -84 l4 -61 -62 4 c-77 5
-186 -24 -299 -80 l-80 -40 -33 39 c-45 50 -67 96 -81 163 -13 63 -18 205 -8
235 14 41 248 115 407 128 58 5 201 -3 264 -14z m182 -48 c15 -1 64 -152 70
-215 l4 -51 -15 46 c-8 25 -38 82 -67 125 -29 43 -56 84 -60 90 -5 8 2 11 25
8 17 -1 37 -3 43 -3z m96 -44 c7 -8 19 -12 26 -9 6 2 12 -4 12 -13 0 -9 -4
-14 -9 -11 -15 10 -41 -5 -41 -23 0 -14 2 -14 10 -1 6 10 10 11 10 3 0 -7 10
-13 21 -13 21 0 21 -3 17 -87 -3 -50 -15 -118 -27 -156 -25 -77 -35 -86 -20
-17 12 53 4 181 -16 248 -11 36 -12 48 -2 54 8 5 7 8 -5 8 -10 0 -18 7 -18 15
0 19 24 20 42 2z m-976 -59 c-15 -79 -17 -113 -8 -99 7 9 11 -5 14 -45 3 -33
8 -68 12 -79 3 -11 -1 -5 -9 14 -37 79 -62 228 -37 224 6 -2 12 2 12 7 0 6 5
10 11 10 7 0 9 -12 5 -32z m1154 -45 c69 -52 177 -161 226 -229 42 -59 44 -65
44 -131 0 -174 -83 -357 -197 -432 -60 -40 -83 -41 -83 -1 0 37 -40 162 -74
228 -27 54 -107 158 -138 180 -17 12 -17 14 3 35 32 35 86 151 99 214 7 32 10
92 8 134 l-5 76 36 -20 c20 -12 56 -36 81 -54z m-1220 11 c0 -72 51 -206 105
-275 15 -19 -7 1 -49 45 -42 43 -83 92 -92 110 -14 29 -14 30 2 9 18 -26 44
-31 44 -9 0 25 -12 46 -25 46 -20 0 -25 38 -7 45 14 5 14 8 3 15 -8 4 -11 15
-8 24 10 25 27 19 27 -10z m-51 -128 c55 -82 128 -161 192 -207 32 -24 59 -46
59 -49 0 -3 -18 -24 -41 -45 -44 -44 -85 -111 -117 -195 -24 -63 -52 -179 -52
-217 0 -24 -1 -25 -47 -18 -127 18 -255 123 -332 273 l-42 83 33 72 c18 40 40
83 49 97 75 116 103 151 168 218 67 67 76 73 85 57 6 -10 26 -41 45 -69z m764
6 c43 -47 93 -259 96 -407 2 -89 -19 -227 -40 -266 -5 -11 -9 -25 -7 -31 2 -6
10 4 18 23 7 19 15 36 16 38 2 2 16 -6 32 -18 38 -27 112 -28 169 -2 48 22 90
86 108 164 l11 50 22 -53 c25 -61 28 -82 8 -74 -8 3 -17 1 -21 -5 -3 -6 2 -11
13 -11 11 0 25 -7 32 -16 12 -13 10 -14 -13 -3 -15 7 -33 8 -44 4 -14 -7 -11
-10 17 -14 28 -5 39 -14 53 -43 10 -21 17 -50 15 -65 l-3 -28 -19 32 c-11 17
-34 40 -53 50 -31 17 -35 17 -80 -1 -176 -67 -186 -69 -308 -73 -133 -5 -224
10 -389 67 -94 31 -176 39 -218 19 -71 -32 -106 -184 -74 -319 4 -14 -5 7 -20
45 -49 133 -28 325 54 494 l37 74 7 -40 c23 -138 143 -246 273 -247 33 -1 76
3 95 8 33 8 34 8 21 -10 -7 -11 3 -2 22 20 40 42 89 160 115 271 11 49 15 113
14 210 -2 177 4 198 41 157z m-59 -228 c0 -44 -4 -93 -8 -108 -6 -24 -10 -27
-34 -22 -51 13 -133 79 -163 133 l-30 52 48 14 c27 9 79 15 118 14 l70 -2 -1
-81z m-244 38 c0 -21 67 -106 108 -138 25 -18 40 -34 35 -34 -26 0 -203 141
-203 161 0 7 22 15 48 18 6 0 12 -3 12 -7z m458 -33 c1 -8 -8 -30 -20 -49
l-22 -35 -8 40 c-4 22 -10 50 -13 63 -5 22 -4 22 27 9 18 -7 34 -20 36 -28z
m-367 -126 c30 -17 70 -36 89 -43 19 -7 36 -15 38 -16 4 -3 -43 -136 -59 -167
-13 -26 -49 -56 -66 -57 -9 0 -6 11 7 33 40 65 18 188 -44 246 -36 34 -104 39
-157 12 -23 -12 -50 -32 -60 -44 -24 -30 -43 -101 -35 -137 8 -43 -9 -29 -40
32 -17 33 -25 67 -26 100 0 59 22 88 116 149 l59 39 62 -59 c35 -32 87 -72
116 -88z m429 95 c0 -12 -62 -73 -91 -88 -24 -13 -27 11 -4 30 8 7 25 30 37
51 18 32 24 36 40 28 10 -5 18 -15 18 -21z m610 -33 c0 6 5 2 10 -7 7 -12 4
-32 -10 -70 -22 -59 -103 -203 -121 -213 -6 -4 2 12 17 36 37 59 62 147 71
244 l7 80 12 -40 c7 -22 13 -35 14 -30z m-534 -17 c66 -69 84 -102 84 -150 0
-78 -36 -158 -84 -188 -20 -12 -20 -12 -3 13 52 80 38 200 -31 257 -20 17 -47
33 -60 36 l-22 6 27 33 c16 19 33 34 38 34 6 1 29 -18 51 -41z m590 -144 c-3
-8 -10 -12 -16 -9 -5 3 -7 0 -5 -8 3 -7 -19 -39 -50 -73 -31 -32 -53 -53 -49
-45 4 9 2 12 -7 9 -8 -3 -14 -11 -14 -19 0 -14 -69 -70 -110 -90 -11 -6 -6 0
10 13 76 57 177 198 207 288 l11 35 15 -43 c7 -23 11 -50 8 -58z m-967 70 c13
-11 -8 -10 -34 2 l-30 13 30 -6 c17 -3 32 -7 34 -9z m-336 -60 c29 -35 30 -58
3 -35 -8 7 -21 9 -27 5 -9 -5 -10 -2 -6 10 4 10 4 23 0 29 -4 7 -9 3 -14 -9
-7 -18 -8 -18 -8 2 -1 20 6 34 18 34 3 0 19 -16 34 -36z m-588 -183 c62 -65
66 -72 35 -56 -58 30 -144 100 -173 142 -32 47 -34 57 -7 43 11 -6 18 -15 15
-21 -4 -5 -2 -9 3 -9 6 0 12 7 16 15 3 9 0 15 -9 15 -14 0 -19 12 -16 33 0 4
-3 7 -8 7 -5 0 -7 9 -4 21 5 17 13 8 42 -47 20 -39 67 -102 106 -143z m1312
127 l6 -55 -52 15 c-28 9 -51 19 -51 23 0 4 16 21 35 38 19 17 35 36 35 43 0
8 3 9 11 1 5 -5 13 -35 16 -65z m-617 -8 c0 -47 -21 -68 -45 -44 -11 12 -14
25 -10 43 16 62 55 63 55 1z m488 18 c22 -22 12 -88 -14 -88 -24 0 -39 46 -26
75 13 28 22 31 40 13z m-1218 -178 c50 -32 65 -48 34 -36 -14 6 -15 4 -4 -9
10 -12 15 -13 21 -4 5 9 19 7 56 -9 l48 -21 -60 -1 c-68 0 -144 18 -210 50
-41 20 -59 40 -35 40 6 0 10 10 10 23 0 13 6 29 13 36 10 11 10 13 0 7 -9 -5
-13 2 -13 24 l0 32 45 -50 c25 -27 67 -64 95 -82z m590 -8 c0 -3 -13 -26 -29
-52 -16 -27 -39 -71 -51 -99 -12 -28 -27 -48 -32 -45 -5 4 -23 35 -39 70 -33
71 -30 92 19 119 24 13 132 19 132 7z m142 -42 c43 -14 78 -28 78 -31 0 -3
-21 -30 -48 -60 -26 -30 -57 -68 -68 -84 l-22 -29 -20 41 c-26 50 -56 167 -49
187 4 10 13 12 29 7 13 -4 58 -18 100 -31z m730 -26 c-2 -27 -13 -69 -24 -94
l-20 -45 -28 60 c-15 33 -34 66 -43 74 -25 20 -21 37 11 49 40 16 65 19 87 11
17 -6 20 -14 17 -55z m-1580 27 c67 -39 145 -54 256 -48 57 3 120 3 141 0 37
-5 37 -5 39 -57 2 -57 32 -156 69 -229 13 -26 21 -52 18 -57 -3 -4 -28 -16
-57 -26 -114 -37 -289 -1 -415 88 -26 18 -51 36 -56 39 -17 12 -48 309 -33
309 3 0 20 -9 38 -19z m1434 -18 c-2 -10 -8 -34 -11 -53 -9 -43 -59 -155 -73
-164 -7 -4 -22 15 -38 46 -15 29 -38 70 -51 91 -13 22 -23 40 -21 42 2 1 37
10 78 19 41 9 82 21 90 26 23 15 32 12 26 -7z m-352 -34 c49 -6 98 -8 108 -6
27 7 23 -14 -16 -91 -34 -67 -90 -141 -99 -132 -4 5 -118 225 -126 244 -2 5 7
6 20 2 13 -3 64 -11 113 -17z m-1034 -298 c21 -15 53 -34 69 -41 17 -7 28 -16
25 -21 -3 -5 1 -6 9 -4 7 3 30 -2 52 -10 21 -9 65 -20 99 -25 l61 -7 -60 -2
c-138 -2 -277 41 -283 89 -2 14 -9 31 -14 38 -17 20 0 14 42 -17z m1973 -68
c-43 -105 -122 -233 -142 -233 -5 0 -11 10 -14 23 -4 12 -13 31 -21 42 -14 20
-15 19 -49 -13 -33 -32 -35 -33 -78 -21 l-45 12 87 43 c58 29 101 59 130 91
36 40 112 89 141 92 4 1 0 -16 -9 -36z m-1449 -30 l25 -36 -21 -30 c-21 -29
-94 -81 -131 -93 -12 -4 -30 2 -48 15 -35 26 -59 27 -59 3 0 -10 -3 -21 -6
-24 -10 -11 -158 44 -211 78 -29 18 -59 47 -68 64 -18 35 -16 36 51 11 28 -11
89 -23 135 -26 77 -6 92 -4 181 24 54 18 100 36 103 41 11 18 24 11 49 -27z
m1151 -11 c44 -2 98 1 120 7 75 20 52 -9 -53 -69 -36 -21 -61 -29 -75 -25 -17
5 -19 4 -7 -4 13 -9 13 -10 0 -15 -8 -2 -30 -9 -49 -15 -48 -15 -47 -16 -61
34 -7 25 -16 45 -21 45 -4 0 -23 -9 -42 -20 -28 -17 -36 -18 -51 -7 -16 12
-14 17 25 64 l43 50 45 -20 c29 -13 75 -22 126 -25z m-965 -53 c12 -39 19 -73
16 -76 -2 -3 -24 9 -48 26 -67 47 -82 60 -77 66 11 11 75 53 81 54 4 1 17 -31
28 -70z m632 4 c32 -29 22 -43 -64 -88 -52 -27 -62 -22 -24 14 13 12 32 38 42
57 21 39 22 39 46 17z m-393 -48 c28 -74 35 -105 24 -105 -26 0 -132 24 -165
37 l-37 15 71 54 c39 30 75 54 79 54 4 0 17 -25 28 -55z m191 51 c0 -2 -8 -10
-17 -17 -16 -13 -17 -12 -4 4 13 16 21 21 21 13z m49 -61 c13 -31 22 -57 20
-59 -13 -11 -80 -27 -137 -32 l-67 -7 41 34 c22 19 56 53 74 77 18 23 35 42
39 42 3 0 17 -25 30 -55z m344 5 c6 -23 -7 -25 -43 -5 l-25 14 25 9 c30 11 36
9 43 -18z m-1290 -70 c46 -12 57 -23 37 -35 -5 -3 -10 -1 -10 4 0 6 -4 11 -10
11 -5 0 -10 -7 -10 -15 0 -31 -79 -48 -104 -22 -7 6 -20 24 -30 40 -18 26 -18
27 0 27 22 0 16 7 -11 12 -19 3 -44 25 -45 40 0 3 30 -7 68 -22 37 -16 88 -34
115 -40z m1243 43 c-6 -6 -36 9 -36 18 0 5 9 4 20 -3 10 -7 18 -14 16 -15z
m-1136 -33 c14 -11 31 -20 38 -20 22 0 13 -25 -17 -43 -50 -29 -61 -23 -61 33
0 28 3 50 8 50 4 0 18 -9 32 -20z m1450 -21 c6 -23 9 -44 6 -47 -7 -7 -86 16
-86 25 0 10 52 63 61 63 5 0 13 -18 19 -41z m-757 -46 c-7 -2 -19 -2 -25 0 -7
3 -2 5 12 5 14 0 19 -2 13 -5z m684 -39 c-3 -3 -12 -4 -19 -1 -8 3 -5 6 6 6
11 1 17 -2 13 -5z m-813 -20 c3 -8 2 -12 -4 -9 -6 3 -10 10 -10 16 0 14 7 11
14 -7z m683 -10 c-3 -3 -12 -4 -19 -1 -8 3 -5 6 6 6 11 1 17 -2 13 -5z m-953
-40 c3 -8 2 -12 -4 -9 -6 3 -10 10 -10 16 0 14 7 11 14 -7z m-49 -107 c16 -25
16 -32 5 -67 -7 -22 -15 -40 -16 -40 -17 0 -94 47 -94 57 0 7 -12 13 -27 13
-16 0 -35 5 -43 11 -13 8 -9 14 20 37 19 15 53 44 75 64 l40 37 11 -43 c6 -23
19 -54 29 -69z m722 46 c-3 -10 -5 -4 -5 12 0 17 2 24 5 18 2 -7 2 -21 0 -30z
m10 -55 c-3 -7 -5 -2 -5 12 0 14 2 19 5 13 2 -7 2 -19 0 -25z m-247 -3 c13
-14 21 -25 18 -25 -2 0 -15 11 -28 25 -13 14 -21 25 -18 25 2 0 15 -11 28 -25z
m-416 -41 c3 -8 2 -12 -4 -9 -6 3 -10 10 -10 16 0 14 7 11 14 -7z m97 -1 c13
-16 12 -17 -3 -4 -10 7 -18 15 -18 17 0 8 8 3 21 -13z m-70 -40 c13 -16 12
-17 -3 -4 -10 7 -18 15 -18 17 0 8 8 3 21 -13z m109 -14 c15 -28 5 -23 -15 7
-9 15 -12 23 -6 20 6 -4 16 -16 21 -27z m365 20 c11 -17 -1 -21 -15 -4 -8 9
-8 15 -2 15 6 0 14 -5 17 -11z m-490 -29 c10 -11 16 -20 13 -20 -3 0 -13 9
-23 20 -10 11 -16 20 -13 20 3 0 13 -9 23 -20z m533 -36 c-4 -3 -12 5 -18 18
-12 22 -12 22 6 6 10 -10 15 -20 12 -24z"/>
<path d="M1410 2051 c0 -6 7 -11 15 -11 8 0 15 -9 15 -20 0 -14 6 -20 23 -19
21 0 21 1 2 9 -11 5 -14 9 -7 9 18 1 15 18 -5 25 -10 3 -24 9 -30 12 -7 3 -13
1 -13 -5z"/>
<path d="M1571 1911 c-8 -5 -11 -16 -8 -25 10 -25 27 -19 27 9 0 28 0 28 -19
16z"/>
<path d="M1578 1840 c-7 -24 -3 -38 8 -28 3 4 4 17 2 30 l-3 23 -7 -25z"/>
<path d="M605 1250 c-24 -9 -52 -40 -37 -40 5 0 15 7 22 15 7 8 19 15 26 15 8
0 14 5 14 10 0 6 -1 10 -2 9 -2 0 -12 -4 -23 -9z"/>
<path d="M603 1205 c-17 -7 -37 -23 -43 -35 -16 -30 -6 -36 13 -7 18 27 93 53
126 42 12 -4 21 -2 21 4 0 16 -79 13 -117 -4z"/>
<path d="M1366 1504 c-5 -14 -4 -15 9 -4 17 14 19 20 6 20 -5 0 -12 -7 -15
-16z"/>
<path d="M83 1183 c9 -9 19 -14 23 -11 10 10 -6 28 -24 28 -15 0 -15 -1 1 -17z"/>
<path d="M127 1136 c-4 -10 -13 -13 -23 -9 -12 5 -15 3 -9 -6 4 -7 18 -11 31
-8 13 2 21 0 18 -4 -3 -5 2 -9 10 -9 12 0 13 5 7 22 -10 27 -27 34 -34 14z"/>
<path d="M280 454 c0 -8 5 -12 10 -9 6 3 10 10 10 16 0 5 -4 9 -10 9 -5 0 -10
-7 -10 -16z"/>
<path d="M680 170 c0 -5 5 -10 11 -10 5 0 7 5 4 10 -3 6 -8 10 -11 10 -2 0 -4
-4 -4 -10z"/>
<path d="M1480 266 c0 -23 4 -26 38 -26 24 0 32 3 23 9 -7 5 -22 6 -32 4 -14
-4 -18 -1 -13 10 3 8 1 18 -5 22 -7 4 -11 -4 -11 -19z"/>
</g>
</svg>
