<?xml version="1.0" standalone="no"?>
<!DOCTYPE svg PUBLIC "-//W3C//DTD SVG 20010904//EN"
 "http://www.w3.org/TR/2001/REC-SVG-20010904/DTD/svg10.dtd">
<svg version="1.0" xmlns="http://www.w3.org/2000/svg"
 width="217.000000pt" height="216.000000pt" viewBox="0 0 217.000000 216.000000"
 preserveAspectRatio="xMidYMid meet">

<g transform="translate(0.000000,216.000000) scale(0.100000,-0.100000)"
fill="#000000" stroke="none">
<path d="M929 2135 c-286 -41 -537 -192 -720 -433 -69 -91 -143 -247 -175
-367 -24 -88 -27 -119 -27 -260 0 -141 3 -172 27 -260 82 -312 313 -586 604
-716 172 -77 379 -111 554 -91 56 7 126 19 153 27 l50 15 -45 -6 c-25 -3 -52
-8 -61 -10 -14 -4 -15 1 -8 38 4 24 8 49 9 57 0 8 14 1 35 -18 20 -17 40 -31
45 -31 5 0 15 -7 24 -15 14 -14 23 -12 93 15 307 118 562 407 650 735 23 88
26 118 26 260 0 142 -3 172 -26 260 -116 432 -482 750 -927 805 -104 12 -170
11 -281 -5z m32 -27 c1 -7 1 -16 0 -20 0 -5 5 -7 12 -5 7 1 11 -6 9 -18 -5
-29 -10 -31 -25 -10 -12 15 -14 16 -14 1 0 -9 4 -16 9 -16 4 0 8 -9 8 -20 0
-11 -4 -20 -8 -20 -10 0 -32 44 -32 63 0 7 -9 18 -20 25 -11 7 -20 17 -20 22
0 15 80 12 81 -2z m109 8 c0 -2 -7 -6 -15 -10 -8 -3 -15 -1 -15 4 0 6 7 10 15
10 8 0 15 -2 15 -4z m156 -21 c24 -14 47 -31 51 -38 11 -19 123 -93 153 -101
14 -3 74 -13 133 -21 148 -20 187 -48 187 -136 0 -39 -5 -47 -52 -91 -29 -26
-55 -48 -59 -48 -8 0 -123 -131 -137 -157 -9 -15 -15 -12 -55 23 -91 80 -215
124 -352 124 l-73 0 -11 33 c-22 70 -33 161 -29 231 6 96 41 159 101 187 57
25 92 24 143 -6z m129 -65 c3 -5 2 -10 -4 -10 -5 0 -13 5 -16 10 -3 6 -2 10 4
10 5 0 13 -4 16 -10z m-495 -25 c42 -22 78 -74 89 -131 19 -91 40 -189 47
-210 5 -18 1 -22 -33 -26 -21 -3 -74 -20 -118 -39 -99 -41 -192 -129 -245
-232 -35 -68 -35 -68 -70 -63 -72 12 -112 28 -145 61 -58 56 -71 125 -36 201
17 37 93 114 113 114 4 0 16 8 27 19 10 10 25 23 33 27 21 14 78 90 78 106 0
23 59 111 93 138 27 22 89 46 125 49 7 1 26 -6 42 -14z m773 -52 c-7 -2 -19
-2 -25 0 -7 3 -2 5 12 5 14 0 19 -2 13 -5z m-1213 -277 c0 -3 -4 -8 -10 -11
-5 -3 -10 -1 -10 4 0 6 5 11 10 11 6 0 10 -2 10 -4z m1480 -28 c64 -33 103
-92 108 -167 4 -51 0 -69 -28 -130 -35 -75 -36 -107 -4 -171 11 -22 15 -50 12
-90 -5 -72 -41 -124 -106 -152 -52 -23 -74 -21 -189 19 l-83 28 0 117 c0 64
-5 141 -11 170 -12 55 -50 140 -77 171 -12 13 -13 22 -4 40 18 38 134 159 166
173 51 22 164 18 216 -8z m-665 -32 c66 -17 145 -57 194 -95 56 -44 117 -141
143 -225 39 -127 25 -346 -27 -411 -16 -19 -16 -19 -8 5 24 77 -12 213 -69
254 -28 20 -81 24 -101 8 -9 -8 -12 13 -13 86 -1 80 -6 110 -29 172 -26 71
-101 200 -116 200 -18 0 -90 -98 -143 -196 -74 -134 -137 -232 -176 -269 l-29
-28 -6 29 c-11 49 -13 50 -14 11 l-1 -38 -31 18 c-39 23 -163 136 -189 172
l-20 29 39 59 c74 115 149 171 280 210 89 26 237 30 316 9z m19 -85 c77 -127
108 -268 83 -385 l-8 -39 27 22 c15 11 39 21 55 21 31 0 85 -40 94 -71 7 -22
-29 -92 -65 -124 l-22 -20 -39 45 c-28 32 -39 54 -39 77 0 47 -15 48 -36 2
-48 -107 -224 -163 -334 -106 -34 17 -51 35 -76 81 l-32 59 52 61 c50 60 93
125 153 236 75 138 118 200 138 200 8 0 30 -26 49 -59z m-1114 -43 c0 -5 -4
-8 -10 -8 -5 0 -10 10 -10 23 0 18 2 19 10 7 5 -8 10 -18 10 -22z m1897 -30
c-2 -13 -4 -3 -4 22 0 25 2 35 4 23 2 -13 2 -33 0 -45z m-1844 -43 c44 -49 45
-51 21 -53 -17 -1 -24 3 -24 16 -1 16 -2 15 -15 -2 -9 -12 -22 -17 -35 -13
-15 4 -20 0 -20 -13 0 -19 -19 -30 -51 -30 -25 0 -24 15 3 42 15 15 16 20 5
15 -14 -5 -15 -3 -5 18 6 13 14 22 18 20 5 -3 11 2 14 11 5 13 9 14 20 5 18
-15 31 2 21 27 -3 9 -4 14 -2 12 2 -3 24 -28 50 -55z m222 -110 c66 -13 122
-25 125 -25 3 0 5 -53 3 -117 -2 -115 9 -187 44 -273 10 -22 7 -28 -23 -50
-54 -41 -44 -60 22 -41 29 8 33 6 44 -17 10 -23 9 -28 -5 -37 -43 -25 -124
-97 -168 -149 -32 -36 -56 -56 -71 -56 -24 0 -66 26 -66 41 0 5 -9 18 -19 28
-29 29 -36 86 -21 166 30 157 24 221 -29 300 -36 54 -51 90 -51 125 0 33 19
80 32 80 5 0 7 4 3 9 -6 10 32 41 50 41 5 0 64 -11 130 -25z m237 -51 c42 -45
47 -54 42 -85 -5 -30 -2 -36 20 -48 23 -13 25 -16 11 -31 -25 -28 -14 -63 28
-87 16 -8 12 -14 -37 -51 l-55 -42 -24 30 c-41 48 -62 124 -62 225 0 90 9 149
23 143 4 -2 29 -26 54 -54z m198 -166 c0 -3 16 -34 36 -67 45 -76 91 -101 185
-101 l64 -1 -49 -25 c-74 -39 -134 -54 -215 -54 -83 0 -90 8 -15 16 53 7 85
24 43 24 -27 0 -290 -53 -324 -66 -13 -4 -17 -4 -10 3 14 14 224 175 263 202
39 27 35 42 -4 16 -25 -16 -27 -16 -21 0 4 9 7 32 7 51 0 32 1 33 20 22 11 -7
20 -16 20 -20z m-636 7 c3 -8 1 -15 -4 -15 -6 0 -10 7 -10 15 0 8 2 15 4 15 2
0 6 -7 10 -15z m406 -160 c19 -30 20 -39 9 -45 -8 -6 -17 -4 -21 3 -14 21 -48
143 -47 168 0 14 7 1 18 -33 10 -31 29 -73 41 -93z m910 33 c0 -25 -3 -53 -6
-62 -8 -22 -44 -20 -72 4 l-24 20 41 46 c23 26 41 52 41 58 0 6 5 4 10 -4 5
-8 10 -36 10 -62z m-161 11 c42 -49 43 -50 25 -71 -11 -11 -48 -41 -82 -66
-70 -49 -65 -50 -102 20 -28 52 -25 73 13 97 18 11 43 31 56 45 14 14 29 26
35 26 6 0 31 -23 55 -51z m410 -77 c130 -59 145 -77 145 -171 1 -55 -3 -75
-20 -98 -21 -29 -96 -70 -176 -97 -64 -20 -117 -65 -159 -133 -95 -155 -179
-199 -289 -152 -59 25 -60 27 -99 150 -51 165 -55 150 52 202 174 86 278 177
341 302 28 56 29 57 65 50 20 -3 83 -28 140 -53z m-330 1 c27 -22 42 -83 28
-109 -5 -11 -28 -36 -51 -56 -54 -49 -84 -49 -130 0 -20 20 -36 42 -36 47 0 6
22 25 48 42 27 18 61 46 77 63 34 35 36 36 64 13z m-241 -58 l32 -50 -42 -18
c-49 -21 -160 -58 -163 -55 -1 2 -7 12 -14 23 -12 19 -12 19 -6 -2 5 -20 2
-21 -80 -28 -54 -5 -90 -4 -97 3 -5 5 -12 28 -15 50 -5 37 -3 41 18 46 90 19
139 10 157 -28 10 -20 11 -19 11 9 2 41 12 55 63 81 68 35 97 28 136 -31z
m917 -33 c-11 -38 -19 -50 -30 -46 -17 7 -21 -16 -6 -32 10 -11 -4 -54 -18
-54 -12 0 -23 29 -14 42 3 7 1 8 -5 4 -8 -5 -12 0 -12 13 0 12 -6 21 -14 21
-8 0 -18 9 -21 20 -3 11 -11 20 -16 20 -23 0 -6 20 19 21 15 0 50 11 77 23 28
13 51 22 52 21 2 -1 -4 -25 -12 -53z m-1331 6 c8 -13 17 -42 21 -64 l6 -42
-47 9 c-103 19 -154 87 -81 108 56 16 85 13 101 -11z m490 -83 c47 -56 40 -73
-47 -115 -64 -30 -102 -33 -149 -9 -13 7 -17 4 -20 -13 -3 -20 -8 -22 -63 -19
-83 4 -142 40 -160 99 -6 21 -4 22 58 22 36 0 78 3 94 6 27 5 31 3 46 -37 9
-23 19 -40 22 -37 3 2 -2 19 -11 37 -9 18 -12 36 -8 41 5 4 41 17 79 29 39 11
77 25 85 31 25 17 36 12 74 -35z m673 -27 c-2 -13 -4 -5 -4 17 -1 22 1 32 4
23 2 -10 2 -28 0 -40z m-1180 2 c37 0 49 -9 63 -44 14 -37 1 -52 -31 -36 -44
23 -119 82 -130 102 -10 19 -9 19 30 -1 22 -12 53 -21 68 -21z m23 -89 c69
-37 169 -61 257 -61 l61 0 7 -42 c4 -24 18 -80 33 -125 l26 -83 -22 -45 c-35
-72 -116 -109 -190 -87 -21 6 -61 29 -90 52 -67 50 -116 63 -212 57 -105 -6
-160 7 -198 46 -41 43 -55 113 -36 176 16 55 105 159 171 200 l43 27 45 -41
c24 -23 72 -56 105 -74z m1080 -51 c0 -5 -8 -10 -17 -10 -15 0 -16 2 -3 10 19
12 20 12 20 0z m-1535 -140 c-11 -18 -77 -30 -93 -17 -15 12 -3 15 86 25 7 1
11 -2 7 -8z m-31 -66 c3 -8 2 -12 -4 -9 -6 3 -10 10 -10 16 0 14 7 11 14 -7z
m1246 -29 c0 -8 -4 -15 -10 -15 -5 0 -7 7 -4 15 4 8 8 15 10 15 2 0 4 -7 4
-15z m-160 -119 c0 -3 -4 -8 -10 -11 -5 -3 -10 -1 -10 4 0 6 5 11 10 11 6 0
10 -2 10 -4z m-37 -13 c-7 -2 -21 -2 -30 0 -10 3 -4 5 12 5 17 0 24 -2 18 -5z"/>
<path d="M1412 1249 c-27 -10 -29 -23 -2 -16 28 7 96 -12 115 -33 9 -10 23
-36 31 -57 l15 -38 -5 39 c-9 69 -94 127 -154 105z"/>
<path d="M1107 1372 c-11 -12 -17 -36 -17 -64 0 -38 4 -46 25 -56 28 -13 32
-30 10 -38 -8 -4 -15 -16 -15 -28 0 -60 73 -91 100 -41 26 49 4 168 -40 215
-33 35 -41 36 -63 12z"/>
<path d="M150 1405 c0 -16 3 -24 8 -19 4 5 11 11 15 15 4 3 1 12 -8 19 -13 11
-15 9 -15 -15z"/>
</g>
</svg>
