<?xml version="1.0" standalone="no"?>
<!DOCTYPE svg PUBLIC "-//W3C//DTD SVG 20010904//EN"
 "http://www.w3.org/TR/2001/REC-SVG-20010904/DTD/svg10.dtd">
<svg version="1.0" xmlns="http://www.w3.org/2000/svg"
 width="260.000000pt" height="384.000000pt" viewBox="0 0 260.000000 384.000000"
 preserveAspectRatio="xMidYMid meet">

<g transform="translate(0.000000,384.000000) scale(0.100000,-0.100000)"
fill="#000000" stroke="none">
<path d="M121 3753 c-71 -75 -91 -216 -43 -312 16 -33 23 -37 102 -58 47 -12
123 -27 170 -34 l86 -11 12 -52 c7 -29 24 -86 38 -126 40 -119 40 -114 -1
-140 l-37 -23 6 -58 7 -57 -30 -7 c-36 -8 -137 -84 -163 -123 -10 -15 -28 -57
-39 -93 -18 -60 -19 -75 -9 -148 30 -220 125 -331 309 -363 88 -15 169 -1 254
44 52 28 60 30 82 18 34 -18 31 -25 -10 -28 -117 -8 -249 -101 -298 -211 -52
-115 -11 -278 95 -384 62 -63 65 -67 45 -67 -19 0 -64 -49 -77 -84 -7 -21 -8
-38 0 -61 7 -21 7 -41 1 -57 -5 -14 -6 -41 -2 -59 19 -83 55 -112 141 -112 55
0 60 -2 70 -28 18 -43 82 -82 144 -87 l54 -4 -28 -62 c-22 -50 -80 -232 -80
-253 0 -3 -6 -3 -13 0 -21 8 -74 -22 -93 -51 -9 -14 -20 -49 -23 -78 l-6 -52
-73 43 c-78 46 -126 57 -253 56 -141 0 -236 -60 -278 -174 -19 -52 -20 -66
-11 -124 6 -36 18 -79 26 -95 13 -25 13 -30 0 -44 -8 -8 -18 -31 -22 -51 -16
-88 18 -94 471 -95 519 -2 596 14 580 117 -5 34 -2 45 14 59 50 45 63 174 26
245 -14 29 -14 32 5 51 44 44 13 147 -53 171 -19 7 -34 17 -32 23 21 68 76
203 102 247 31 54 35 57 80 62 52 6 83 33 83 73 0 23 3 24 74 24 41 0 81 2 88
5 10 4 17 -6 24 -32 7 -30 15 -39 41 -46 38 -11 38 -11 -17 -197 l-37 -125
-45 -7 c-58 -8 -97 -33 -115 -75 -13 -33 -9 -76 10 -100 6 -9 0 -23 -21 -47
-56 -64 -66 -180 -22 -266 16 -30 18 -45 10 -59 -11 -22 -3 -76 14 -89 17 -14
437 -34 551 -27 114 7 408 32 473 41 52 7 82 33 82 73 0 45 -10 61 -36 61 -28
0 -30 7 -8 39 20 27 30 137 20 205 -14 92 -122 162 -266 173 -89 7 -164 -12
-294 -75 -5 -3 -6 1 -2 7 12 19 -4 69 -31 102 l-26 31 21 61 c31 89 50 180 58
275 5 65 11 85 25 92 10 6 20 19 24 30 5 17 15 19 79 18 85 -1 126 7 181 34
120 60 185 195 118 248 -22 17 -38 21 -84 18 l-55 -3 15 37 c9 20 29 44 44 53
61 36 95 129 76 205 -12 46 -11 49 15 81 15 17 39 55 54 83 37 70 38 187 3
258 -28 58 -88 111 -150 133 -57 21 -232 31 -283 17 -21 -6 -38 -9 -38 -6 0 2
22 36 49 76 78 117 107 176 145 294 41 130 53 236 37 346 -20 142 -33 152
-257 197 -321 64 -749 45 -1032 -47 l-63 -20 -34 74 c-43 94 -90 231 -106 312
-7 34 -20 69 -29 77 -9 8 -52 20 -96 25 -63 9 -314 68 -452 106 -18 5 -31 -2
-61 -33z m116 -16 c2 -3 -8 -27 -23 -53 -22 -37 -28 -63 -32 -125 -3 -44 0
-91 7 -109 10 -31 10 -32 -12 -26 -12 3 -30 6 -39 6 -23 0 -39 32 -48 98 -9
67 2 122 37 181 24 42 27 43 65 38 22 -3 42 -8 45 -10z m311 -77 l52 -12 -29
-24 c-29 -24 -92 -134 -115 -200 l-12 -37 -18 38 c-22 46 -18 158 8 219 13 32
20 37 39 32 12 -3 46 -10 75 -16z m160 -34 c5 -6 14 -36 21 -66 6 -30 12 -59
14 -64 1 -5 -20 -10 -48 -11 -76 -3 -130 -24 -174 -66 -22 -22 -42 -39 -45
-39 -18 0 46 148 86 199 45 58 120 82 146 47z m1050 -372 l62 -6 0 -92 c0 -58
-7 -116 -18 -157 -25 -91 -98 -198 -162 -239 -59 -38 -156 -70 -211 -70 l-38
0 18 33 c35 60 34 167 0 167 -6 0 -28 10 -47 22 l-36 22 53 47 53 47 -17 52
c-41 125 -177 120 -225 -8 -18 -47 -21 -73 -18 -152 2 -63 9 -106 21 -129 9
-19 16 -36 14 -38 -8 -7 -100 82 -123 119 -52 82 -88 214 -77 286 5 29 10 34
57 47 170 48 470 70 694 49z m-924 -9 c15 -15 31 -54 24 -59 -1 -2 -43 -18
-93 -36 -49 -18 -116 -46 -149 -62 -32 -16 -59 -28 -60 -26 -10 17 -26 63 -26
77 0 68 253 157 304 106z m1162 -20 c118 -26 172 -43 191 -57 35 -28 47 -264
18 -363 -17 -61 -54 -95 -102 -95 -22 0 -31 6 -40 29 -9 24 -8 32 8 48 12 11
22 40 26 71 l6 52 -42 17 c-22 9 -41 19 -41 23 0 4 19 22 41 40 39 31 41 35
36 77 -5 50 -43 98 -82 106 -34 6 -78 -18 -99 -54 -23 -39 -24 -193 -1 -258
24 -70 2 -85 -34 -21 -34 62 -49 152 -40 250 4 47 5 102 2 123 -5 34 -4 37 19
37 14 0 74 -11 134 -25z m-1014 -87 c-2 -24 3 -73 12 -111 48 -206 193 -339
393 -361 58 -6 166 20 237 57 64 34 113 86 162 173 l31 55 12 -47 c7 -26 21
-61 33 -77 l21 -29 -37 -30 c-46 -37 -49 -82 -10 -122 58 -57 153 -59 208 -3
26 27 113 63 124 52 9 -8 -51 -132 -104 -216 -82 -130 -148 -193 -264 -251
-131 -66 -272 -98 -455 -105 -129 -5 -147 -4 -239 21 -177 47 -289 125 -411
289 -102 135 -205 394 -205 514 l0 38 113 57 c110 56 313 130 372 137 6 1 9
-17 7 -41z m-496 -353 c7 -27 15 -59 18 -70 5 -15 -2 -25 -26 -40 -79 -50 -99
-164 -42 -246 58 -84 168 -123 242 -85 l30 16 46 -51 c25 -28 46 -55 46 -59 0
-5 -26 -21 -57 -36 -76 -35 -168 -43 -247 -20 -138 40 -195 110 -231 281 -20
97 -19 123 6 190 25 67 59 109 119 147 62 40 81 35 96 -27z m70 -187 c16 -34
51 -96 77 -137 54 -83 52 -91 -21 -91 -50 0 -86 17 -123 57 -66 71 -67 135 -1
206 14 15 29 27 32 27 3 0 20 -28 36 -62z m1634 -493 c39 -20 53 -47 41 -78
-12 -31 -25 -39 -70 -43 -43 -4 -91 -23 -91 -36 0 -5 -26 -7 -57 -4 l-57 4
-27 58 c-15 32 -26 61 -23 65 4 7 76 33 119 42 47 11 138 6 165 -8z m-1093
-170 c25 -5 34 -13 47 -45 9 -22 16 -51 16 -64 0 -21 -6 -24 -52 -31 -29 -4
-84 -8 -123 -9 -45 -1 -82 -8 -104 -20 -34 -18 -35 -18 -53 4 -36 44 -13 120
44 151 43 23 134 29 225 14z m1191 -26 c88 -58 124 -167 80 -248 -32 -60 -44
-61 -53 -4 -3 26 -15 67 -25 90 -23 51 -97 133 -145 159 -39 21 -43 30 -17 38
44 13 109 -1 160 -35z m-196 -19 c55 -16 119 -69 156 -130 29 -48 32 -62 32
-130 0 -91 -17 -131 -89 -218 -56 -67 -56 -84 0 -26 38 40 74 58 137 68 76 12
103 -20 74 -88 -44 -99 -183 -162 -315 -142 -45 7 -45 8 -59 59 -15 61 -16 53
16 144 32 92 43 203 26 273 -10 42 -19 56 -46 72 -26 15 -35 29 -43 69 -6 28
-11 52 -11 54 0 9 85 5 122 -5z m-846 -156 c145 -68 214 -201 184 -350 -15
-75 -46 -128 -107 -185 -99 -93 -201 -133 -325 -127 -77 3 -81 4 -114 40 -19
21 -34 43 -34 50 1 21 23 44 59 63 34 17 48 17 166 -1 17 -2 44 0 60 4 26 7
21 9 -37 15 -80 7 -142 36 -163 77 -20 38 -21 37 22 45 180 34 258 243 134
360 l-32 30 28 6 c45 9 104 -1 159 -27z m-227 2 c15 -8 42 -31 60 -51 28 -32
31 -42 31 -99 0 -49 -5 -71 -23 -97 -31 -46 -78 -76 -143 -89 -47 -10 -59 -9
-91 7 -36 18 -82 68 -72 78 3 3 24 -2 47 -11 76 -30 143 11 163 101 16 72 4
99 -56 125 -25 11 -45 24 -45 29 0 22 90 27 129 7z m-267 -271 c4 -15 21 -42
38 -60 l30 -31 -52 -3 c-29 -1 -66 -3 -83 -4 -25 -2 -31 2 -33 22 -6 41 8 71
41 91 39 24 49 22 59 -15z m139 -137 c6 -13 20 -32 30 -44 19 -20 18 -20 -21
-38 -23 -10 -48 -29 -56 -42 -14 -21 -24 -24 -78 -24 -77 0 -105 24 -113 94
-5 44 -4 46 28 61 21 8 67 14 116 15 75 0 83 -2 94 -22z m1069 -332 c-15 -113
-60 -256 -100 -319 -43 -69 -83 -80 -179 -51 -62 18 -62 12 -8 169 19 56 42
135 52 177 l16 76 47 7 c26 3 76 16 112 28 36 12 67 18 69 13 2 -5 -2 -50 -9
-100z m-742 18 c29 -4 51 -10 49 -13 -38 -71 -71 -152 -97 -234 -48 -156 -45
-152 -116 -151 -79 1 -104 15 -104 58 0 47 66 262 97 315 25 43 25 43 72 37
25 -3 70 -9 99 -12z"/>
<path d="M924 2719 c-43 -12 -102 -73 -109 -112 -15 -81 52 -215 143 -282 92
-68 158 -93 286 -110 138 -18 205 -10 287 32 86 45 122 113 95 178 -18 43 -63
68 -168 94 -135 33 -192 58 -279 122 -44 33 -90 64 -102 68 -38 14 -121 20
-153 10z"/>
<path d="M1220 1645 c7 -8 27 -15 44 -15 17 -1 42 -7 56 -15 29 -16 40 -18 40
-7 0 17 -79 52 -115 52 -32 0 -36 -2 -25 -15z"/>
<path d="M1212 1549 c3 -8 25 -17 50 -20 25 -4 55 -12 67 -18 27 -15 27 0 1
24 -25 23 -125 35 -118 14z"/>
<path d="M1184 1449 c-8 -14 13 -36 43 -44 15 -3 40 -17 56 -31 33 -28 44 -26
28 4 -21 40 -114 92 -127 71z"/>
</g>
</svg>
