<?xml version="1.0" standalone="no"?>
<!DOCTYPE svg PUBLIC "-//W3C//DTD SVG 20010904//EN"
 "http://www.w3.org/TR/2001/REC-SVG-20010904/DTD/svg10.dtd">
<svg version="1.0" xmlns="http://www.w3.org/2000/svg"
 width="195.000000pt" height="195.000000pt" viewBox="0 0 195.000000 195.000000"
 preserveAspectRatio="xMidYMid meet">

<g transform="translate(0.000000,195.000000) scale(0.100000,-0.100000)"
fill="#000000" stroke="none">
<path d="M845 1935 c-49 -7 -103 -16 -120 -20 -62 -16 -183 -68 -255 -110 -75
-43 -157 -66 -290 -80 -89 -10 -97 -13 -111 -47 -22 -54 -16 -121 17 -185 l30
-58 -27 -60 c-89 -196 -106 -454 -44 -669 137 -474 616 -775 1098 -691 116 20
214 57 326 122 215 126 376 342 443 593 19 71 22 109 22 235 -1 127 -5 165
-27 248 -73 277 -259 502 -522 634 -161 81 -360 113 -540 88z m275 -25 c489
-77 848 -553 790 -1046 -14 -124 -38 -204 -95 -320 -49 -98 -154 -236 -224
-293 l-44 -36 7 35 c5 19 9 60 11 90 2 30 11 82 20 115 15 50 16 67 6 103 -25
91 -115 152 -225 152 l-50 0 55 53 c119 113 187 251 214 432 15 105 14 235 -4
263 -12 19 -116 60 -194 76 -131 27 -287 36 -435 25 -75 -6 -155 -14 -177 -19
-22 -5 -43 -10 -47 -10 -8 0 -58 121 -88 213 -12 38 -27 70 -34 73 -7 3 -32
-2 -56 -11 -64 -23 -59 -13 13 23 157 78 377 110 557 82z m-514 -137 c3 -10
17 -46 30 -81 13 -34 24 -67 24 -72 0 -6 -19 -10 -43 -10 -44 0 -115 -36 -146
-73 -20 -25 -29 -21 -37 18 -13 73 37 172 110 216 39 24 55 24 62 2z m-113
-25 c-55 -60 -77 -108 -75 -164 1 -63 -10 -63 -39 0 -19 41 -25 121 -11 143 4
6 32 18 62 26 80 22 87 21 63 -5z m-308 -121 c0 -66 4 -79 32 -126 36 -58 33
-63 -35 -65 -33 -1 -40 4 -68 46 -37 54 -51 128 -34 173 14 37 26 45 70 45
l35 0 0 -73z m1067 -93 c39 -11 36 -174 -5 -266 -75 -170 -321 -269 -475 -192
-86 43 -154 112 -201 206 -26 52 -42 99 -43 127 l-3 44 55 19 c84 29 243 59
360 68 100 8 276 4 312 -6z m131 -20 c41 -9 98 -28 128 -43 l54 -26 3 -94 c3
-85 0 -100 -24 -148 -28 -59 -52 -79 -104 -89 -30 -6 -33 -5 -26 12 4 10 10
34 13 52 5 28 1 37 -33 67 l-39 35 29 24 c25 21 28 28 22 60 -8 41 -29 56 -80
56 -35 0 -36 1 -36 39 0 22 -3 46 -6 55 -8 20 6 20 99 0z m-940 -49 c4 -23 -2
-29 -47 -52 -28 -14 -66 -37 -85 -51 -33 -24 -33 -26 -28 -84 l5 -59 -41 -18
c-60 -26 -112 -87 -127 -150 -31 -130 29 -255 148 -307 47 -21 161 -21 221 -1
64 23 100 5 42 -21 -49 -22 -83 -53 -102 -96 -23 -51 -24 -91 -3 -153 22 -64
47 -94 129 -154 69 -50 110 -105 99 -134 -9 -22 32 -90 63 -104 53 -25 6 -22
-63 4 -247 93 -459 298 -554 536 -45 114 -59 176 -66 306 -8 128 5 230 42 343
41 122 55 146 86 142 30 -4 158 30 221 58 55 24 54 24 60 -5z m76 -83 c14 -73
86 -198 141 -245 52 -44 144 -93 192 -101 73 -13 266 48 307 98 12 15 16 14
37 -9 23 -25 26 -25 153 -23 122 3 131 4 157 28 14 14 35 39 46 55 13 19 18
23 14 10 -2 -11 -12 -51 -22 -89 -32 -134 -92 -235 -196 -331 -84 -78 -187
-126 -283 -133 -64 -4 -77 -1 -132 26 -72 37 -182 67 -279 77 -38 4 -80 13
-94 20 -35 18 -121 111 -153 165 -67 115 -128 368 -97 405 12 15 174 103 191
104 4 1 12 -25 18 -57z m-217 -247 l15 -56 -33 -33 c-29 -29 -34 -41 -34 -81
0 -40 5 -52 35 -82 32 -32 38 -34 90 -32 52 3 58 1 95 -36 47 -46 43 -50 -49
-66 -109 -20 -215 31 -263 125 -30 58 -30 156 -1 216 21 42 89 100 118 100 7
0 19 -25 27 -55z m40 -117 c7 -18 24 -57 40 -87 15 -29 28 -55 28 -57 0 -2
-18 -4 -41 -4 -82 0 -128 90 -78 154 27 34 38 33 51 -6z m436 -454 l33 -14
-42 -39 c-23 -22 -53 -48 -66 -56 -23 -15 -25 -15 -53 16 -34 35 -38 69 -12
91 34 30 70 31 140 2z m617 -39 c32 -31 32 -55 2 -55 -16 0 -27 9 -37 33 -7
17 -15 35 -18 40 -10 18 31 5 53 -18z m-388 -13 c78 -40 128 -118 139 -218 9
-76 -10 -135 -62 -193 -59 -66 -85 -75 -195 -69 -74 5 -95 9 -111 26 -21 21
-32 68 -18 77 8 5 82 -24 132 -51 28 -15 52 -19 29 -5 -11 7 -6 13 22 25 42
17 51 31 11 16 -14 -6 -38 -10 -53 -10 -56 0 -149 56 -113 68 8 2 29 17 47 33
80 71 62 216 -32 256 -30 12 -33 16 -21 30 38 47 148 54 225 15z m-168 -87
c32 -31 41 -117 17 -167 -38 -80 -147 -91 -194 -20 -15 23 -15 23 25 16 42 -6
57 2 90 52 23 36 9 82 -33 101 -40 20 -42 26 -11 41 31 16 78 6 106 -23z m631
3 c55 -28 87 -80 76 -123 l-7 -29 -19 30 c-11 16 -48 55 -82 86 -57 52 -61 57
-38 58 14 0 46 -10 70 -22z m36 -143 c31 -66 30 -82 -8 -105 l-33 -20 -6 78
c-3 42 -9 91 -14 107 l-8 30 23 -20 c13 -11 33 -42 46 -70z m-778 -112 c12 -3
22 -6 22 -8 0 -14 -24 -65 -31 -65 -12 0 -49 60 -49 79 0 9 6 11 18 6 9 -4 27
-10 40 -12z"/>
<path d="M764 1409 c-28 -30 -29 -33 -28 -132 0 -111 20 -169 66 -201 35 -25
83 -20 107 10 29 37 31 150 2 159 -39 12 -46 33 -23 65 30 40 28 56 -12 96
-43 43 -73 44 -112 3z"/>
<path d="M634 1036 c-19 -19 -34 -42 -34 -52 1 -15 4 -13 15 8 l15 27 43 -25
c23 -13 78 -36 122 -50 108 -35 293 -45 379 -20 69 20 69 31 0 16 -70 -16
-258 -13 -328 5 -32 8 -92 29 -133 46 l-74 31 22 24 c35 37 11 28 -27 -10z"/>
<path d="M930 460 c-12 -8 -11 -10 5 -9 11 1 34 5 50 9 l30 8 -35 1 c-19 0
-42 -4 -50 -9z"/>
<path d="M975 380 c-17 -7 -15 -9 10 -8 17 0 41 4 55 8 23 7 22 8 -10 8 -19 0
-44 -3 -55 -8z"/>
<path d="M970 293 c0 -5 23 -14 52 -20 44 -9 49 -8 33 3 -10 8 -27 14 -36 14
-10 0 -24 3 -33 6 -9 3 -16 2 -16 -3z"/>
</g>
</svg>
