<?xml version="1.0" standalone="no"?>
<!DOCTYPE svg PUBLIC "-//W3C//DTD SVG 20010904//EN"
 "http://www.w3.org/TR/2001/REC-SVG-20010904/DTD/svg10.dtd">
<svg version="1.0" xmlns="http://www.w3.org/2000/svg"
 width="547.000000pt" height="648.000000pt" viewBox="0 0 547.000000 648.000000"
 preserveAspectRatio="xMidYMid meet">

<g transform="translate(0.000000,648.000000) scale(0.100000,-0.100000)"
fill="#000000" stroke="none">
<path d="M3283 6451 c-39 -11 -89 -29 -112 -40 -34 -18 -44 -19 -61 -9 -11 7
-20 16 -20 20 0 5 -14 8 -31 8 -21 0 -39 -9 -59 -31 l-28 -32 -109 13 c-102
12 -111 11 -164 -9 -66 -25 -115 -70 -141 -129 -15 -33 -19 -63 -18 -140 2
-77 -1 -96 -11 -94 -159 41 -202 35 -293 -37 -54 -43 -72 -66 -108 -136 -60
-118 -79 -115 -113 15 -40 156 -135 300 -255 391 -80 60 -132 84 -255 114 -98
25 -122 27 -215 22 -157 -9 -280 -59 -401 -164 -112 -97 -172 -181 -279 -393
-61 -119 -142 -200 -188 -186 -9 3 -34 33 -55 66 -37 60 -60 73 -85 48 -7 -7
-12 -20 -12 -30 0 -25 -7 -23 -47 12 -69 61 -111 21 -73 -69 13 -28 20 -54 17
-58 -4 -3 -37 2 -74 11 -64 15 -69 15 -80 -1 -18 -23 -16 -40 8 -82 36 -65 36
-65 339 -73 151 -5 327 -12 390 -17 116 -9 921 -7 973 2 16 3 78 9 138 12
l109 8 10 -29 c9 -23 8 -32 -10 -53 -112 -140 -150 -221 -150 -325 0 -62 34
-138 81 -183 36 -33 123 -83 145 -83 21 0 18 -7 -25 -58 -53 -63 -72 -112 -78
-203 -4 -57 -1 -89 12 -130 22 -69 68 -142 112 -178 20 -16 43 -41 53 -56 15
-23 16 -31 4 -63 -27 -76 -10 -109 50 -98 l34 6 7 -67 c18 -170 123 -271 293
-282 l84 -6 13 -40 c17 -49 80 -107 133 -123 60 -18 147 -15 249 10 l91 21 35
-36 c44 -47 81 -50 105 -7 l17 30 91 -6 c122 -9 226 14 289 62 25 19 48 34 51
34 10 0 -4 -135 -21 -201 -19 -71 -77 -194 -105 -223 -17 -17 -25 -18 -75 -9
-33 6 -58 6 -61 1 -3 -5 10 -32 30 -60 34 -50 35 -53 18 -71 -46 -51 -312
-233 -496 -340 -76 -44 -242 -156 -271 -184 -17 -15 -60 -55 -96 -88 -119
-108 -247 -282 -310 -420 -39 -87 -63 -86 -104 3 -26 56 -60 80 -185 131 -233
96 -643 106 -1158 31 -164 -24 -255 -25 -426 -3 -107 13 -145 14 -208 5 -99
-14 -118 -24 -118 -62 0 -34 24 -60 73 -76 l32 -11 -68 -42 c-107 -68 -131
-117 -86 -175 32 -41 36 -40 233 69 l69 38 -26 -35 c-52 -68 -28 -138 47 -138
31 0 46 8 90 50 32 30 62 50 76 50 16 0 64 -41 159 -134 75 -73 156 -151 181
-173 84 -74 218 -154 315 -188 28 -9 59 -21 70 -25 50 -21 172 -40 259 -40
189 0 368 64 468 167 70 71 126 143 162 206 16 26 31 47 34 47 4 0 5 -44 4
-98 -4 -107 12 -215 54 -366 14 -48 23 -90 21 -93 -3 -2 -20 5 -38 16 -86 50
-224 63 -398 36 -53 -8 -115 -16 -138 -17 l-42 -3 31 -70 c62 -141 191 -302
276 -343 l33 -16 -112 -108 c-125 -123 -235 -202 -324 -234 -59 -21 -74 -40
-45 -54 18 -9 172 -57 213 -66 21 -5 25 -9 15 -15 -8 -6 1 -8 27 -8 35 1 37 2
15 9 -23 7 -22 8 10 9 19 1 53 3 75 6 22 3 34 3 28 -1 -26 -12 -12 -22 20 -14
17 5 66 14 107 20 41 6 89 15 105 20 17 5 46 11 66 14 19 3 69 17 110 30 l74
26 -50 -5 -50 -5 49 20 c28 11 52 17 55 15 2 -3 -2 -5 -10 -5 -11 -1 -10 -3 2
-10 12 -7 27 -5 50 7 55 26 140 84 146 99 3 8 8 12 13 9 8 -5 53 41 69 72 7
14 8 37 2 66 -5 29 -4 50 2 56 14 14 0 74 -22 98 -29 31 -89 150 -120 238 -31
86 -46 154 -73 315 -12 78 -13 293 0 335 8 30 9 30 113 41 158 18 336 61 434
105 115 52 153 71 187 94 l37 25 0 -83 c-2 -268 111 -501 336 -695 63 -55 174
-122 343 -207 72 -37 132 -70 131 -73 0 -4 -27 -28 -59 -54 -72 -58 -143 -149
-179 -231 -35 -77 -95 -262 -111 -341 -7 -33 -19 -78 -26 -99 -8 -22 -11 -49
-8 -60 6 -18 13 -19 78 -14 39 4 85 9 101 12 25 4 24 3 -5 -6 -38 -11 -70 -35
-35 -26 11 3 40 11 65 17 52 13 145 45 178 62 21 11 31 29 15 27 -20 -3 -27 2
-14 10 10 7 18 5 25 -5 9 -11 28 -1 102 58 131 105 174 146 174 165 0 15 -4
13 -20 -7 -10 -14 -21 -23 -23 -20 -3 3 11 21 30 40 20 19 32 30 29 23 -3 -6
-2 -14 3 -18 6 -3 15 5 22 17 7 13 27 41 44 63 18 22 37 55 44 74 15 45 13 51
-5 21 -11 -18 -13 -19 -9 -5 4 11 9 32 12 48 3 15 9 27 13 27 4 0 25 -16 46
-36 39 -35 78 -57 166 -91 26 -10 42 -20 37 -23 -5 -3 7 -6 27 -7 40 -1 96
-22 89 -33 -8 -14 70 -29 206 -41 138 -12 304 -5 315 12 3 5 21 9 40 9 41 0
74 15 74 34 0 7 -17 24 -37 37 -21 13 -65 64 -100 114 -144 209 -372 366 -597
411 -122 25 -235 6 -293 -48 l-23 -21 -99 46 c-54 26 -101 47 -104 47 -14 0
-167 77 -227 114 -174 107 -278 197 -389 336 -107 133 -147 227 -137 314 7 50
9 54 50 74 24 12 48 22 53 22 6 0 16 6 22 14 10 12 1 19 -48 42 l-61 27 0 59
0 58 83 100 c45 55 92 113 105 130 41 53 149 298 172 390 4 19 20 79 34 133
29 112 73 364 86 500 5 51 14 116 19 145 6 29 11 90 12 135 1 45 4 98 6 117
l5 35 65 -3 c84 -5 106 1 153 44 78 71 162 235 190 370 15 71 24 84 61 84 16
0 38 9 49 20 l21 21 -32 57 -32 57 32 64 c41 83 71 203 71 284 0 131 -55 215
-180 274 -30 14 -56 26 -57 27 -1 1 27 32 63 70 76 79 109 139 125 229 26 140
-29 293 -153 422 l-69 73 16 38 c19 46 7 64 -45 64 -36 0 -38 2 -50 45 -15 52
-59 118 -125 187 -76 78 -168 102 -318 83 l-57 -7 -40 44 c-77 88 -227 119
-377 79z m104 -27 c-3 -3 -12 -4 -19 -1 -8 3 -5 6 6 6 11 1 17 -2 13 -5z
m-127 -34 c-8 -6 -26 -9 -40 -9 -22 0 -21 2 10 13 37 14 54 11 30 -4z m-200
-4 c0 -2 -9 -6 -20 -9 -11 -3 -18 -1 -14 4 5 9 34 13 34 5z m575 -37 c11 -17
-1 -21 -15 -4 -8 9 -8 15 -2 15 6 0 14 -5 17 -11z m-782 -6 c-7 -2 -19 -2 -25
0 -7 3 -2 5 12 5 14 0 19 -2 13 -5z m107 -20 c0 -5 -5 -15 -10 -23 -8 -12 -10
-11 -10 8 0 12 5 22 10 22 6 0 10 -3 10 -7z m-296 -28 c-4 -8 -11 -12 -16 -9
-6 4 -5 10 3 15 19 12 19 11 13 -6z m1194 8 c-16 -2 -40 -2 -55 0 -16 2 -3 4
27 4 30 0 43 -2 28 -4z m-886 -35 c-7 -7 -12 -8 -12 -2 0 14 12 26 19 19 2 -3
-1 -11 -7 -17z m521 -55 c-7 -2 -19 -2 -25 0 -7 3 -2 5 12 5 14 0 19 -2 13 -5z
m-42 -23 c65 -18 65 -24 5 -176 -30 -77 -66 -180 -81 -231 -28 -91 -48 -120
-60 -83 -10 32 -59 60 -103 60 -24 0 -61 -11 -93 -28 -35 -18 -72 -29 -106
-31 -28 -1 -80 -8 -115 -15 l-63 -13 -26 31 c-25 29 -31 31 -92 31 l-64 0 -18
66 c-21 81 -16 121 20 188 61 111 200 151 334 95 59 -24 94 -18 183 35 46 27
99 56 118 64 41 18 110 21 161 7z m-874 -32 c-3 -8 -6 -5 -6 6 -1 11 2 17 5
13 3 -3 4 -12 1 -19z m1203 -30 c0 -5 -9 -4 -20 2 -11 6 -20 12 -20 14 0 2 9
2 20 -1 11 -3 20 -9 20 -15z m-951 8 c-12 -10 -60 -16 -54 -6 3 5 18 10 32 10
15 0 24 -2 22 -4z m104 -3 c-7 -2 -19 -2 -25 0 -7 3 -2 5 12 5 14 0 19 -2 13
-5z m606 -24 c-16 -10 -23 -4 -14 10 3 6 11 8 17 5 6 -4 5 -9 -3 -15z m-484
-12 l30 -4 -31 -2 c-20 0 -37 6 -45 17 -12 15 -12 15 1 5 8 -6 29 -13 45 -16z
m716 3 c44 -23 107 -110 133 -183 61 -175 50 -158 169 -269 134 -125 164 -166
177 -240 10 -53 9 -62 -21 -138 -45 -114 -67 -134 -159 -150 -105 -18 -183
-36 -272 -64 l-77 -24 -6 41 c-14 91 -48 196 -91 283 -49 98 -151 235 -214
285 -34 27 -37 34 -30 62 33 145 99 320 133 354 65 64 179 83 258 43z m-1054
-6 c-3 -3 -12 -4 -19 -1 -8 3 -5 6 6 6 11 1 17 -2 13 -5z m1177 -83 c-5 -5
-33 30 -34 43 0 4 9 -2 19 -15 11 -13 17 -26 15 -28z m-1264 -11 c-6 -11 -12
-20 -14 -20 -2 0 -2 9 1 20 3 11 9 20 15 20 5 0 4 -9 -2 -20z m1535 10 c-3 -5
-11 -10 -16 -10 -6 0 -7 5 -4 10 3 6 11 10 16 10 6 0 7 -4 4 -10z m-1775 -14
c0 -3 -4 -8 -10 -11 -5 -3 -10 -1 -10 4 0 6 5 11 10 11 6 0 10 -2 10 -4z
m1521 -13 c13 -16 12 -17 -3 -4 -17 13 -22 21 -14 21 2 0 10 -8 17 -17z
m-1421 -3 c8 -5 11 -10 5 -10 -5 0 -17 5 -25 10 -8 5 -10 10 -5 10 6 0 17 -5
25 -10z m-190 -20 c0 -5 -10 -15 -22 -21 -23 -12 -23 -12 -4 10 21 23 26 26
26 11z m1637 -42 c-3 -8 -6 -5 -6 6 -1 11 2 17 5 13 3 -3 4 -12 1 -19z m-1362
-28 c3 -5 1 -10 -4 -10 -6 0 -11 5 -11 10 0 6 2 10 4 10 3 0 8 -4 11 -10z m25
-82 c6 -24 16 -55 21 -70 10 -24 6 -33 -43 -91 -33 -41 -61 -66 -74 -66 -28
-1 -74 -38 -74 -60 0 -9 8 -33 18 -52 15 -30 16 -39 5 -55 -22 -34 -52 -172
-59 -270 l-7 -93 -35 -3 c-59 -5 -77 -41 -76 -153 1 -109 6 -106 -120 -94 -83
8 -106 20 -133 73 -20 39 -19 115 1 155 9 17 54 73 100 124 46 50 91 106 100
124 18 35 39 120 60 243 17 97 83 239 123 268 56 40 109 62 145 62 35 0 38 -2
48 -42z m1710 11 c0 -6 -4 -7 -10 -4 -5 3 -10 11 -10 16 0 6 5 7 10 4 6 -3 10
-11 10 -16z m-1910 -3 c0 -3 -4 -8 -10 -11 -5 -3 -10 -1 -10 4 0 6 5 11 10 11
6 0 10 -2 10 -4z m1580 -11 c0 -8 -2 -15 -4 -15 -2 0 -6 7 -10 15 -3 8 -1 15
4 15 6 0 10 -7 10 -15z m-1626 -40 c-9 -14 -18 -25 -20 -25 -7 0 10 35 20 42
17 12 17 9 0 -17z m2010 -1 c3 -8 2 -12 -4 -9 -6 3 -10 10 -10 16 0 14 7 11
14 -7z m-2224 -19 c0 -8 -4 -15 -10 -15 -5 0 -7 7 -4 15 4 8 8 15 10 15 2 0 4
-7 4 -15z m1135 -35 c10 -11 16 -20 13 -20 -3 0 -15 9 -28 20 -13 11 -19 20
-13 20 5 0 18 -9 28 -20z m-562 -7 c-7 -2 -19 -2 -25 0 -7 3 -2 5 12 5 14 0
19 -2 13 -5z m44 1 c-3 -3 -12 -4 -19 -1 -8 3 -5 6 6 6 11 1 17 -2 13 -5z
m390 0 c-3 -3 -12 -4 -19 -1 -8 3 -5 6 6 6 11 1 17 -2 13 -5z m-839 -29 c-6
-14 -15 -25 -19 -25 -4 0 -2 11 4 25 7 14 15 25 19 25 4 0 2 -11 -4 -25z m487
5 c10 -11 14 -20 9 -20 -5 0 -15 9 -22 20 -7 11 -11 20 -9 20 2 0 12 -9 22
-20z m-135 0 c0 -5 -10 -15 -22 -21 -23 -12 -23 -12 -4 10 21 23 26 26 26 11z
m-920 -21 c101 -11 163 -26 248 -60 53 -22 56 -27 46 -66 -8 -28 -22 -30 -292
-48 -262 -17 -626 -19 -917 -4 -116 6 -320 14 -455 18 -158 5 -204 8 -130 9
63 2 149 7 190 12 86 11 441 79 610 116 171 38 475 48 700 23z m1290 11 c0 -5
-4 -10 -8 -10 -5 0 -42 -31 -84 -70 l-76 -70 -11 62 c-6 34 -9 63 -7 65 5 5
137 31 164 32 12 1 22 -3 22 -9z m186 -22 c3 -5 -6 -6 -23 -2 -40 9 -50 22
-13 16 17 -2 33 -8 36 -14z m1223 -8 c11 -24 11 -24 -3 -6 -9 11 -16 24 -16
30 0 12 5 7 19 -24z m-1128 -98 c-6 -2 -11 -13 -12 -25 0 -17 -4 -15 -16 13
-8 19 -24 47 -35 62 -10 16 -15 28 -10 28 6 0 19 -17 30 -37 10 -21 23 -37 28
-35 5 1 8 28 7 60 l-2 57 10 -60 c8 -42 7 -61 0 -63z m62 96 c49 -34 123 -114
173 -188 73 -107 144 -314 144 -417 l0 -45 -41 37 c-50 45 -96 65 -146 64
l-38 -1 45 -12 c68 -19 105 -41 138 -83 57 -73 66 -177 20 -251 l-22 -36 -12
70 c-21 126 -56 169 -139 169 -49 0 -57 -4 -111 -51 -89 -77 -243 -191 -266
-197 -18 -5 -18 -4 -4 16 43 60 97 217 117 336 6 36 14 80 19 96 5 17 11 51
15 78 l6 47 42 0 c79 0 113 52 63 99 -21 20 -24 33 -29 134 -3 62 -9 122 -13
135 -8 28 0 28 39 0z m-1099 -48 l-14 -45 6 40 c6 40 13 59 20 53 2 -2 -3 -24
-12 -48z m336 40 c0 -5 -5 -10 -11 -10 -5 0 -7 5 -4 10 3 6 8 10 11 10 2 0 4
-4 4 -10z m404 -12 c-3 -7 -17 -22 -32 -32 -27 -19 -27 -19 2 12 32 35 38 38
30 20z m208 -22 c9 -11 26 -48 38 -80 l20 -59 -26 -151 c-61 -364 -97 -492
-165 -586 -53 -72 -130 -104 -143 -57 -16 54 -25 247 -16 323 19 156 23 214
13 214 -5 0 -19 -31 -32 -70 -12 -38 -25 -70 -28 -70 -3 0 -3 34 -1 75 3 41 4
75 2 75 -2 0 -14 -19 -27 -42 -41 -71 -52 -139 -51 -308 l2 -155 -21 45 c-14
32 -21 75 -25 151 -8 187 28 304 156 499 72 110 133 174 196 205 55 27 79 25
108 -9z m-522 20 c0 -2 -13 -6 -30 -8 -16 -3 -30 -1 -30 4 0 4 14 8 30 8 17 0
30 -2 30 -4z m379 1 c-2 -1 -15 -11 -29 -22 l-25 -20 19 23 c11 12 24 22 29
22 6 0 8 -1 6 -3z m1091 -7 c8 -5 12 -11 10 -14 -3 -2 -14 2 -24 10 -22 15
-10 19 14 4z m-1590 -30 c-24 -15 -31 -11 -18 10 9 13 16 16 23 9 7 -7 5 -13
-5 -19z m252 -32 c2 -27 0 -48 -4 -48 -3 0 -8 25 -10 55 -1 30 0 51 4 47 3 -4
8 -28 10 -54z m-77 22 c10 -11 20 -42 23 -72 7 -75 -19 -376 -47 -543 -6 -36
-14 -45 -71 -82 -36 -24 -69 -43 -74 -43 -13 0 0 241 19 333 8 43 15 83 15 88
0 19 -18 8 -24 -14 -8 -32 -47 -119 -51 -115 -2 2 0 37 6 77 5 41 7 76 5 79
-3 2 -16 -18 -30 -45 -39 -77 -59 -208 -54 -343 4 -100 3 -111 -8 -85 -30 70
-47 215 -41 339 10 180 41 268 124 347 100 96 169 122 208 79z m195 -4 c0 -2
-8 -10 -17 -17 -16 -13 -17 -12 -4 4 13 16 21 21 21 13z m-385 -26 c-10 -11
-21 -17 -24 -14 -3 3 3 12 13 20 28 20 32 17 11 -6z m-471 -15 c3 -9 0 -15 -9
-15 -9 0 -12 6 -9 15 4 8 7 15 9 15 2 0 5 -7 9 -15z m1227 -18 c-10 -9 -11 -8
-5 6 3 10 9 15 12 12 3 -3 0 -11 -7 -18z m938 -21 c-3 -3 -11 5 -18 17 -13 21
-12 21 5 5 10 -10 16 -20 13 -22z m-1739 9 c-7 -9 -15 -13 -19 -10 -3 3 1 10
9 15 21 14 24 12 10 -5z m432 -7 c-7 -7 -12 -8 -12 -2 0 14 12 26 19 19 2 -3
-1 -11 -7 -17z m1515 -20 c-3 -7 -5 -2 -5 12 0 14 2 19 5 13 2 -7 2 -19 0 -25z
m-2427 2 c0 -5 -8 -10 -17 -10 -15 0 -16 2 -3 10 19 12 20 12 20 0z m1283 -16
c-7 -3 -9 -12 -6 -20 3 -8 1 -14 -4 -14 -5 0 -9 9 -10 20 -1 13 4 20 15 19 10
0 12 -3 5 -5z m-1086 -56 c-3 -8 -6 -5 -6 6 -1 11 2 17 5 13 3 -3 4 -12 1 -19z
m643 -18 c-16 -30 -22 -19 -7 13 6 14 13 22 15 17 2 -5 -2 -19 -8 -30z m455 0
c3 -6 -1 -7 -9 -4 -18 7 -21 14 -7 14 6 0 13 -4 16 -10z m-1108 -22 c-3 -8 -6
-5 -6 6 -1 11 2 17 5 13 3 -3 4 -12 1 -19z m580 -10 c-3 -7 -5 -2 -5 12 0 14
2 19 5 13 2 -7 2 -19 0 -25z m563 -9 c0 -4 -7 -6 -15 -3 -8 4 -15 10 -15 15 0
4 7 6 15 3 8 -4 15 -10 15 -15z m-530 -19 c-6 -11 -13 -20 -16 -20 -2 0 0 9 6
20 6 11 13 20 16 20 2 0 0 -9 -6 -20z m499 -26 c2 -2 -10 -4 -27 -4 -18 0 -32
5 -32 10 0 9 47 4 59 -6z m-531 -38 c-16 -31 -18 -32 -16 -4 1 13 8 25 15 25
9 0 9 -5 1 -21z m-902 -48 c-12 -40 -17 -50 -22 -46 -5 6 13 58 20 58 3 0 4
-6 2 -12z m174 -72 c0 -3 -4 -8 -10 -11 -5 -3 -10 -1 -10 4 0 6 5 11 10 11 6
0 10 -2 10 -4z m2188 -3 c-10 -2 -26 -2 -35 0 -10 3 -2 5 17 5 19 0 27 -2 18
-5z m-2228 -42 c0 -6 -4 -13 -10 -16 -5 -3 -10 1 -10 9 0 9 5 16 10 16 6 0 10
-4 10 -9z m2180 -21 c82 -87 72 -228 -30 -445 -60 -126 -77 -190 -84 -310 -11
-171 -49 -277 -119 -329 -21 -15 -43 -21 -83 -20 -46 0 -62 6 -111 40 -50 34
-66 55 -137 177 -45 75 -107 170 -139 210 l-58 72 60 55 c32 30 67 69 77 85
11 17 42 62 69 100 l50 70 0 108 0 109 35 18 c49 24 223 69 311 79 124 14 128
14 159 -19z m50 16 c0 -11 -19 -15 -25 -6 -3 5 1 10 9 10 9 0 16 -2 16 -4z
m60 -16 c8 -5 11 -10 5 -10 -5 0 -17 5 -25 10 -8 5 -10 10 -5 10 6 0 17 -5 25
-10z m-50 -20 c0 -5 -2 -10 -4 -10 -3 0 -8 5 -11 10 -3 6 -1 10 4 10 6 0 11
-4 11 -10z m-1886 -32 c18 -57 17 -68 -7 -68 -28 0 -65 -36 -77 -76 -7 -24 -8
-18 -9 34 -1 61 10 99 33 114 18 12 56 9 60 -4z m-407 -30 c-3 -7 -5 -2 -5 12
0 14 2 19 5 13 2 -7 2 -19 0 -25z m2310 10 c-3 -8 -6 -5 -6 6 -1 11 2 17 5 13
3 -3 4 -12 1 -19z m10 -65 c-3 -10 -5 -2 -5 17 0 19 2 27 5 18 2 -10 2 -26 0
-35z m183 3 c0 -5 -7 -3 -15 4 -8 7 -15 20 -15 28 0 13 3 12 15 -4 8 -10 15
-23 15 -28z m-2086 -22 c12 -30 6 -178 -8 -196 -18 -25 -24 -23 -39 15 -24 57
-29 122 -13 161 16 38 49 49 60 20z m1159 -13 c19 -18 19 -20 -21 -87 -22 -38
-52 -80 -66 -93 l-26 -24 -35 39 c-63 71 -61 113 10 161 41 29 56 34 84 29 19
-3 43 -14 54 -25z m-1561 -43 c6 -14 5 -16 -7 -12 -8 4 -15 18 -14 33 0 15 3
20 6 11 3 -8 10 -23 15 -32z m2305 5 c-3 -10 -5 -4 -5 12 0 17 2 24 5 18 2 -7
2 -21 0 -30z m-2346 10 c13 -16 12 -17 -3 -4 -10 7 -18 15 -18 17 0 8 8 3 21
-13z m779 -11 c0 -36 27 -130 46 -160 12 -18 12 -23 2 -26 -129 -34 -481 -114
-546 -123 -26 -4 -31 -2 -26 10 3 9 13 18 21 22 9 3 59 34 112 69 53 35 146
94 206 131 61 37 121 76 135 86 36 26 50 23 50 -9z m1767 6 c-3 -8 -6 -5 -6 6
-1 11 2 17 5 13 3 -3 4 -12 1 -19z m-897 -63 c15 -52 9 -115 -14 -150 -22 -34
-74 -34 -105 -1 l-22 23 50 66 c27 36 52 75 56 86 10 33 21 25 35 -24z m690 5
c0 -16 -4 -30 -8 -30 -5 0 -7 14 -4 30 2 17 6 30 8 30 2 0 4 -13 4 -30z
m-1856 -69 c-19 -20 -22 -13 -16 39 l5 45 12 -35 c10 -29 10 -38 -1 -49z m897
47 c9 -7 33 -35 55 -62 l39 -49 -35 -29 c-41 -34 -182 -106 -225 -114 -27 -5
-32 -2 -43 28 -24 68 -10 114 47 146 20 11 54 36 76 56 43 38 62 43 86 24z
m-1028 -69 c10 -28 17 -52 15 -53 -76 -46 -148 -101 -148 -111 0 -33 37 -37
140 -14 l100 21 69 -65 c74 -69 168 -130 220 -142 42 -9 45 -18 23 -62 -11
-21 -31 -78 -46 -128 -15 -49 -33 -108 -41 -130 -28 -88 -34 -112 -41 -152 -7
-48 -23 -54 -63 -27 -25 18 -74 117 -86 174 -9 46 -65 170 -77 170 -5 0 -7 3
-4 8 2 4 -36 48 -86 97 -61 61 -99 108 -116 145 -45 95 -40 246 9 299 15 16
32 21 67 21 l47 0 18 -51z m-168 31 c-3 -5 -15 -10 -26 -10 -11 0 -17 5 -14
10 3 6 15 10 26 10 11 0 17 -4 14 -10z m-55 -20 c0 -5 -5 -10 -11 -10 -5 0 -7
5 -4 10 3 6 8 10 11 10 2 0 4 -4 4 -10z m2152 -82 c-8 -8 -9 -4 -5 13 4 13 8
18 11 10 2 -7 -1 -18 -6 -23z m-2222 -8 c-6 -11 -13 -20 -16 -20 -2 0 0 9 6
20 6 11 13 20 16 20 2 0 0 -9 -6 -20z m841 -5 c51 -29 81 -31 143 -10 62 21
88 8 105 -52 6 -26 8 -50 4 -54 -24 -24 -304 -42 -317 -20 -3 4 -8 34 -12 65
-6 46 -4 60 11 76 10 11 19 20 21 20 1 0 22 -11 45 -25z m626 -7 c18 -18 33
-40 33 -50 0 -24 -163 -153 -216 -172 -36 -12 -45 -12 -73 2 -26 12 -71 73
-71 96 0 2 17 10 38 17 55 18 161 73 207 107 22 17 42 31 45 31 2 1 19 -13 37
-31z m-738 -2 c7 -8 15 -40 18 -70 6 -54 5 -56 -18 -55 -13 0 -58 12 -99 27
-59 21 -76 32 -78 49 -3 18 4 24 35 32 37 10 111 28 124 30 4 1 12 -5 18 -13z
m1731 -10 c0 -3 -4 -8 -10 -11 -5 -3 -10 -1 -10 4 0 6 5 11 10 11 6 0 10 -2
10 -4z m-255 -27 c-10 -15 -25 -10 -19 6 4 8 10 12 15 9 5 -3 7 -10 4 -15z
m-2118 -21 c-3 -7 -5 -2 -5 12 0 14 2 19 5 13 2 -7 2 -19 0 -25z m418 -4 c27
-18 36 -74 12 -74 -16 0 -79 75 -70 84 11 10 33 7 58 -10z m1656 -45 c-5 -13
-10 -19 -10 -12 -1 15 10 45 15 40 3 -2 0 -15 -5 -28z m253 6 c-4 -8 -8 -15
-10 -15 -2 0 -4 7 -4 15 0 8 4 15 10 15 5 0 7 -7 4 -15z m-1825 -5 c10 -5 51
-18 92 -28 72 -19 74 -20 81 -56 10 -49 -5 -79 -35 -71 -41 12 -122 52 -145
71 -13 11 -25 35 -29 57 -6 39 2 46 36 27z m548 -64 c22 -45 21 -81 -3 -90
-38 -14 -187 -28 -239 -21 -71 8 -115 45 -115 94 l0 31 108 1 c88 1 142 8 223
28 3 0 15 -19 26 -43z m-1027 24 c0 -5 -2 -10 -4 -10 -3 0 -8 5 -11 10 -3 6
-1 10 4 10 6 0 11 -4 11 -10z m1394 -145 c30 -38 65 -92 79 -120 14 -27 42
-77 62 -110 35 -58 36 -63 30 -125 -18 -178 -118 -240 -312 -194 -107 26 -251
24 -353 -5 -102 -28 -220 -32 -267 -8 -43 23 -81 71 -89 113 -14 74 16 230 72
375 l26 66 171 -1 c183 -1 159 -5 382 61 11 4 40 19 65 34 l45 28 18 -22 c10
-12 42 -53 71 -92z m926 51 c0 -5 -7 -3 -15 4 -8 7 -15 20 -15 28 0 13 3 12
15 -4 8 -10 15 -23 15 -28z m-2196 -83 c44 -46 76 -83 72 -83 -8 0 -71 62
-136 134 -63 70 -17 33 64 -51z m1883 40 c-3 -10 -5 -4 -5 12 0 17 2 24 5 18
2 -7 2 -21 0 -30z m223 -35 c0 -5 -4 -8 -10 -8 -5 0 -10 10 -10 23 0 18 2 19
10 7 5 -8 10 -18 10 -22z m-223 -35 c-3 -10 -5 -2 -5 17 0 19 2 27 5 18 2 -10
2 -26 0 -35z m210 -5 c-3 -8 -6 -5 -6 6 -1 11 2 17 5 13 3 -3 4 -12 1 -19z
m-214 -68 c-3 -12 -8 -19 -11 -16 -5 6 5 36 12 36 2 0 2 -9 -1 -20z m194 -22
c-3 -8 -6 -5 -6 6 -1 11 2 17 5 13 3 -3 4 -12 1 -19z m-1927 -71 c0 -16 -18 3
-23 25 -6 22 -5 22 8 4 8 -11 15 -24 15 -29z m-223 -37 c0 -16 -6 -31 -14 -34
-10 -4 -12 1 -7 22 12 50 21 55 21 12z m128 -20 c-3 -5 -12 -10 -18 -10 -7 0
-6 4 3 10 19 12 23 12 15 0z m-52 -25 c-3 -9 -8 -14 -10 -11 -3 3 -2 9 2 15 9
16 15 13 8 -4z m174 -7 c-3 -8 -6 -5 -6 6 -1 11 2 17 5 13 3 -3 4 -12 1 -19z
m1605 -48 c-17 -16 -39 -30 -49 -29 -16 0 -15 1 3 9 12 4 32 21 45 38 13 16
25 25 27 21 2 -5 -10 -22 -26 -39z m218 30 c0 -5 -2 -10 -4 -10 -3 0 -8 5 -11
10 -3 6 -1 10 4 10 6 0 11 -4 11 -10z m-1807 -20 c3 -11 1 -18 -4 -14 -5 3 -9
12 -9 20 0 20 7 17 13 -6z m1291 -53 c4 -19 3 -26 -4 -22 -5 3 -10 1 -10 -6 0
-7 -3 -10 -6 -6 -3 3 -3 20 1 37 8 36 10 36 19 -3z m121 13 c3 -5 2 -10 -4
-10 -5 0 -13 5 -16 10 -3 6 -2 10 4 10 5 0 13 -4 16 -10z m81 -51 c8 -14 -10
-11 -32 6 -18 13 -18 14 4 8 12 -3 25 -9 28 -14z m-1291 1 c3 -5 1 -10 -4 -10
-6 0 -11 5 -11 10 0 6 2 10 4 10 3 0 8 -4 11 -10z m-140 -30 c10 -11 16 -20
13 -20 -3 0 -13 9 -23 20 -10 11 -16 20 -13 20 3 0 13 -9 23 -20z m1193 -15
c-6 -14 -15 -25 -20 -25 -5 0 -1 11 8 25 9 14 18 25 20 25 2 0 -2 -11 -8 -25z
m313 7 c-7 -2 -18 1 -23 6 -8 8 -4 9 13 5 13 -4 18 -8 10 -11z m82 1 c-7 -2
-19 -2 -25 0 -7 3 -2 5 12 5 14 0 19 -2 13 -5z m-1506 -75 c-3 -7 -5 -2 -5 12
0 14 2 19 5 13 2 -7 2 -19 0 -25z m103 22 c0 -5 -2 -10 -4 -10 -3 0 -8 5 -11
10 -3 6 -1 10 4 10 6 0 11 -4 11 -10z m543 -27 c-18 -2 -48 -2 -65 0 -18 2 -4
4 32 4 36 0 50 -2 33 -4z m-868 -13 c3 -6 -1 -7 -9 -4 -18 7 -21 14 -7 14 6 0
13 -4 16 -10z m1358 -5 c-3 -9 -8 -14 -10 -11 -3 3 -2 9 2 15 9 16 15 13 8 -4z
m-649 -3 c3 -5 -1 -9 -9 -9 -8 0 -15 4 -15 9 0 4 4 8 9 8 6 0 12 -4 15 -8z
m511 -2 c-11 -5 -27 -9 -35 -9 -9 0 -8 4 5 9 11 5 27 9 35 9 9 0 8 -4 -5 -9z
m-548 -6 c-3 -3 -12 -4 -19 -1 -8 3 -5 6 6 6 11 1 17 -2 13 -5z m663 -44 c-6
-11 -13 -20 -16 -20 -2 0 0 9 6 20 6 11 13 20 16 20 2 0 0 -9 -6 -20z m-1073
-42 c-3 -8 -6 -5 -6 6 -1 11 2 17 5 13 3 -3 4 -12 1 -19z m1053 8 c0 -2 -8
-10 -17 -17 -16 -13 -17 -12 -4 4 13 16 21 21 21 13z m-40 -40 c0 -2 -8 -10
-17 -17 -16 -13 -17 -12 -4 4 13 16 21 21 21 13z m-413 -38 c-3 -7 -5 -2 -5
12 0 14 2 19 5 13 2 -7 2 -19 0 -25z m31 1 c-3 -8 -7 -3 -11 10 -4 17 -3 21 5
13 5 -5 8 -16 6 -23z m-562 -27 c-4 -3 -14 2 -24 12 -16 18 -16 18 6 6 13 -6
21 -14 18 -18z m874 14 c0 -2 -7 -6 -15 -10 -8 -3 -15 -1 -15 4 0 6 7 10 15
10 8 0 15 -2 15 -4z m-795 -46 c8 -13 -5 -13 -25 0 -13 8 -13 10 2 10 9 0 20
-4 23 -10z m366 -12 c11 -21 11 -22 -4 -9 -10 7 -17 17 -17 22 0 15 9 10 21
-13z m50 -11 c-8 -8 -11 -7 -11 4 0 20 13 34 18 19 3 -7 -1 -17 -7 -23z m366
-388 c24 -9 22 -30 -7 -69 -15 -20 -20 -22 -34 -11 -9 7 -16 18 -16 23 0 5 -9
21 -20 35 -11 14 -20 29 -20 34 0 8 62 1 97 -12z m-253 -553 c-19 -47 -44
-124 -56 -173 -12 -48 -22 -94 -24 -100 -5 -20 -154 -126 -246 -175 -92 -50
-314 -129 -425 -153 -29 -6 -32 -4 -26 12 14 39 73 121 132 183 34 36 76 80
92 99 67 74 261 224 374 288 106 61 189 103 202 103 7 0 -2 -33 -23 -84z
m-1639 -396 c183 -17 314 -53 421 -115 56 -33 58 -58 7 -83 -59 -30 -126 -40
-289 -46 -148 -5 -783 23 -1004 44 -58 6 -130 7 -160 4 -77 -9 -188 -66 -265
-136 -90 -82 -100 -46 -14 49 54 60 112 103 153 114 36 10 43 31 8 23 -213
-44 -315 -82 -422 -154 -52 -34 -60 -36 -60 -14 0 57 266 201 382 207 17 1 33
7 35 13 3 9 -45 14 -167 19 -93 4 -170 11 -170 15 0 4 21 10 48 14 26 3 60 9
76 12 16 2 89 -2 162 -11 176 -20 295 -19 456 4 73 11 187 24 253 31 66 6 127
13 135 15 37 7 316 4 415 -5z m1800 -187 c19 -9 35 -20 35 -23 0 -4 -18 -14
-40 -23 l-40 -15 0 39 c0 21 2 39 5 39 2 0 20 -8 40 -17z m-1333 -831 c7 -7
19 -12 28 -12 9 0 37 -14 62 -30 38 -25 49 -40 68 -93 13 -34 25 -69 28 -76 4
-10 -5 -7 -26 8 -65 46 -183 92 -302 117 -65 14 -154 36 -197 48 -84 26 -85
24 27 45 75 13 296 9 312 -7z m-217 -91 c177 -39 217 -51 291 -88 90 -43 137
-85 158 -140 l15 -42 -37 22 c-31 18 -52 22 -127 22 -79 0 -97 -4 -149 -29
l-59 -29 -44 22 c-57 28 -136 102 -182 171 -21 31 -47 69 -58 85 -12 17 -24
40 -28 52 l-6 22 63 -23 c35 -12 108 -33 163 -45z m2812 -51 c48 -12 92 -25
97 -29 6 -5 36 -19 66 -32 111 -45 330 -231 374 -316 15 -31 15 -32 -1 -26
-10 4 -58 33 -108 66 -110 72 -321 177 -430 213 -103 34 -242 44 -299 20 -21
-9 -39 -16 -40 -16 -2 0 -1 13 2 29 5 37 52 83 100 97 58 18 143 16 239 -6z
m-66 -134 c120 -30 308 -115 441 -199 37 -23 105 -66 151 -94 142 -89 144 -87
-88 -79 -297 10 -400 29 -551 101 -115 55 -170 108 -203 193 -13 34 -21 65
-18 68 9 10 107 32 143 33 17 1 74 -10 125 -23z m-406 -7 l40 -11 -50 -23
c-73 -32 -190 -161 -318 -351 -106 -158 -257 -357 -264 -350 -7 7 57 254 89
344 50 143 84 199 184 299 75 74 100 93 136 102 48 11 122 7 183 -10z m110
-65 c8 -9 23 -30 31 -47 19 -35 10 -76 -32 -159 -54 -106 -305 -330 -444 -396
-48 -22 -212 -72 -219 -66 -2 2 19 29 46 61 28 32 111 148 186 258 207 304
267 365 363 365 35 0 58 -5 69 -16z m-2032 -24 c15 -7 27 -16 27 -19 0 -3 -38
-13 -85 -22 -104 -21 -187 -60 -291 -137 -44 -32 -112 -78 -152 -102 -72 -43
-192 -102 -192 -96 0 2 23 18 50 36 28 18 107 86 178 152 144 136 181 163 255
189 59 21 163 20 210 -1z m146 -60 c63 -12 111 -43 111 -72 0 -27 -74 -97
-149 -142 -61 -37 -239 -101 -341 -123 -111 -23 -303 -53 -344 -53 -58 0 -169
21 -159 30 4 5 31 16 58 25 70 23 214 106 321 186 186 137 333 181 503 149z
m137 -128 c-17 -16 -18 -16 -5 5 7 12 15 20 18 17 3 -2 -3 -12 -13 -22z m1761
-74 c-28 -39 -44 -58 -50 -58 -4 0 8 20 26 44 32 44 53 56 24 14z m-1864 -32
c-15 -13 -30 -23 -32 -20 -5 4 41 43 52 44 4 0 -5 -11 -20 -24z m2420 -23 c-7
-2 -19 -2 -25 0 -7 3 -2 5 12 5 14 0 19 -2 13 -5z m-2478 -13 c-3 -5 -12 -10
-18 -10 -7 0 -6 4 3 10 19 12 23 12 15 0z m2651 0 c-22 -4 -51 -4 -65 0 -19 6
-7 8 39 8 58 0 61 -1 26 -8z m142 3 c-10 -2 -26 -2 -35 0 -10 3 -2 5 17 5 19
0 27 -2 18 -5z m-2815 -30 c-7 -2 -19 -2 -25 0 -7 3 -2 5 12 5 14 0 19 -2 13
-5z m-228 -77 c-17 -12 -45 -12 -45 1 0 3 7 3 15 0 8 -4 17 -2 20 3 4 6 11 10
18 10 6 0 2 -6 -8 -14z m-70 -16 c-27 -12 -43 -12 -25 0 8 5 22 9 30 9 10 0 8
-3 -5 -9z m-158 -26 c-3 -3 -12 -4 -19 -1 -8 3 -5 6 6 6 11 1 17 -2 13 -5z
m2202 3 c-2 -1 -13 -9 -24 -17 -19 -14 -19 -14 -6 3 7 9 18 17 24 17 6 0 8 -1
6 -3z m-2246 -14 c-7 -2 -21 -2 -30 0 -10 3 -4 5 12 5 17 0 24 -2 18 -5z
m2147 -58 c0 -2 -10 -9 -22 -15 -22 -11 -22 -10 -4 4 21 17 26 19 26 11z
m-130 -80 c0 -7 -43 -23 -78 -30 -19 -4 40 23 76 34 1 1 2 -1 2 -4z"/>
<path d="M1370 5609 c-80 -4 -203 -14 -275 -22 -71 -9 -158 -19 -192 -22 -34
-4 -70 -13 -80 -20 -17 -13 -17 -14 0 -32 16 -16 35 -18 190 -15 257 3 621 14
627 17 3 2 61 6 130 10 98 5 128 10 137 22 18 23 -7 48 -62 62 -48 12 -245 12
-475 0z"/>
<path d="M1185 2143 c-146 -11 -350 -44 -364 -58 -26 -26 13 -54 90 -65 118
-16 422 -39 587 -44 175 -6 455 8 497 24 62 24 -5 81 -123 105 -42 8 -97 20
-122 26 -45 11 -469 20 -565 12z"/>
<path d="M4740 496 c0 -2 7 -6 15 -10 8 -3 15 -1 15 4 0 6 -7 10 -15 10 -8 0
-15 -2 -15 -4z"/>
<path d="M1645 280 c3 -5 8 -10 11 -10 2 0 4 5 4 10 0 6 -5 10 -11 10 -5 0 -7
-4 -4 -10z"/>
</g>
</svg>
