<?xml version="1.0" standalone="no"?>
<!DOCTYPE svg PUBLIC "-//W3C//DTD SVG 20010904//EN"
 "http://www.w3.org/TR/2001/REC-SVG-20010904/DTD/svg10.dtd">
<svg version="1.0" xmlns="http://www.w3.org/2000/svg"
 width="232.000000pt" height="302.000000pt" viewBox="0 0 232.000000 302.000000"
 preserveAspectRatio="xMidYMid meet">

<g transform="translate(0.000000,302.000000) scale(0.100000,-0.100000)"
fill="#000000" stroke="none">
<path d="M1180 2990 c0 -5 -13 -10 -30 -10 -16 0 -30 -4 -30 -10 0 -5 -7 -10
-16 -10 -8 0 -33 -18 -54 -40 -21 -22 -43 -40 -49 -40 -16 0 -301 -287 -301
-303 0 -7 -9 -19 -20 -27 -11 -8 -20 -21 -20 -28 0 -8 -13 -27 -30 -42 -16
-15 -30 -35 -30 -44 0 -9 -4 -16 -10 -16 -5 0 -10 -9 -10 -20 0 -11 -4 -20
-10 -20 -5 0 -10 -9 -10 -20 0 -11 -4 -20 -10 -20 -5 0 -10 -13 -10 -30 0 -16
-4 -30 -10 -30 -5 0 -10 -18 -10 -40 0 -22 5 -40 10 -40 6 0 10 -9 10 -20 0
-11 5 -20 10 -20 6 0 10 -8 10 -18 0 -10 9 -24 20 -32 11 -8 20 -21 20 -28 0
-8 14 -27 30 -42 16 -15 30 -34 30 -42 0 -7 9 -20 20 -28 11 -8 20 -21 20 -28
0 -8 14 -27 30 -42 17 -15 30 -33 30 -40 0 -7 14 -25 30 -40 17 -15 30 -35 30
-44 0 -9 8 -16 20 -16 11 0 20 -4 20 -10 0 -6 27 -10 60 -10 33 0 60 4 60 10
0 6 5 10 10 10 6 0 10 -9 10 -20 0 -11 5 -20 10 -20 6 0 10 -9 10 -20 0 -11 5
-20 10 -20 6 0 10 -18 10 -40 0 -22 5 -40 10 -40 6 0 10 -22 10 -50 0 -27 5
-50 10 -50 6 0 10 -22 10 -50 0 -27 5 -50 10 -50 6 0 10 -18 10 -40 l0 -40
-60 0 c-33 0 -60 4 -60 10 0 6 -30 10 -70 10 -40 0 -70 4 -70 10 0 6 -32 10
-76 10 -83 0 -104 -11 -104 -54 0 -14 -4 -26 -10 -26 -5 0 -10 -22 -10 -50 0
-27 -4 -50 -10 -50 -6 0 -10 -40 -10 -100 0 -60 4 -100 10 -100 6 0 10 -27 10
-60 0 -33 4 -60 10 -60 6 0 10 -18 10 -40 0 -22 5 -40 10 -40 6 0 10 -9 10
-20 0 -11 5 -20 10 -20 6 0 10 -9 10 -20 0 -11 5 -20 10 -20 6 0 10 -7 10 -16
0 -8 18 -33 40 -54 42 -40 55 -90 24 -90 -19 0 -44 -24 -44 -42 0 -8 -9 -20
-20 -28 -14 -10 -20 -26 -20 -52 0 -21 -4 -38 -10 -38 -5 0 -10 -18 -10 -40 0
-22 5 -40 10 -40 6 0 10 -9 10 -20 0 -11 5 -20 10 -20 6 0 10 -9 10 -20 0 -13
7 -20 18 -20 10 0 24 -9 32 -20 12 -16 26 -20 71 -20 37 0 59 4 61 12 3 7 31
-14 66 -50 33 -34 68 -62 76 -62 9 0 16 -4 16 -10 0 -5 18 -10 40 -10 22 0 40
-4 40 -10 0 -5 14 -10 30 -10 17 0 30 5 30 10 0 6 37 10 90 10 53 0 90 4 90
10 0 6 9 10 20 10 11 0 20 5 20 10 0 6 18 10 40 10 22 0 40 5 40 10 0 6 7 10
16 10 8 0 37 23 64 50 51 53 80 64 80 30 0 -11 5 -20 10 -20 6 0 10 -7 10 -16
0 -20 24 -44 44 -44 9 0 16 -4 16 -10 0 -6 33 -10 80 -10 47 0 80 4 80 10 0 6
7 10 15 10 20 0 85 65 85 85 0 8 5 15 10 15 6 0 10 9 10 20 0 11 5 20 10 20 6
0 10 14 10 30 0 17 5 30 10 30 6 0 10 23 10 50 0 28 5 50 10 50 6 0 10 8 10
18 0 10 9 24 20 32 11 8 20 21 20 30 0 9 9 22 20 30 11 8 20 22 20 32 0 10 5
18 10 18 6 0 10 18 10 40 0 22 5 40 10 40 6 0 10 18 10 40 0 22 5 40 10 40 6
0 10 9 10 20 0 11 -4 20 -10 20 -5 0 -10 14 -10 30 0 17 -4 30 -10 30 -5 0
-10 7 -10 15 0 18 -44 65 -60 65 -27 0 -40 30 -40 94 0 37 -4 66 -10 66 -5 0
-10 9 -10 20 0 22 -15 27 -24 8 -5 -10 -7 -10 -12 0 -3 6 -19 12 -35 12 -16 0
-29 5 -29 10 0 6 -13 10 -30 10 -16 0 -30 5 -30 10 0 6 -18 10 -40 10 -22 0
-40 5 -40 10 0 6 -13 10 -30 10 -16 0 -30 5 -30 10 0 6 -18 10 -40 10 -22 0
-40 5 -40 10 0 6 -22 10 -50 10 -27 0 -50 5 -50 10 0 6 -13 10 -30 10 -28 0
-30 2 -30 39 0 22 -5 42 -12 44 -10 4 -9 8 2 17 11 9 12 13 3 17 -9 3 -13 36
-13 114 0 66 -4 109 -10 109 -5 0 -10 23 -10 50 0 28 -4 50 -10 50 -5 0 -10
18 -10 40 0 22 -4 40 -10 40 -5 0 -10 14 -10 30 0 17 -4 30 -10 30 -5 0 -10
13 -10 29 0 16 -5 31 -12 33 -16 6 35 58 57 58 8 0 15 5 15 10 0 6 18 10 40
10 22 0 40 5 40 10 0 6 27 10 60 10 33 0 60 4 60 10 0 6 9 10 20 10 17 0 20 7
20 40 0 22 -4 40 -10 40 -5 0 -10 14 -10 30 0 17 -4 30 -10 30 -5 0 -10 18
-10 40 0 22 -4 40 -10 40 -5 0 -10 14 -10 30 0 17 -4 30 -10 30 -5 0 -10 14
-10 30 0 17 -4 30 -10 30 -5 0 -10 14 -10 30 0 17 -4 30 -10 30 -5 0 -10 14
-10 30 0 17 -4 30 -10 30 -5 0 -10 14 -10 30 0 17 -4 30 -10 30 -5 0 -10 14
-10 30 0 17 -4 30 -10 30 -5 0 -10 9 -10 20 0 11 -4 20 -10 20 -5 0 -10 9 -10
20 0 11 -4 20 -10 20 -5 0 -10 9 -10 20 0 11 -4 20 -10 20 -5 0 -10 8 -10 18
0 10 -9 24 -20 32 -11 8 -20 21 -20 28 0 8 -13 27 -30 42 -16 15 -30 33 -30
40 0 7 -13 25 -30 40 -16 15 -30 33 -30 39 0 7 -11 23 -25 36 -18 19 -35 25
-70 25 -25 0 -45 -4 -45 -10z m105 -85 c30 -30 55 -60 55 -66 0 -6 14 -24 30
-39 17 -15 30 -34 30 -42 0 -7 9 -20 20 -28 11 -8 20 -22 20 -32 0 -10 5 -18
10 -18 6 0 10 -9 10 -20 0 -11 5 -20 10 -20 6 0 10 -13 10 -30 0 -16 5 -30 10
-30 6 0 10 -9 10 -20 0 -11 5 -20 10 -20 6 0 10 -13 10 -30 0 -16 5 -30 10
-30 6 0 10 -9 10 -20 0 -11 5 -20 10 -20 6 0 10 -18 10 -40 0 -22 5 -40 10
-40 6 0 10 -13 10 -30 0 -16 5 -30 10 -30 6 0 10 -9 10 -20 0 -11 5 -20 10
-20 6 0 10 -22 10 -50 0 -27 5 -50 10 -50 6 0 10 -22 10 -50 0 -43 -3 -50 -20
-50 -11 0 -20 5 -20 10 0 6 -32 10 -76 10 -83 0 -104 11 -104 54 0 14 -4 26
-10 26 -5 0 -10 18 -10 40 0 22 -4 40 -10 40 -5 0 -10 14 -10 30 0 17 -4 30
-10 30 -5 0 -10 9 -10 20 0 11 -4 20 -10 20 -5 0 -10 9 -10 20 0 11 -4 20 -10
20 -5 0 -10 14 -10 30 0 17 -4 30 -10 30 -5 0 -10 8 -10 18 0 10 -9 24 -20 32
-11 8 -20 22 -20 32 0 10 -4 18 -10 18 -5 0 -10 9 -10 20 0 11 -4 20 -10 20
-5 0 -10 8 -10 18 0 10 -9 24 -20 32 -11 8 -20 21 -20 30 0 9 -9 22 -20 30
-11 8 -20 21 -20 30 0 9 -9 22 -20 30 -11 8 -20 21 -20 28 0 8 -14 27 -31 43
l-30 28 25 26 c14 14 32 25 41 25 8 0 15 5 15 10 0 6 9 10 20 10 11 0 20 5 20
10 0 6 9 10 20 10 11 0 20 5 20 10 0 24 34 6 85 -45z m295 -875 c0 -5 -13 -10
-30 -10 -16 0 -30 5 -30 10 0 6 14 10 30 10 17 0 30 -4 30 -10z m-254 -64 c8
-8 14 -26 14 -40 0 -14 5 -26 10 -26 6 0 10 -9 10 -20 0 -11 5 -20 10 -20 6 0
10 -13 10 -30 0 -16 5 -30 10 -30 6 0 10 -9 10 -20 0 -19 -7 -20 -90 -20 -53
0 -90 -4 -90 -10 0 -5 -13 -10 -30 -10 -16 0 -30 -4 -30 -10 0 -5 -9 -10 -20
-10 -11 0 -20 -4 -20 -10 0 -5 -13 -10 -30 -10 -23 0 -30 4 -30 20 0 11 -4 20
-10 20 -5 0 -10 9 -10 20 0 11 -4 20 -10 20 -5 0 -10 8 -10 18 0 10 -9 24 -20
32 -11 8 -20 20 -20 28 0 18 46 62 65 62 8 0 15 5 15 10 0 6 9 10 20 10 11 0
20 5 20 10 0 6 18 10 40 10 22 0 40 5 40 10 0 16 129 12 146 -4z m120 -520
c10 -10 14 -39 14 -100 l0 -86 -40 0 c-22 0 -40 5 -40 10 0 6 -27 10 -60 10
-33 0 -60 4 -60 10 0 6 -21 10 -46 10 -58 0 -74 16 -74 74 0 39 3 46 20 46 11
0 20 5 20 10 0 6 14 10 30 10 17 0 30 5 30 10 0 17 189 13 206 -4z m-646 -136
c0 -5 23 -10 50 -10 28 0 50 -4 50 -10 0 -6 27 -10 60 -10 33 0 60 -4 60 -10
0 -6 27 -10 60 -10 33 0 60 -4 60 -10 0 -5 -4 -10 -10 -10 -5 0 -10 -9 -10
-20 0 -11 -4 -20 -10 -20 -5 0 -10 -18 -10 -40 0 -22 -4 -40 -10 -40 -6 0 -10
-57 -10 -150 0 -93 4 -150 10 -150 6 0 10 -8 10 -18 0 -10 9 -24 20 -32 28
-20 25 -30 -8 -30 -16 0 -34 8 -42 20 -10 14 -26 20 -52 20 -21 0 -38 -4 -38
-10 0 -5 -7 -10 -15 -10 -20 0 -85 -65 -85 -85 0 -8 -4 -15 -10 -15 -5 0 -10
-13 -10 -30 0 -16 -2 -30 -5 -30 -12 0 -75 70 -75 82 0 8 -9 20 -20 28 -12 8
-20 26 -20 42 0 15 -4 28 -10 28 -5 0 -10 9 -10 20 0 11 -4 20 -10 20 -5 0
-10 18 -10 40 0 22 -4 40 -10 40 -6 0 -10 70 -10 190 0 120 4 190 10 190 6 0
10 9 10 20 0 17 7 20 50 20 28 0 50 -4 50 -10z m380 -80 c0 -5 9 -10 20 -10
11 0 20 5 20 10 0 6 23 10 50 10 28 0 50 -4 50 -10 0 -5 16 -10 36 -10 38 0
64 -18 64 -44 0 -9 -8 -16 -20 -16 -11 0 -20 5 -20 10 0 6 -18 10 -40 10 -22
0 -40 5 -40 10 0 6 -9 10 -20 10 -11 0 -20 5 -20 10 0 6 -9 10 -20 10 -11 0
-20 -4 -20 -10 0 -5 9 -10 20 -10 11 0 20 -4 20 -10 0 -5 9 -10 20 -10 11 0
20 -4 20 -10 0 -5 14 -10 30 -10 l30 0 0 -60 0 -60 -70 0 c-40 0 -70 -4 -70
-10 0 -6 27 -10 60 -10 l60 0 0 -30 c0 -28 -2 -30 -40 -30 -22 0 -40 -4 -40
-10 0 -5 -13 -10 -30 -10 -16 0 -30 -4 -30 -10 0 -5 -9 -10 -20 -10 -11 0 -20
-4 -20 -10 0 -5 -9 -10 -20 -10 -11 0 -20 -4 -20 -10 0 -5 -4 -10 -10 -10 -16
0 -12 89 4 106 8 8 31 14 50 14 20 0 36 5 36 10 0 6 -22 10 -50 10 -49 0 -50
1 -50 30 0 17 5 30 10 30 6 0 10 23 10 50 0 28 5 50 10 50 6 0 10 7 10 15 0
17 20 44 33 45 4 0 7 -4 7 -10z m300 -40 c0 -5 23 -10 50 -10 28 0 50 -4 50
-10 0 -5 23 -10 50 -10 28 0 50 -4 50 -10 0 -5 18 -10 40 -10 22 0 40 -4 40
-10 0 -5 23 -10 50 -10 28 0 50 -4 50 -10 0 -5 12 -10 26 -10 23 0 54 -20 54
-34 0 -3 -45 -6 -100 -6 -60 0 -100 4 -100 10 0 6 -22 10 -50 10 -27 0 -50 5
-50 10 0 6 -18 10 -40 10 -22 0 -40 5 -40 10 0 6 -13 10 -30 10 -16 0 -30 5
-30 10 0 6 -13 10 -30 10 -27 0 -30 3 -30 30 0 23 4 30 20 30 11 0 20 -4 20
-10z m-80 -60 c0 -5 18 -10 40 -10 22 0 40 -4 40 -10 0 -5 14 -10 30 -10 17 0
30 -4 30 -10 0 -5 23 -10 50 -10 28 0 50 -4 50 -10 0 -5 18 -10 40 -10 33 0
40 -3 40 -20 0 -11 -4 -20 -10 -20 -5 0 -10 -13 -10 -30 0 -16 -4 -30 -10 -30
-5 0 -10 5 -10 10 0 6 -13 10 -30 10 -16 0 -30 5 -30 10 0 6 -13 10 -30 10
-16 0 -30 5 -30 10 0 6 -22 10 -50 10 -27 0 -50 5 -50 10 0 6 -18 10 -40 10
l-40 0 0 50 c0 28 5 50 10 50 6 0 10 -4 10 -10z m606 -84 c8 -8 14 -29 14 -46
0 -17 -6 -38 -14 -46 -17 -16 -106 -20 -106 -4 0 6 -37 10 -90 10 l-90 0 0 26
c0 46 19 54 134 54 64 0 106 4 106 10 0 15 29 12 46 -4z m-546 -36 c0 -5 9
-10 20 -10 11 0 20 -4 20 -10 0 -6 -27 -10 -60 -10 -53 0 -60 2 -60 20 0 17 7
20 40 20 22 0 40 -4 40 -10z m180 -60 c0 -5 9 -10 20 -10 13 0 20 -7 20 -20 0
-11 -4 -20 -10 -20 -5 0 -10 -13 -10 -30 0 -16 -4 -30 -10 -30 -5 0 -10 -7
-10 -16 0 -18 -24 -44 -41 -44 -6 0 -20 -9 -30 -21 -16 -19 -20 -20 -34 -6 -8
9 -15 21 -15 27 0 16 -47 60 -65 60 -8 0 -15 5 -15 10 0 6 -9 10 -20 10 -11 0
-20 5 -20 10 0 6 -9 10 -20 10 -23 0 -28 42 -7 65 15 17 267 22 267 5z m-300
-40 c0 -28 -2 -30 -38 -30 -26 0 -42 -6 -52 -20 -8 -11 -21 -20 -28 -20 -8 0
-27 -14 -43 -31 -26 -27 -30 -29 -44 -16 -8 9 -15 22 -15 30 0 9 -6 17 -12 19
-17 6 14 38 36 38 9 0 16 5 16 10 0 6 9 10 20 10 11 0 20 5 20 10 0 6 14 10
30 10 17 0 30 5 30 10 0 6 18 10 40 10 38 0 40 -2 40 -30z m560 10 c0 -24 -43
-28 -66 -6 -21 22 -17 26 26 26 33 0 40 -3 40 -20z m-100 -10 c0 -5 7 -10 16
-10 22 0 53 -32 36 -38 -6 -2 -12 -12 -12 -23 0 -10 -4 -19 -10 -19 -5 0 -10
-9 -10 -20 0 -11 -4 -20 -10 -20 -5 0 -10 -13 -10 -30 0 -16 -4 -30 -10 -30
-5 0 -10 -13 -10 -30 0 -23 -4 -30 -20 -30 -11 0 -20 5 -20 10 0 6 -9 10 -20
10 -23 0 -28 34 -7 44 10 5 10 7 0 12 -7 3 -13 14 -13 25 0 12 -7 19 -20 19
-13 0 -20 7 -20 20 0 11 5 20 10 20 6 0 10 14 10 30 0 17 5 30 10 30 6 0 10 9
10 20 0 17 7 20 50 20 28 0 50 -4 50 -10z m-760 -166 c0 -9 -10 -25 -22 -35
-11 -11 -18 -22 -13 -27 4 -4 10 -1 12 6 3 6 18 12 34 12 16 0 29 5 29 10 0 6
9 10 20 10 16 0 20 -7 20 -38 0 -26 -6 -42 -20 -52 -11 -8 -20 -18 -20 -22 0
-4 9 -8 20 -8 18 0 20 -7 20 -60 0 -33 4 -60 10 -60 6 0 10 -9 10 -19 0 -11 6
-21 13 -24 8 -3 5 -11 -10 -24 -13 -11 -23 -28 -23 -37 0 -9 -4 -16 -10 -16
-5 0 -10 -22 -10 -50 l0 -50 -50 0 c-27 0 -50 5 -50 10 0 6 -9 10 -20 10 -11
0 -20 5 -20 10 0 6 -7 10 -15 10 -20 0 -65 45 -65 65 0 8 -4 15 -10 15 -6 0
-10 37 -10 90 0 53 4 90 10 90 6 0 10 9 10 20 0 11 5 20 10 20 6 0 10 9 10 20
0 11 5 20 10 20 6 0 10 7 10 15 0 9 16 31 35 50 19 19 41 35 50 35 8 0 15 5
15 10 0 6 5 10 10 10 6 0 10 -7 10 -16z m640 -74 c0 -5 9 -10 20 -10 11 0 20
-4 20 -10 0 -5 9 -10 20 -10 17 0 20 -7 20 -45 0 -39 -5 -51 -35 -80 -19 -19
-41 -35 -50 -35 -8 0 -15 -4 -15 -10 0 -5 -9 -10 -20 -10 -11 0 -20 -4 -20
-10 0 -5 -9 -10 -20 -10 -11 0 -20 -4 -20 -10 0 -5 -22 -10 -50 -10 -27 0 -50
5 -50 10 0 6 5 10 10 10 6 0 10 9 10 20 0 13 7 20 20 20 11 0 20 -4 20 -10 0
-5 11 -10 25 -10 29 0 75 40 75 65 0 8 5 15 10 15 6 0 10 14 10 30 0 17 -4 30
-10 30 -5 0 -10 9 -10 20 0 11 -4 20 -10 20 -5 0 -10 5 -10 10 0 6 9 10 20 10
11 0 20 5 20 10 0 6 5 10 10 10 6 0 10 -4 10 -10z m-74 -44 c8 -8 14 -21 14
-29 0 -9 6 -17 13 -20 6 -2 9 -8 5 -12 -5 -5 -16 2 -27 13 -23 27 -31 28 -31
2 0 -11 -4 -20 -10 -20 -5 0 -10 -13 -10 -30 0 -36 6 -37 31 -8 11 11 22 18
27 13 4 -4 1 -10 -5 -12 -7 -3 -13 -13 -13 -24 0 -14 -7 -19 -26 -19 -29 0
-67 31 -46 38 8 2 12 25 12 63 0 57 1 59 26 59 14 0 32 -6 40 -14z m154 -141
c0 -23 -46 -65 -70 -65 -29 0 -50 -23 -50 -54 0 -21 -5 -26 -26 -26 -14 0 -32
7 -40 15 -14 13 -14 17 0 30 8 8 22 15 30 15 9 0 16 5 16 10 0 6 8 10 18 10
10 0 24 9 32 20 8 11 21 20 30 20 9 0 22 9 30 20 17 24 30 26 30 5z m-860
-175 c27 -27 56 -50 64 -50 20 0 20 -7 -1 -28 -12 -12 -18 -13 -21 -4 -2 6
-10 12 -18 12 -19 0 -104 85 -104 105 0 29 31 15 80 -35z"/>
<path d="M921 514 c-12 -14 -21 -28 -18 -31 6 -5 57 41 57 52 0 11 -16 3 -39
-21z"/>
<path d="M960 481 c0 -11 -6 -21 -12 -24 -7 -2 -10 -8 -6 -12 6 -7 58 37 58
50 0 3 -9 5 -20 5 -13 0 -20 -7 -20 -19z"/>
<path d="M1000 430 c0 -5 5 -10 10 -10 6 0 10 5 10 10 0 6 -4 10 -10 10 -5 0
-10 -4 -10 -10z"/>
<path d="M980 390 c0 -5 5 -10 10 -10 6 0 10 5 10 10 0 6 -4 10 -10 10 -5 0
-10 -4 -10 -10z"/>
<path d="M403 2355 c-24 -25 -43 -50 -43 -58 0 -7 -9 -19 -20 -27 -11 -8 -20
-21 -20 -30 0 -9 -9 -22 -20 -30 -11 -8 -20 -22 -20 -32 0 -10 -4 -18 -10 -18
-5 0 -10 -9 -10 -20 0 -11 -4 -20 -10 -20 -5 0 -10 -7 -10 -16 0 -8 -7 -23
-16 -31 -13 -14 -17 -14 -24 -2 -5 7 -13 10 -17 5 -4 -5 -2 -11 5 -13 14 -5
17 -63 2 -63 -5 0 -10 -9 -10 -20 0 -11 5 -20 10 -20 6 0 10 7 10 16 0 8 6 22
14 30 17 16 66 19 66 4 0 -5 7 -10 16 -10 9 0 29 -13 44 -30 15 -16 33 -30 39
-30 7 0 24 -12 38 -26 20 -21 23 -28 12 -34 -7 -5 -10 -12 -6 -17 5 -4 12 -1
17 7 7 12 12 11 28 -8 11 -12 26 -22 35 -22 8 0 17 -6 20 -12 2 -7 8 -10 12
-6 4 4 -12 26 -35 48 l-42 41 21 18 c11 10 21 25 21 32 0 8 9 21 20 29 18 13
29 50 14 50 -10 0 -34 -28 -34 -40 0 -6 -4 -8 -10 -5 -5 3 -10 -1 -10 -10 0
-9 -11 -27 -25 -41 l-26 -25 -28 30 c-16 17 -35 31 -43 31 -7 0 -20 9 -28 20
-8 11 -22 20 -32 20 -10 0 -18 5 -18 10 0 6 -9 10 -20 10 -11 0 -20 5 -20 10
0 6 5 10 10 10 6 0 10 9 10 20 0 11 5 20 10 20 6 0 10 9 10 20 0 11 5 20 10
20 6 0 10 8 10 18 0 10 9 24 20 32 11 8 20 21 20 30 0 9 9 22 20 30 11 8 20
21 20 28 0 7 18 31 40 52 22 21 40 46 40 54 0 24 -11 19 -57 -29z"/>
<path d="M620 1882 c0 -10 -9 -24 -20 -32 -11 -8 -20 -22 -20 -32 0 -10 -4
-18 -10 -18 -5 0 -10 -9 -10 -19 0 -11 -6 -21 -12 -24 -7 -2 -9 -8 -5 -13 4
-5 12 -2 17 6 7 11 15 7 40 -20 17 -18 33 -30 37 -27 3 4 -8 20 -26 36 -30 28
-41 61 -21 61 6 0 10 7 10 16 0 9 14 29 30 44 35 33 37 40 10 40 -13 0 -20 -7
-20 -18z"/>
<path d="M400 1830 c0 -5 5 -10 10 -10 6 0 10 5 10 10 0 6 -4 10 -10 10 -5 0
-10 -4 -10 -10z"/>
<path d="M120 1780 c0 -11 -4 -20 -10 -20 -5 0 -10 -13 -10 -30 0 -16 -4 -30
-10 -30 -6 0 -10 -27 -10 -60 0 -33 -4 -60 -10 -60 -6 0 -10 -30 -10 -70 0
-40 4 -70 10 -70 6 0 10 30 10 70 0 40 4 70 10 70 6 0 10 23 10 50 0 28 5 50
10 50 6 0 10 14 10 30 0 17 5 30 10 30 6 0 10 14 10 30 0 17 -4 30 -10 30 -5
0 -10 -9 -10 -20z"/>
<path d="M237 1786 c-4 -10 -1 -13 9 -9 7 3 14 9 14 14 0 14 -17 10 -23 -5z"/>
<path d="M220 1740 c0 -11 5 -20 10 -20 6 0 10 9 10 20 0 11 -4 20 -10 20 -5
0 -10 -9 -10 -20z"/>
<path d="M520 1710 c0 -5 5 -10 10 -10 6 0 10 5 10 10 0 6 -4 10 -10 10 -5 0
-10 -4 -10 -10z"/>
<path d="M200 1670 c0 -23 -4 -30 -20 -30 -11 0 -20 -4 -20 -10 0 -5 9 -10 20
-10 11 0 20 -4 20 -10 0 -5 9 -10 20 -10 11 0 20 -4 20 -10 0 -5 9 -10 20 -10
11 0 20 -4 20 -10 0 -5 9 -10 20 -10 11 0 20 -4 20 -10 0 -5 7 -10 16 -10 9 0
25 -10 35 -22 11 -11 22 -19 25 -15 9 9 -42 57 -61 57 -8 0 -15 5 -15 10 0 6
-9 10 -20 10 -11 0 -20 5 -20 10 0 6 -7 10 -16 10 -26 0 -44 26 -44 64 0 20
-4 36 -10 36 -5 0 -10 -13 -10 -30z"/>
<path d="M711 1604 c-18 -21 -6 -30 14 -11 8 9 15 18 15 21 0 11 -15 5 -29
-10z"/>
<path d="M180 1560 c0 -11 5 -20 10 -20 6 0 10 9 10 20 0 11 -4 20 -10 20 -5
0 -10 -9 -10 -20z"/>
<path d="M420 1490 c0 -5 5 -10 10 -10 6 0 10 5 10 10 0 6 -4 10 -10 10 -5 0
-10 -4 -10 -10z"/>
<path d="M220 1380 c0 -11 5 -20 10 -20 6 0 10 9 10 20 0 11 -4 20 -10 20 -5
0 -10 -9 -10 -20z"/>
<path d="M1920 1290 c0 -5 5 -10 10 -10 6 0 10 -7 10 -15 0 -20 49 -70 58 -60
4 4 1 10 -5 12 -7 3 -13 11 -13 19 0 8 -11 26 -25 39 -26 27 -35 31 -35 15z"/>
<path d="M200 1260 c0 -11 5 -20 10 -20 6 0 10 9 10 20 0 11 -4 20 -10 20 -5
0 -10 -9 -10 -20z"/>
<path d="M2060 1210 c0 -5 5 -10 10 -10 6 0 10 -9 10 -20 0 -11 5 -20 10 -20
6 0 10 -9 10 -20 0 -11 5 -20 10 -20 6 0 10 9 10 20 0 11 -4 20 -10 20 -5 0
-10 7 -10 16 0 15 -23 44 -34 44 -3 0 -6 -4 -6 -10z"/>
</g>
</svg>
