<?xml version="1.0" standalone="no"?>
<!DOCTYPE svg PUBLIC "-//W3C//DTD SVG 20010904//EN"
 "http://www.w3.org/TR/2001/REC-SVG-20010904/DTD/svg10.dtd">
<svg version="1.0" xmlns="http://www.w3.org/2000/svg"
 width="391.000000pt" height="365.000000pt" viewBox="0 0 391.000000 365.000000"
 preserveAspectRatio="xMidYMid meet">

<g transform="translate(0.000000,365.000000) scale(0.100000,-0.100000)"
fill="#000000" stroke="none">
<path d="M1670 3353 c-245 -26 -362 -121 -287 -234 32 -49 128 -93 230 -107
286 -40 474 -35 627 14 86 28 114 48 135 98 25 59 20 85 -28 131 -47 45 -137
78 -259 96 -60 8 -344 10 -418 2z m298 -63 c1 -25 -1 -50 -5 -56 -5 -7 -52
-13 -114 -16 -105 -5 -105 -4 -117 21 -17 35 -15 67 4 86 13 13 36 15 123 13
l106 -3 3 -45z m119 34 c-3 -3 -12 -4 -19 -1 -8 3 -5 6 6 6 11 1 17 -2 13 -5z
m-547 -34 c0 -5 -4 -10 -10 -10 -5 0 -10 5 -10 10 0 6 5 10 10 10 6 0 10 -4
10 -10z m747 -17 c50 -23 85 -60 81 -86 -3 -19 -10 -22 -55 -25 -61 -4 -133
27 -132 56 0 14 2 14 9 -3 6 -15 9 -6 9 34 1 53 1 53 29 46 15 -3 41 -13 59
-22z m-774 -20 c3 -21 8 -47 11 -58 5 -16 -1 -25 -33 -42 -53 -30 -88 -30
-102 1 -19 40 -3 74 48 106 26 17 52 30 59 30 7 0 14 -17 17 -37z m207 -23 c0
-5 -4 -10 -10 -10 -5 0 -10 5 -10 10 0 6 5 10 10 10 6 0 10 -4 10 -10z m381
-42 c39 -6 66 -15 61 -20 -20 -20 -226 -31 -376 -20 -171 12 -207 27 -90 37
44 3 90 7 104 9 66 8 239 5 301 -6z m-514 -90 c-2 -13 -4 -5 -4 17 -1 22 1 32
4 23 2 -10 2 -28 0 -40z m-92 32 c-3 -5 -12 -10 -18 -10 -7 0 -6 4 3 10 19 12
23 12 15 0z m243 -7 l42 -6 0 -43 c0 -23 -4 -45 -9 -49 -12 -7 -165 5 -180 14
-6 4 -4 23 6 55 l16 48 41 -6 c23 -4 60 -10 84 -13z m429 -37 l20 -54 -74 -11
c-41 -6 -85 -11 -98 -11 -32 0 -48 31 -39 75 6 34 8 35 53 36 25 1 57 5 71 9
43 14 47 11 67 -44z"/>
<path d="M843 2946 c-39 -13 -87 -33 -105 -44 -22 -14 -42 -19 -58 -15 -27 7
-50 -18 -50 -55 0 -14 -19 -46 -44 -75 -59 -71 -115 -167 -171 -295 -68 -156
-92 -291 -64 -370 9 -26 7 -35 -12 -61 -22 -30 -22 -31 -4 -51 12 -14 31 -20
59 -20 25 0 53 -8 71 -21 112 -76 207 -104 305 -90 65 9 65 8 102 -25 39 -35
115 -77 186 -103 41 -15 45 -21 71 -86 40 -102 110 -218 191 -315 243 -291
332 -420 419 -602 71 -149 83 -194 82 -321 0 -72 3 -97 12 -94 14 4 68 111 93
182 71 208 179 372 404 615 240 260 360 430 409 583 10 28 23 43 54 59 23 11
69 47 102 79 l60 58 79 -11 c129 -17 247 21 331 107 24 26 49 44 54 40 6 -3
22 -3 36 1 18 4 25 13 25 29 0 13 -4 26 -10 30 -6 4 -6 15 0 31 15 39 12 134
-6 195 -44 146 -210 406 -285 445 -18 9 -29 23 -29 35 0 29 -46 72 -70 64 -10
-3 -64 9 -122 29 -211 72 -261 61 -355 -80 -49 -74 -57 -93 -61 -142 -3 -54
-2 -59 32 -99 43 -50 69 -60 100 -40 20 13 26 13 65 -5 36 -16 48 -17 77 -8
19 7 42 22 50 35 16 25 35 24 66 -2 14 -12 16 -27 12 -86 -8 -100 -7 -99 -46
-83 -87 37 -201 27 -259 -21 l-30 -25 -52 22 c-36 16 -73 23 -119 24 -38 1
-68 3 -68 6 0 3 7 39 16 80 23 104 23 330 1 364 -21 31 -150 82 -277 108 -80
17 -120 19 -260 15 -253 -8 -408 -43 -479 -108 l-34 -31 6 -131 c4 -81 13
-160 25 -203 l19 -72 -52 -4 c-29 -3 -77 -16 -106 -31 l-54 -26 -30 28 c-16
16 -40 34 -52 40 -31 16 -104 14 -146 -4 -20 -8 -38 -15 -41 -15 -2 0 -9 30
-16 68 -7 37 -19 84 -27 104 -11 28 -12 41 -3 57 13 26 12 26 54 -3 35 -23 41
-24 201 -29 44 -1 104 31 122 66 21 42 13 87 -34 182 -54 110 -96 139 -208
143 -62 2 -96 -3 -152 -22z m247 -19 c36 -18 52 -34 77 -82 77 -141 75 -199
-7 -234 -56 -24 -60 -25 -60 -11 0 6 6 10 14 10 8 0 28 16 45 35 24 27 31 45
30 73 l-1 37 -7 -35 c-11 -55 -26 -74 -77 -99 -44 -23 -50 -23 -88 -10 -48 17
-57 36 -19 42 21 3 17 4 -14 6 -107 3 -146 69 -66 112 18 10 27 9 50 -6 l28
-18 -18 21 c-18 20 -18 21 5 25 12 2 4 3 -20 2 -31 -2 -51 -10 -71 -29 -16
-15 -41 -31 -57 -36 -28 -8 -28 -8 -4 -9 17 -1 29 -10 38 -28 17 -38 16 -43
-17 -43 -35 0 -97 65 -136 144 -14 28 -23 40 -19 26 16 -62 105 -180 136 -180
29 0 16 -24 -15 -28 -34 -4 -99 38 -126 82 -29 46 -49 152 -33 168 10 10 17
10 31 1 15 -10 22 -9 30 1 14 17 99 54 161 72 73 20 158 16 210 -9z m968 -21
c3 -3 -20 -33 -52 -65 -53 -56 -106 -147 -106 -181 0 -8 11 11 24 43 26 63 35
75 109 153 l49 52 57 -14 c65 -15 119 -34 183 -63 54 -24 58 -36 58 -190 0
-126 -5 -152 -28 -144 -13 4 -13 2 2 -9 21 -17 21 -21 -20 -155 -13 -46 -28
-83 -32 -83 -5 0 -23 31 -42 70 -18 38 -35 68 -37 66 -2 -2 13 -37 33 -78 36
-74 37 -75 18 -94 -10 -11 -26 -29 -34 -41 -13 -18 -28 -22 -92 -26 l-78 -4
-1 26 c-2 26 -2 26 -6 -2 -3 -19 -13 -32 -31 -39 -15 -6 -51 -21 -80 -35 -29
-13 -58 -20 -64 -17 -6 4 -33 12 -62 18 -45 10 -52 15 -57 41 -6 29 -7 29 -8
4 l-1 -26 -72 5 c-40 2 -80 10 -88 17 -8 7 -30 20 -47 29 -18 9 -40 27 -49 40
-14 22 -14 27 1 56 9 18 14 34 12 36 -2 3 -10 -9 -17 -26 -7 -16 -16 -30 -19
-30 -17 0 -81 165 -81 207 0 19 10 28 43 43 23 11 35 20 27 20 -8 0 -29 -9
-47 -20 -31 -18 -32 -18 -38 -1 -9 30 -25 181 -25 242 0 53 2 59 38 90 l37 33
6 -60 6 -59 1 61 2 62 48 12 c81 21 86 22 135 27 l47 6 68 -69 c40 -41 80 -96
100 -134 18 -36 30 -54 27 -40 -13 47 -70 132 -127 186 -32 31 -58 57 -58 59
0 13 355 13 368 1z m839 -37 c39 -10 97 -30 128 -44 l58 -25 -7 -42 c-9 -54
-60 -134 -98 -154 -27 -14 -32 -14 -56 1 l-27 16 24 -20 23 -21 -30 0 c-34 0
-50 16 -34 32 15 15 -20 64 -51 74 -12 3 -33 16 -47 28 l-25 21 20 -24 c14
-17 16 -25 8 -28 -7 -3 -13 -9 -13 -14 0 -5 9 -4 19 3 25 15 66 -2 74 -31 7
-28 -24 -52 -75 -58 -34 -4 -50 0 -78 19 -47 32 -59 78 -37 144 12 38 13 45 2
30 -23 -31 -29 -98 -12 -139 11 -26 26 -41 54 -52 36 -16 37 -17 19 -31 -26
-18 -35 -18 -74 6 -43 27 -54 60 -49 147 5 76 18 103 74 155 45 42 74 43 210
7z m223 -68 c47 -89 -81 -290 -165 -257 -25 9 -17 23 27 53 56 37 100 109 106
173 5 53 15 62 32 31z m-2457 -70 c20 -56 84 -119 130 -128 16 -3 33 -16 41
-32 26 -51 51 -177 51 -255 -1 -73 12 -73 14 0 2 59 120 96 190 59 16 -8 46
-34 68 -59 33 -37 39 -41 39 -23 -1 15 11 28 41 45 44 24 140 39 158 25 21
-17 95 -177 85 -183 -5 -3 11 -11 36 -18 25 -7 56 -23 69 -36 20 -20 31 -23
63 -19 41 5 191 -20 225 -39 18 -9 18 -10 0 -30 -10 -11 6 -4 34 15 86 58 155
80 268 85 55 3 91 8 81 12 -17 6 -14 11 26 53 24 26 43 49 41 50 -9 9 29 78
49 88 31 17 118 5 182 -24 48 -22 56 -24 67 -10 47 56 168 72 269 36 46 -16
56 -24 61 -49 4 -16 7 14 7 67 1 142 6 160 55 184 49 24 102 89 119 148 6 23
13 44 14 46 2 2 17 -7 35 -19 71 -51 215 -279 259 -410 24 -70 30 -174 12
-207 -8 -14 -8 -23 0 -31 19 -19 1 -44 -29 -41 -22 2 -39 -8 -80 -47 -73 -73
-149 -100 -270 -97 -50 1 -100 6 -109 11 -15 8 -26 0 -63 -41 -50 -55 -116
-107 -138 -107 -10 0 -12 17 -7 83 3 45 1 96 -5 112 -8 24 -9 19 -4 -27 12
-118 -26 -254 -110 -396 -72 -121 -141 -209 -308 -392 -154 -168 -193 -215
-256 -310 -58 -86 -108 -184 -147 -285 -48 -123 -71 -175 -78 -175 -5 0 -8 32
-8 70 0 100 -25 188 -90 315 -92 182 -168 290 -419 595 -120 146 -206 324
-231 480 -9 52 -9 52 -4 -18 4 -72 4 -73 -18 -67 -42 13 -163 78 -203 110 -37
29 -43 31 -80 23 -86 -20 -201 11 -305 81 -36 25 -51 29 -80 25 -27 -4 -39 -1
-53 13 -16 19 -16 21 7 42 23 22 23 25 10 57 -18 43 -18 132 1 211 17 71 101
263 148 338 36 57 106 145 116 145 3 0 14 -22 24 -49z m1942 -55 c0 -71 2 -77
33 -109 23 -24 30 -36 20 -39 -39 -14 -98 55 -98 115 0 27 32 107 43 107 1 0
2 -34 2 -74z m-1653 -46 c18 -16 29 -30 23 -30 -16 0 -75 39 -75 50 0 18 19
11 52 -20z m1895 -84 c-19 -29 -60 -40 -88 -25 -28 14 -13 29 49 49 52 17 61
11 39 -24z"/>
<path d="M1098 2825 c5 -11 12 -27 15 -35 5 -13 6 -13 6 1 1 8 -6 24 -15 35
-15 19 -15 19 -6 -1z"/>
<path d="M1150 2825 c0 -5 5 -17 10 -25 5 -8 10 -10 10 -5 0 6 -5 17 -10 25
-5 8 -10 11 -10 5z"/>
<path d="M1121 2748 c-1 -27 -35 -62 -72 -73 -10 -4 -19 -11 -19 -16 0 -15 78
29 90 52 6 11 9 30 7 42 -4 19 -4 18 -6 -5z"/>
<path d="M2332 2780 c0 -19 2 -27 5 -17 2 9 2 25 0 35 -3 9 -5 1 -5 -18z"/>
<path d="M2322 2720 c0 -14 2 -19 5 -12 2 6 2 18 0 25 -3 6 -5 1 -5 -13z"/>
<path d="M1451 2709 c0 -13 4 -33 9 -44 7 -14 8 -8 3 20 -7 46 -13 59 -12 24z"/>
<path d="M2311 2674 c0 -11 3 -14 6 -6 3 7 2 16 -1 19 -3 4 -6 -2 -5 -13z"/>
<path d="M1716 2628 c-22 -30 -20 -96 3 -141 l19 -37 -24 0 c-13 0 -46 9 -74
20 -28 11 -49 16 -45 10 3 -5 -1 -24 -10 -42 -15 -31 -3 -21 20 16 9 15 14 15
60 -3 40 -15 61 -17 108 -11 32 5 70 5 86 0 32 -9 81 -2 81 11 0 5 17 7 38 3
33 -5 39 -3 49 18 20 41 20 52 -1 70 -20 16 -20 17 -3 30 24 18 19 61 -6 66
-39 8 -50 -17 -45 -102 5 -75 4 -78 -11 -59 -9 11 -27 25 -39 32 -19 10 -22
20 -22 66 0 30 -5 55 -10 55 -6 0 -8 -20 -4 -52 6 -52 6 -53 -25 -65 -20 -7
-31 -18 -31 -31 0 -20 -18 -32 -48 -32 -12 0 -13 3 -4 12 20 20 15 66 -8 73
-24 8 -26 21 -4 29 22 8 14 55 -13 73 -19 13 -23 12 -37 -9z m140 -165 c-11
-11 -19 6 -11 24 8 17 8 17 12 0 3 -10 2 -21 -1 -24z"/>
<path d="M2292 2625 c-17 -37 -14 -45 4 -12 9 16 14 31 11 33 -2 2 -9 -7 -15
-21z"/>
<path d="M1480 2606 c0 -5 11 -28 25 -51 13 -23 21 -45 18 -49 -3 -3 1 -6 11
-6 13 0 15 3 6 18 -6 9 -22 35 -35 57 -14 22 -25 36 -25 31z"/>
<path d="M2241 2539 c-38 -46 -118 -88 -171 -90 l-35 -1 30 -7 30 -7 -34 -12
c-19 -7 -43 -13 -55 -13 -17 -1 -18 -2 -3 -6 9 -2 17 -14 18 -26 l1 -22 6 22
c7 22 136 98 152 88 4 -3 10 2 14 10 3 8 15 15 26 15 13 0 18 4 15 11 -4 6 2
20 12 32 20 22 37 47 31 47 -2 0 -18 -19 -37 -41z"/>
<path d="M2268 2503 c12 -2 32 -2 45 0 12 2 2 4 -23 4 -25 0 -35 -2 -22 -4z"/>
<path d="M2201 2430 c14 -31 19 -36 19 -24 0 6 -7 19 -16 30 -14 18 -14 18 -3
-6z"/>
<path d="M1790 2407 c14 -7 33 -11 43 -9 23 6 20 8 -28 16 -38 6 -39 6 -15 -7z"/>
<path d="M1898 2393 c18 -2 45 -2 60 0 15 2 0 4 -33 4 -33 0 -45 -2 -27 -4z"/>
<path d="M1545 2369 c-4 -6 -5 -12 -2 -15 2 -3 7 2 10 11 7 17 1 20 -8 4z"/>
<path d="M1802 2360 c0 -14 2 -19 5 -12 2 6 2 18 0 25 -3 6 -5 1 -5 -13z"/>
<path d="M2032 2330 c0 -14 4 -36 8 -50 6 -20 8 -21 8 -5 0 11 -4 34 -8 50 -7
27 -8 27 -8 5z"/>
<path d="M1792 2305 c0 -16 2 -22 5 -12 2 9 2 23 0 30 -3 6 -5 -1 -5 -18z"/>
<path d="M2052 2220 c0 -14 2 -19 5 -12 2 6 2 18 0 25 -3 6 -5 1 -5 -13z"/>
<path d="M1771 2184 c0 -11 3 -14 6 -6 3 7 2 16 -1 19 -3 4 -6 -2 -5 -13z"/>
<path d="M2961 2244 c0 -11 3 -14 6 -6 3 7 2 16 -1 19 -3 4 -6 -2 -5 -13z"/>
<path d="M2990 2176 c0 -2 8 -10 18 -17 15 -13 16 -12 3 4 -13 16 -21 21 -21
13z"/>
<path d="M1922 1831 c-2 -46 -4 -52 -17 -41 -8 6 -20 8 -26 4 -8 -4 -9 -3 -5
4 4 7 5 12 2 12 -2 0 -13 3 -23 6 -15 5 -15 4 -3 -5 12 -9 11 -11 -9 -11 -16
0 -22 4 -17 15 8 23 -81 20 -120 -4 -39 -24 -78 -85 -71 -111 3 -11 1 -18 -4
-14 -12 7 -11 -37 1 -56 5 -8 10 -10 10 -4 0 6 6 11 13 11 9 0 12 -9 9 -25 -3
-17 -7 -20 -13 -10 -5 7 -9 8 -9 2 0 -27 66 -108 164 -199 59 -55 111 -101
115 -103 4 -1 18 10 32 25 13 15 16 21 7 14 -16 -12 -18 -11 -18 3 0 13 7 17
26 14 17 -2 31 5 45 22 12 14 17 18 13 10 -5 -10 0 -9 14 4 12 10 19 23 16 28
-3 4 -1 7 4 6 14 -4 93 62 87 72 -3 5 0 12 6 16 8 5 9 3 4 -7 -8 -12 -6 -12 9
0 9 8 15 20 12 28 -3 8 -2 12 2 9 16 -10 42 65 42 118 0 43 -6 61 -30 94 -30
41 -57 62 -82 62 -10 0 -9 -3 2 -10 11 -7 -4 -10 -51 -9 -48 1 -73 -3 -90 -15
-13 -9 -27 -16 -31 -16 -4 0 -9 26 -11 58 l-3 57 -2 -54z m-187 -21 c-3 -5
-12 -10 -18 -10 -7 0 -6 4 3 10 19 12 23 12 15 0z m129 -49 c17 -14 33 -29 34
-34 2 -4 8 -5 13 -1 5 3 10 -10 10 -28 2 -31 2 -31 6 -5 3 18 13 31 29 37 31
12 32 34 2 27 -23 -6 -23 -6 -3 9 12 9 21 11 23 4 5 -13 39 -13 47 0 3 6 24
10 46 10 89 0 136 -104 88 -197 -13 -25 -31 -51 -41 -57 -10 -6 -18 -16 -18
-23 0 -7 -4 -13 -10 -13 -5 0 -28 -19 -51 -42 -51 -52 -88 -78 -112 -78 -36 0
-178 131 -217 199 -8 14 -17 28 -20 31 -3 3 -11 21 -16 40 -33 111 99 195 190
121z m56 -12 c0 -6 -4 -7 -10 -4 -5 3 -10 11 -10 16 0 6 5 7 10 4 6 -3 10 -11
10 -16z m-260 -14 c0 -8 -4 -15 -10 -15 -5 0 -7 7 -4 15 4 8 8 15 10 15 2 0 4
-7 4 -15z m540 -6 c0 -5 -4 -9 -10 -9 -5 0 -10 7 -10 16 0 8 5 12 10 9 6 -3
10 -10 10 -16z m0 -136 c0 -5 -5 -15 -10 -23 -8 -12 -10 -11 -10 8 0 12 5 22
10 22 6 0 10 -3 10 -7z m-497 -53 c3 -11 12 -20 21 -20 9 0 16 -7 16 -16 0 -9
9 -18 20 -21 11 -3 20 -12 20 -21 0 -11 -13 -3 -41 23 -44 43 -66 75 -51 75 6
0 12 -9 15 -20z m417 -64 c0 -3 -4 -8 -10 -11 -5 -3 -10 -1 -10 4 0 6 5 11 10
11 6 0 10 -2 10 -4z m-300 -58 c0 -6 -6 -5 -15 2 -8 7 -15 14 -15 16 0 2 7 1
15 -2 8 -4 15 -11 15 -16z m43 -38 c3 -11 4 -20 3 -20 -2 0 -11 9 -21 20 -15
17 -16 20 -3 20 9 0 18 -9 21 -20z m37 -30 c0 -5 -4 -10 -10 -10 -5 0 -10 5
-10 10 0 6 5 10 10 10 6 0 10 -4 10 -10z"/>
<path d="M2038 1813 c7 -3 16 -2 19 1 4 3 -2 6 -13 5 -11 0 -14 -3 -6 -6z"/>
</g>
</svg>
