<?xml version="1.0" standalone="no"?>
<!DOCTYPE svg PUBLIC "-//W3C//DTD SVG 20010904//EN"
 "http://www.w3.org/TR/2001/REC-SVG-20010904/DTD/svg10.dtd">
<svg version="1.0" xmlns="http://www.w3.org/2000/svg"
 width="593.000000pt" height="613.000000pt" viewBox="0 0 593.000000 613.000000"
 preserveAspectRatio="xMidYMid meet">

<g transform="translate(0.000000,613.000000) scale(0.100000,-0.100000)"
fill="#000000" stroke="none">
<path d="M2321 6103 c-96 -7 -177 -16 -180 -18 -15 -15 28 -15 199 -1 133 12
290 16 507 16 173 -1 317 0 319 3 21 20 -592 21 -845 0z"/>
<path d="M1995 6053 c-56 -14 -236 -188 -303 -292 -75 -117 -103 -282 -103
-609 l0 -224 -67 7 c-37 4 -80 13 -96 21 -33 16 -39 13 -41 -18 -2 -25 -20
-30 -235 -67 -141 -24 -141 -35 5 -102 61 -27 131 -60 157 -72 l46 -22 -84
-99 c-91 -108 -105 -143 -54 -132 17 3 66 9 110 12 63 5 80 4 80 -6 0 -7 -18
-45 -39 -85 -25 -45 -37 -76 -31 -85 6 -10 33 -12 119 -8 61 3 111 4 111 2 0
-2 -9 -18 -20 -36 -11 -18 -20 -41 -20 -52 0 -16 6 -17 71 -11 l70 7 -30 -61
c-36 -70 -39 -96 -12 -111 11 -5 79 -10 151 -10 l130 0 11 -27 c13 -33 6 -171
-10 -225 l-11 -36 -103 -6 c-56 -3 -174 -8 -262 -11 -88 -3 -209 -8 -270 -12
-151 -9 -724 -10 -757 0 -26 7 -35 21 -42 72 -4 31 22 142 45 188 12 23 45 74
75 113 30 39 54 78 54 87 0 23 -39 47 -77 47 -32 0 -32 0 -17 28 34 66 3 112
-75 112 -35 0 -58 -7 -85 -25 -43 -29 -46 -30 -46 -12 0 8 -9 22 -20 32 -58
52 -162 -43 -200 -185 -7 -24 -21 -51 -32 -59 -32 -22 -48 -74 -48 -153 0
-114 26 -233 68 -313 35 -66 41 -72 109 -108 101 -53 181 -60 425 -39 103 9
191 13 194 9 7 -7 -21 -136 -32 -146 -3 -3 -12 3 -20 14 -42 63 -42 62 -52 35
-14 -38 4 -146 37 -217 19 -39 53 -86 98 -131 56 -57 86 -78 173 -119 125 -60
254 -105 368 -129 45 -10 82 -20 82 -23 0 -3 -20 -17 -45 -30 -24 -13 -62 -38
-83 -57 -33 -28 -50 -34 -106 -40 -36 -4 -66 -9 -66 -12 0 -4 17 -23 37 -44
l37 -38 -18 -48 c-23 -61 -32 -211 -17 -281 6 -29 20 -66 31 -81 17 -23 19
-38 14 -88 -10 -88 1 -127 48 -178 23 -24 39 -46 37 -48 -5 -4 -193 -61 -232
-70 -30 -7 -36 -32 -9 -40 9 -2 44 -10 77 -17 103 -20 247 -59 278 -74 16 -8
33 -12 37 -10 10 6 17 -15 25 -70 3 -22 11 -67 16 -100 6 -33 7 -61 2 -62 -21
-8 -75 -45 -70 -49 3 -3 19 2 37 11 35 18 59 14 85 -15 16 -17 16 -24 6 -48
-10 -22 -6 -19 23 14 70 82 123 81 177 -3 17 -27 28 -38 25 -27 -5 16 0 26 21
39 26 17 27 17 45 -5 13 -16 17 -32 13 -49 -5 -23 -3 -22 26 12 17 21 43 43
56 48 37 14 98 -6 142 -47 49 -43 65 -45 23 -1 -23 24 -32 44 -35 77 -2 25
-12 62 -21 84 -9 21 -16 43 -16 48 0 9 86 5 150 -7 8 -1 51 -6 95 -11 44 -4
83 -8 88 -10 4 -1 36 -2 71 -3 l64 -1 -14 -52 c-8 -29 -16 -68 -18 -86 -2 -19
-6 -35 -8 -37 -2 -3 -26 2 -53 11 -30 9 -62 12 -80 7 -29 -6 -28 -7 16 -14 66
-10 110 -34 137 -72 12 -18 22 -36 22 -40 0 -3 -22 -3 -50 0 -31 3 -50 2 -50
-4 0 -6 27 -13 60 -16 65 -7 105 -23 134 -55 23 -26 15 -38 -30 -47 -69 -12
-277 -135 -375 -219 -127 -110 -158 -135 -208 -170 -31 -22 -78 -56 -106 -76
-27 -20 -59 -40 -69 -44 -14 -5 -16 -10 -8 -18 10 -10 102 -1 187 18 11 2 101
11 200 20 99 8 203 17 230 19 28 3 76 7 108 10 l57 5 -14 -28 c-8 -15 -23 -36
-35 -46 -12 -11 -21 -24 -21 -31 0 -6 -70 -99 -155 -206 -167 -208 -170 -216
-71 -185 128 40 187 56 261 71 110 24 318 94 516 175 358 147 483 217 615 342
76 74 99 102 138 178 33 66 46 103 46 133 0 42 0 42 48 54 45 11 48 10 69 -16
64 -80 237 -178 378 -214 101 -26 186 -45 275 -61 47 -9 99 -18 115 -21 17 -3
113 -17 215 -31 102 -13 248 -33 325 -44 77 -10 187 -24 245 -30 86 -10 216
-37 313 -66 9 -3 17 -1 17 4 0 5 -45 33 -101 63 -118 63 -226 151 -467 380
-204 193 -359 317 -460 366 l-74 35 89 92 c80 84 246 279 266 313 11 18 -1 37
-16 25 -19 -15 -253 -51 -377 -57 -63 -4 -143 -13 -177 -22 -35 -8 -68 -13
-75 -11 -6 2 -19 26 -28 54 -29 83 -85 207 -115 254 -33 53 -349 376 -405 415
-48 33 -52 43 -35 91 18 50 19 107 3 102 -7 -2 -39 -12 -70 -22 l-56 -19 -49
40 c-26 22 -74 59 -105 82 -32 23 -58 45 -58 50 0 4 28 11 63 14 172 17 465
136 861 348 198 107 245 135 405 242 160 107 315 183 466 228 61 18 114 36
120 41 14 13 -14 28 -52 28 -77 0 -33 29 165 110 45 19 81 39 79 44 -2 6 -22
11 -45 13 -37 2 -115 18 -284 56 -27 6 -48 14 -48 17 0 3 35 15 78 26 45 12
77 26 77 33 0 15 -78 47 -150 62 -27 5 -103 28 -167 51 -113 40 -117 42 -112
67 6 29 -7 37 -461 256 -110 54 -245 122 -300 153 -55 30 -134 74 -175 97
-140 79 -475 244 -563 280 -116 45 -267 88 -391 110 -131 24 -411 16 -531 -14
-111 -27 -216 -66 -307 -113 -72 -37 -78 -39 -105 -25 -15 8 -44 18 -63 22
-19 4 -42 13 -50 20 -8 7 -34 18 -56 24 -23 6 -45 19 -48 28 -4 9 -19 125 -33
257 -23 213 -25 252 -15 341 17 157 29 202 84 318 45 94 50 109 37 122 -16 17
-64 26 -94 18z m55 -45 c0 -6 -18 -48 -40 -93 -58 -118 -83 -240 -83 -400 0
-120 21 -347 43 -461 5 -27 16 -87 24 -134 13 -72 20 -89 46 -112 17 -16 37
-28 45 -28 18 0 19 -12 4 -27 -18 -18 -12 -80 11 -119 25 -39 103 -105 159
-134 93 -47 185 -66 373 -79 77 -6 126 -14 141 -24 35 -23 102 -169 122 -267
24 -116 24 -360 0 -495 -33 -186 -122 -354 -276 -518 -88 -95 -161 -150 -269
-204 -165 -82 -318 -112 -615 -120 -123 -3 -167 0 -245 16 -65 14 -78 19 -42
15 103 -10 283 -4 375 11 161 27 244 57 372 135 28 17 61 35 73 40 43 18 137
97 193 161 214 244 311 550 249 788 -43 167 -121 281 -251 366 -60 39 -161 79
-299 118 -422 121 -597 218 -719 399 -38 57 -41 83 -8 72 12 -4 50 -10 85 -14
66 -6 82 -18 82 -56 0 -33 12 -84 19 -84 3 0 6 141 6 313 1 511 34 629 232
825 46 46 98 92 116 102 36 22 77 26 77 8z m1180 -1003 c169 -36 290 -86 423
-173 54 -35 97 -66 95 -68 -2 -1 -37 5 -78 16 -181 46 -339 48 -553 9 -132
-24 -232 -62 -326 -122 l-71 -47 -68 68 c-84 85 -158 123 -257 130 -67 4 -95
14 -95 33 0 15 150 85 250 117 86 27 160 44 245 56 69 10 363 -3 435 -19z
m-1151 -75 c20 -10 51 -78 51 -110 0 -24 -20 -26 -59 -5 -30 15 -41 39 -41 93
0 34 15 41 49 22z m163 -77 l41 -38 -64 -6 c-35 -4 -65 -6 -65 -5 -1 0 -4 20
-7 44 -5 41 -4 42 24 42 19 0 43 -12 71 -37z m-824 -27 c18 -24 32 -48 32 -53
0 -5 -15 -23 -33 -41 -32 -32 -32 -32 -62 -14 -17 10 -46 24 -65 31 -80 31
-150 64 -150 72 0 4 26 13 58 19 31 6 73 15 92 19 76 19 94 14 128 -33z m2339
-21 c0 -9 -13 -4 -36 13 -57 41 -59 45 -10 22 25 -12 46 -28 46 -35z m-1241
-46 c83 -39 160 -124 215 -234 23 -47 40 -87 38 -89 -9 -8 -159 7 -159 16 0 6
-14 39 -30 74 -35 73 -111 160 -193 220 -43 32 -53 44 -40 47 35 9 109 -6 169
-34z m-198 5 c84 -42 191 -149 237 -238 21 -41 37 -77 34 -80 -8 -7 -189 22
-239 39 -82 27 -194 107 -225 159 -38 65 -32 95 25 124 58 29 104 28 168 -4z
m1312 -33 c156 -58 503 -250 727 -403 23 -15 44 -28 47 -28 3 0 43 -25 88 -56
46 -31 113 -74 151 -95 63 -38 88 -60 50 -44 -16 6 -105 33 -408 121 -49 15
-151 46 -225 70 -171 55 -318 90 -444 105 -114 14 -380 7 -466 -11 -71 -16
-175 -63 -222 -101 l-37 -30 -36 71 c-19 38 -39 70 -44 70 -5 0 -12 15 -15 33
-3 17 -17 55 -30 84 l-25 52 39 31 c143 114 371 173 635 166 116 -4 139 -7
215 -35z m212 32 c-10 -4 -10 -8 0 -21 12 -15 11 -16 -4 -3 -19 14 -15 32 5
30 8 0 8 -2 -1 -6z m-2207 -145 c33 -20 77 -44 98 -54 20 -10 37 -21 37 -25 0
-13 -54 -21 -200 -29 -80 -5 -182 -12 -227 -16 -48 -4 -83 -3 -83 2 0 5 30 44
68 86 37 42 84 97 106 123 l38 46 52 -49 c28 -26 78 -64 111 -84z m2332 77 c0
-8 -4 -15 -9 -15 -10 0 -11 14 -1 23 9 10 10 9 10 -8z m102 -42 c8 -6 -69 6
-79 12 -5 3 -7 12 -4 20 5 11 13 9 42 -8 20 -11 39 -22 41 -24z m-221 21 c12
-8 22 -12 22 -8 0 4 8 0 18 -9 10 -10 22 -14 25 -10 4 3 7 1 7 -6 0 -7 5 -9
10 -6 6 3 10 2 10 -4 0 -6 16 -18 35 -27 20 -9 34 -19 31 -21 -2 -3 -39 15
-83 38 -91 50 -121 69 -107 69 5 0 20 -7 32 -16z m370 -101 c37 -21 76 -42 86
-48 11 -5 22 -17 24 -25 4 -12 2 -13 -9 -4 -8 7 -54 35 -104 63 -49 28 -83 51
-76 51 7 0 43 -17 79 -37z m-148 -15 c0 -11 -22 -10 -40 2 -11 8 -9 9 13 8 15
-1 27 -6 27 -10z m-2151 -70 c47 -16 126 -40 175 -54 143 -39 276 -85 276 -94
0 -16 -17 -20 -162 -40 -78 -11 -186 -27 -238 -35 -52 -9 -144 -22 -205 -31
-60 -8 -126 -17 -147 -21 -21 -3 -38 -2 -38 2 0 8 33 63 99 163 57 88 121 154
141 146 8 -3 53 -19 99 -36z m2315 14 c3 -5 -1 -9 -9 -9 -8 0 -15 4 -15 9 0 4
4 8 9 8 6 0 12 -4 15 -8z m-2570 -96 c-55 -80 -59 -84 -102 -90 -53 -7 -172
-8 -172 -1 0 2 17 38 37 79 l37 75 85 6 c47 3 97 7 111 9 63 8 63 9 4 -78z
m2511 74 c3 -6 -1 -7 -9 -4 -18 7 -21 14 -7 14 6 0 13 -4 16 -10z m229 -16 c3
-8 17 -14 30 -14 18 0 24 -4 20 -15 -5 -12 -12 -10 -42 9 -20 12 -38 28 -40
34 -5 17 25 4 32 -14z m-99 -12 c-3 -3 -11 0 -18 7 -9 10 -8 11 6 5 10 -3 15
-9 12 -12z m-51 -18 c6 -15 4 -15 -11 -3 -10 7 -20 15 -22 16 -2 2 3 3 11 3 9
0 19 -7 22 -16z m96 -4 c0 -5 -2 -10 -4 -10 -3 0 -8 5 -11 10 -3 6 -1 10 4 10
6 0 11 -4 11 -10z m-20 -38 c0 -12 -3 -12 -17 -1 -10 7 -20 14 -22 16 -2 1 6
1 18 0 11 -1 21 -8 21 -15z m-780 -36 c112 -6 261 -61 530 -193 129 -63 271
-130 315 -148 44 -18 125 -54 180 -80 231 -109 299 -135 354 -135 34 -1 35 -2
16 -16 -11 -8 -47 -33 -80 -54 -33 -22 -110 -79 -170 -127 -164 -130 -253
-187 -409 -263 -272 -133 -361 -155 -600 -147 -194 6 -284 22 -469 86 -119 41
-216 89 -294 145 -33 24 -42 36 -37 51 39 133 46 187 50 385 2 153 -1 224 -12
280 l-15 75 33 27 c43 36 139 82 203 97 60 14 222 28 285 24 25 -1 79 -4 120
-7z m834 2 c-3 -4 -11 -5 -19 -1 -21 7 -19 12 4 10 11 0 18 -5 15 -9z m131
-26 c-3 -3 -11 0 -18 7 -9 10 -8 11 6 5 10 -3 15 -9 12 -12z m-1946 -144 c52
-64 78 -113 102 -191 15 -51 16 -59 3 -64 -9 -3 -88 -1 -177 6 -89 6 -188 11
-219 11 l-56 0 58 130 c32 71 73 156 90 189 l32 59 61 -43 c34 -24 82 -67 106
-97z m1876 132 c3 -5 1 -10 -4 -10 -6 0 -11 5 -11 10 0 6 2 10 4 10 3 0 8 -4
11 -10z m219 1 c3 -4 -6 -6 -19 -3 -14 2 -25 6 -25 8 0 8 39 4 44 -5z m91 -21
c19 -8 19 -9 -2 -9 -12 -1 -25 4 -28 9 -7 12 2 12 30 0z m-819 -21 c8 -14 -10
-11 -32 6 -18 13 -18 14 4 8 12 -3 25 -9 28 -14z m869 -10 c-8 -12 30 -30 41
-19 6 6 10 3 10 -8 0 -18 -3 -18 -36 -3 -21 8 -36 22 -36 32 0 9 6 15 13 12 7
-3 11 -9 8 -14z m-140 -9 c3 -5 1 -10 -4 -10 -6 0 -11 5 -11 10 0 6 2 10 4 10
3 0 8 -4 11 -10z m-628 -6 c-3 -3 -12 -4 -19 -1 -8 3 -5 6 6 6 11 1 17 -2 13
-5z m31 -29 c-3 -28 -11 -24 -13 5 -1 11 2 20 7 20 4 0 7 -11 6 -25z m503 8
c13 -15 12 -15 -8 -4 -24 12 -29 21 -14 21 5 0 15 -7 22 -17z m-420 -21 c-7
-2 -18 1 -23 6 -8 8 -4 9 13 5 13 -4 18 -8 10 -11z m786 -6 c0 -8 -8 -11 -21
-8 -19 5 -19 6 0 13 10 4 19 8 20 8 0 1 1 -5 1 -13z m-3061 -91 c14 -37 22
-70 18 -74 -8 -8 -233 -5 -241 3 -4 3 8 38 27 76 33 68 34 69 79 75 25 4 51 8
56 10 18 5 36 -21 61 -90z m2778 69 c5 -12 0 -12 -24 1 -36 19 -38 24 -6 18
14 -3 27 -11 30 -19z m366 -16 c0 -11 -7 -10 -31 2 -28 16 -23 32 6 18 14 -6
25 -15 25 -20z m-314 -20 l19 -21 -27 18 c-29 18 -34 25 -20 25 5 0 17 -10 28
-22z m-461 -28 c3 -6 -1 -7 -9 -4 -18 7 -21 14 -7 14 6 0 13 -4 16 -10z m555
-42 c0 -6 -6 -5 -15 2 -8 7 -15 14 -15 16 0 2 7 1 15 -2 8 -4 15 -11 15 -16z
m-465 2 c-3 -5 -12 -7 -20 -3 -21 7 -19 13 6 13 11 0 18 -4 14 -10z m295 -10
c0 -5 -5 -10 -11 -10 -5 0 -7 5 -4 10 3 6 8 10 11 10 2 0 4 -4 4 -10z m200 0
c0 -5 -5 -10 -11 -10 -5 0 -7 5 -4 10 3 6 8 10 11 10 2 0 4 -4 4 -10z m417
-46 c-3 -3 -12 -4 -19 -1 -8 3 -5 6 6 6 11 1 17 -2 13 -5z m-722 -32 c-3 -3
-11 0 -18 7 -9 10 -8 11 6 5 10 -3 15 -9 12 -12z m840 -11 c-1 -8 -8 -17 -16
-19 -11 -3 -11 -1 1 7 10 7 11 11 3 11 -7 0 -13 4 -13 8 0 5 6 9 14 9 7 0 13
-7 11 -16z m-441 1 c2 -4 -5 -9 -17 -9 -17 -2 -19 0 -7 7 18 12 18 12 24 2z
m486 4 c0 -11 -19 -15 -25 -6 -3 5 1 10 9 10 9 0 16 -2 16 -4z m-720 -65 c0
-5 -9 -7 -20 -4 -11 3 -20 7 -20 9 0 2 9 4 20 4 11 0 20 -4 20 -9z m-1993
-139 c-6 -125 -44 -282 -68 -282 -11 0 -149 120 -149 130 0 5 25 39 56 77 31
37 76 94 101 126 26 31 51 57 56 57 6 0 8 -40 4 -108z m2650 92 c-3 -3 -12 -4
-19 -1 -8 3 -5 6 6 6 11 1 17 -2 13 -5z m262 -60 c10 -9 -45 -3 -59 6 -11 7
-5 8 20 4 19 -4 37 -8 39 -10z m-604 -34 c-3 -5 -12 -10 -18 -10 -7 0 -6 4 3
10 19 12 23 12 15 0z m-131 -78 c3 -5 -1 -9 -9 -9 -8 0 -12 4 -9 9 3 4 7 8 9
8 2 0 6 -4 9 -8z m286 -56 c0 -2 -7 -6 -15 -10 -8 -3 -15 -1 -15 4 0 6 7 10
15 10 8 0 15 -2 15 -4z m-390 -26 c0 -5 -8 -10 -17 -10 -15 0 -16 2 -3 10 19
12 20 12 20 0z m300 -14 c0 -2 -7 -7 -16 -10 -8 -3 -12 -2 -9 4 6 10 25 14 25
6z m126 -11 c-1 -8 -5 -17 -8 -21 -5 -4 -4 16 1 34 3 9 9 -1 7 -13z m-26 -20
c0 -9 -6 -12 -17 -8 -10 4 -14 2 -10 -4 4 -6 0 -13 -8 -16 -10 -4 -12 -1 -8
11 11 30 43 43 43 17z m-497 -30 c-3 -9 -8 -13 -11 -10 -3 3 -18 -7 -34 -22
-15 -14 -30 -24 -33 -22 -4 4 73 69 82 69 1 0 0 -7 -4 -15z m412 5 c-3 -5 -12
-10 -18 -10 -7 0 -6 4 3 10 19 12 23 12 15 0z m-29 -21 c3 -6 1 -16 -5 -22 -9
-9 -10 -7 -5 7 5 13 4 17 -4 12 -7 -4 -12 -2 -12 3 0 14 17 14 26 0z m39 1
c-3 -5 -12 -10 -18 -10 -7 0 -6 4 3 10 19 12 23 12 15 0z m-3265 -3 c0 -2 -18
-18 -41 -36 l-41 -33 -29 28 c-16 15 -29 31 -29 36 0 4 32 8 70 8 39 0 70 -1
70 -3z m3060 -2 c0 -7 -30 -13 -34 -7 -3 4 4 9 15 9 10 1 19 0 19 -2z m-3200
-51 c35 -38 40 -48 29 -59 -16 -14 -172 -106 -175 -102 -4 4 16 121 27 165 11
38 14 42 44 42 26 0 41 -10 75 -46z m-145 17 c-7 -22 -9 -36 -20 -114 -10 -76
-20 -75 -187 32 -50 33 -95 58 -99 56 -4 -3 -32 -52 -64 -110 -32 -58 -61
-105 -66 -105 -8 0 -22 44 -35 108 -8 41 -18 40 -46 -3 -13 -19 -26 -35 -29
-35 -9 0 -110 153 -104 159 3 3 86 9 183 13 97 4 202 9 232 10 30 2 97 4 148
6 91 3 94 3 87 -17z m3485 5 c0 -2 -8 -10 -17 -17 -16 -13 -17 -12 -4 4 13 16
21 21 21 13z m-220 -10 c0 -2 -9 -6 -20 -9 -11 -3 -20 -1 -20 4 0 5 9 9 20 9
11 0 20 -2 20 -4z m-247 -21 c-3 -9 -8 -14 -10 -11 -3 3 -2 9 2 15 9 16 15 13
8 -4z m147 -19 c0 -2 -7 -7 -16 -10 -8 -3 -12 -2 -9 4 6 10 25 14 25 6z m250
-2 c0 -8 -19 -13 -24 -6 -3 5 1 9 9 9 8 0 15 -2 15 -3z m-4040 -74 c22 -33 43
-66 46 -75 6 -16 -35 -125 -47 -125 -10 0 -89 100 -89 113 0 15 40 147 45 147
2 0 23 -27 45 -60z m3584 52 c2 -4 -5 -9 -17 -9 -17 -2 -19 0 -7 7 18 12 18
12 24 2z m306 0 c0 -4 -9 -8 -19 -8 -11 0 -17 4 -15 8 3 4 12 8 20 8 8 0 14
-4 14 -8z m-3481 -46 c38 -25 88 -54 111 -66 47 -24 45 -29 -22 -58 -41 -18
-48 -19 -59 -6 -11 13 -15 12 -33 -9 -15 -18 -42 -29 -101 -42 -44 -9 -86 -18
-92 -21 -24 -7 -13 24 38 113 28 48 55 98 60 111 5 12 13 22 19 22 5 0 41 -20
79 -44z m1684 -57 c79 -47 273 -117 413 -150 86 -20 126 -23 299 -24 157 0
218 4 285 18 132 29 338 85 409 112 36 14 66 23 68 21 8 -8 -249 -171 -437
-276 -200 -111 -380 -180 -470 -180 -53 0 -55 1 -260 152 -112 82 -380 228
-487 266 l-52 18 29 44 c16 25 34 57 41 72 l11 27 41 -31 c23 -16 72 -48 110
-69z m1596 80 c-17 -11 -39 -12 -39 -1 0 4 12 8 27 9 19 1 22 -1 12 -8z m-165
-14 c-4 -8 -11 -12 -16 -9 -6 4 -5 10 3 15 19 12 19 11 13 -6z m246 -9 c0 -2
-7 -7 -16 -10 -8 -3 -12 -2 -9 4 6 10 25 14 25 6z m-161 -10 c-12 -10 -69 -24
-69 -16 0 5 10 11 23 13 31 6 51 8 46 3z m311 -6 c-8 -5 -19 -10 -25 -10 -5 0
-3 5 5 10 8 5 20 10 25 10 6 0 3 -5 -5 -10z m-470 -20 c0 -5 -7 -10 -16 -10
-8 0 -12 5 -9 10 3 6 10 10 16 10 5 0 9 -4 9 -10z m409 -13 c-2 -1 -13 -9 -24
-17 -19 -14 -19 -14 -6 3 7 9 18 17 24 17 6 0 8 -1 6 -3z m-3713 -101 c8 -64
26 -118 75 -225 22 -46 38 -86 36 -87 -2 -2 -25 3 -52 10 -48 13 -125 53 -184
97 l-29 21 15 52 c16 55 51 127 91 191 24 38 25 39 34 16 4 -13 11 -46 14 -75z
m-226 -13 c25 -32 50 -64 57 -71 10 -11 3 -65 -10 -79 -8 -7 -76 93 -96 139
-10 23 -21 59 -25 78 -7 40 -12 45 74 -67z m3452 75 c-8 -8 -111 -38 -126 -37
-21 1 86 44 109 44 13 0 21 -3 17 -7z m418 -2 c0 -2 -7 -7 -16 -10 -8 -3 -12
-2 -9 4 6 10 25 14 25 6z m-191 -9 c-2 -1 -13 -9 -24 -17 -19 -14 -19 -14 -6
3 7 9 18 17 24 17 6 0 8 -1 6 -3z m145 -11 c-3 -8 -12 -17 -20 -20 -11 -4 -12
-2 -1 14 14 23 29 27 21 6z m-206 -35 c-7 -11 -21 -22 -33 -25 -15 -4 -13 0
10 19 36 30 39 31 23 6z m-1618 -17 c0 -2 -7 -4 -15 -4 -8 0 -15 4 -15 10 0 5
7 7 15 4 8 -4 15 -8 15 -10z m1730 1 c0 -2 -9 -9 -20 -15 -12 -6 -20 -7 -20
-1 0 5 8 12 18 14 9 3 18 5 20 6 1 0 2 -1 2 -4z m-3087 -205 c33 -47 76 -102
96 -122 19 -21 33 -39 30 -42 -17 -15 -349 33 -373 54 -8 8 40 141 94 264 l22
48 35 -58 c19 -32 63 -97 96 -144z m696 113 c39 -43 71 -80 71 -83 -1 -7 -142
-90 -181 -107 l-31 -13 7 60 c4 34 16 89 26 123 10 34 19 70 19 80 0 30 17 19
89 -60z m-248 -103 c60 -91 67 -107 53 -117 -23 -17 -315 -68 -327 -57 -3 3
11 40 30 82 19 42 41 93 48 112 7 19 25 62 41 94 l27 60 30 -35 c16 -19 60
-81 98 -139z m2342 95 c-3 -9 -8 -14 -10 -11 -3 3 -2 9 2 15 9 16 15 13 8 -4z
m136 12 c-2 -1 -12 -9 -21 -16 -15 -12 -18 -11 -18 3 0 10 8 16 22 16 12 0 19
-1 17 -3z m-159 -26 c0 -5 -10 -11 -22 -14 -22 -6 -22 -6 -4 8 23 17 26 18 26
6z m-1580 -66 c0 -12 -19 -12 -23 0 -4 9 -1 12 9 8 7 -3 14 -7 14 -8z m1450
-15 c-24 -15 -36 -11 -14 4 10 8 21 12 24 10 2 -3 -2 -9 -10 -14z m-45 -19
c-3 -6 1 -14 10 -18 12 -7 8 -11 -15 -20 -20 -8 -28 -8 -24 -1 5 7 -3 9 -22 5
-27 -5 -27 -4 -9 9 22 16 35 18 35 4 0 -5 5 -10 11 -10 6 0 9 6 6 14 -3 8 -3
17 0 20 10 9 15 7 8 -3z m-890 -21 c3 -5 1 -10 -4 -10 -6 0 -11 5 -11 10 0 6
2 10 4 10 3 0 8 -4 11 -10z m802 -33 c0 -7 -12 -14 -26 -15 l-26 -1 25 14 c14
8 25 14 26 15 0 0 1 -6 1 -13z m-101 -55 c-3 -5 -18 -12 -33 -15 -16 -3 -37
-8 -48 -12 -11 -3 3 5 30 18 50 24 62 26 51 9z m-1054 -17 c-2 -6 -9 -8 -15
-6 -7 2 -18 4 -24 4 -7 0 -13 4 -13 8 0 4 12 7 28 6 15 -1 25 -7 24 -12z
m-502 -15 c0 -5 -8 -10 -17 -10 -15 0 -16 2 -3 10 19 12 20 12 20 0z m33 -57
c-7 -2 -21 -2 -30 0 -10 3 -4 5 12 5 17 0 24 -2 18 -5z m-427 -48 c-19 -15
-46 -20 -46 -10 0 6 40 24 55 24 6 0 1 -6 -9 -14z m1151 0 c9 -25 -4 -29 -17
-6 -7 15 -7 21 0 21 6 0 13 -7 17 -15z m-102 -5 c3 -6 -1 -7 -9 -4 -18 7 -21
14 -7 14 6 0 13 -4 16 -10z m-1145 -8 c0 -4 -9 -13 -19 -19 -18 -11 -21 -5
-12 25 2 6 31 1 31 -6z m492 -134 c3 -92 0 -146 -6 -150 -24 -16 -447 -95
-563 -105 l-76 -6 7 29 c12 47 56 103 126 159 149 119 307 187 501 214 4 1 9
-63 11 -141z m-735 126 c-3 -3 -12 -4 -19 -1 -8 3 -5 6 6 6 11 1 17 -2 13 -5z
m273 -14 c0 -5 -4 -10 -10 -10 -5 0 -10 5 -10 10 0 6 5 10 10 10 6 0 10 -4 10
-10z m624 -111 c31 -33 56 -64 56 -68 0 -5 -26 -20 -57 -34 l-58 -26 -7 22
c-9 34 -9 167 1 167 5 0 34 -27 65 -61z m-1124 -9 c0 -21 -31 -70 -43 -70 -21
0 -81 67 -65 73 24 10 108 7 108 -3z m2530 -74 c-11 -25 -25 -46 -31 -46 -13
0 -79 64 -79 77 0 4 28 17 63 29 58 19 62 20 65 3 2 -10 -6 -38 -18 -63z
m-1140 36 c0 -5 -7 -9 -15 -9 -8 0 -12 4 -9 9 3 4 9 8 15 8 5 0 9 -4 9 -8z
m-1363 -24 c-3 -8 -6 -5 -6 6 -1 11 2 17 5 13 3 -3 4 -12 1 -19z m1867 7 c3
-8 1 -15 -4 -15 -6 0 -10 7 -10 15 0 8 2 15 4 15 2 0 6 -7 10 -15z m91 -93
c-3 -3 -11 0 -18 7 -9 10 -8 11 6 5 10 -3 15 -9 12 -12z m-694 -76 c24 -47 41
-87 38 -90 -10 -10 -163 44 -191 67 -43 36 -39 47 32 77 36 15 68 28 72 29 3
1 26 -37 49 -83z m733 46 c3 -5 -1 -9 -9 -9 -8 0 -12 4 -9 9 3 4 7 8 9 8 2 0
6 -4 9 -8z m30 -30 c3 -5 -1 -9 -9 -9 -8 0 -12 4 -9 9 3 4 7 8 9 8 2 0 6 -4 9
-8z m351 -42 c10 -11 14 -20 9 -20 -5 0 -15 9 -22 20 -7 11 -11 20 -9 20 2 0
12 -9 22 -20z m-1380 -30 c15 -21 37 -45 49 -53 24 -16 192 -73 251 -85 l40
-8 -3 -70 c-1 -38 -6 -82 -10 -99 l-9 -30 -84 5 c-272 16 -490 2 -698 -46 -35
-8 -65 -14 -67 -12 -1 2 -16 31 -33 65 -17 34 -56 101 -86 150 l-56 88 28 7
c31 7 249 49 413 79 58 11 128 25 155 33 74 21 80 20 110 -24z m698 -10 c3
-11 1 -18 -4 -14 -5 3 -9 12 -9 20 0 20 7 17 13 -6z m467 -56 c0 -2 -7 -4 -15
-4 -8 0 -15 4 -15 10 0 5 7 7 15 4 8 -4 15 -8 15 -10z m280 12 c0 -3 -4 -8
-10 -11 -5 -3 -10 -1 -10 4 0 6 5 11 10 11 6 0 10 -2 10 -4z m30 -41 c10 -12
10 -15 -4 -15 -9 0 -16 7 -16 15 0 8 2 15 4 15 2 0 9 -7 16 -15z m-135 -150
c101 -129 191 -284 231 -397 l13 -37 -60 -7 c-66 -7 -135 -46 -172 -96 -19
-26 -22 -27 -29 -11 -3 10 -7 37 -7 60 -1 32 4 45 19 53 32 17 89 110 101 166
10 43 9 59 -2 86 -19 47 -82 112 -128 133 -41 18 -44 24 -57 110 -7 47 -6 49
11 35 9 -8 45 -51 80 -95z m-2285 65 c0 -5 -5 -10 -11 -10 -5 0 -7 5 -4 10 3
6 8 10 11 10 2 0 4 -4 4 -10z m2495 0 c3 -5 1 -10 -4 -10 -6 0 -11 5 -11 10 0
6 2 10 4 10 3 0 8 -4 11 -10z m-588 -6 c-3 -3 -12 -4 -19 -1 -8 3 -5 6 6 6 11
1 17 -2 13 -5z m100 -10 c-3 -3 -12 -4 -19 -1 -8 3 -5 6 6 6 11 1 17 -2 13 -5z
m313 -4 c0 -5 -2 -10 -4 -10 -3 0 -8 5 -11 10 -3 6 -1 10 4 10 6 0 11 -4 11
-10z m-175 -40 c3 -5 1 -10 -4 -10 -6 0 -11 5 -11 10 0 6 2 10 4 10 3 0 8 -4
11 -10z m387 -70 c-2 -22 -6 -40 -8 -40 -2 0 -4 18 -4 40 0 22 3 40 8 40 4 0
6 -18 4 -40z m80 18 c29 -23 24 -45 -16 -77 -22 -17 -40 -30 -41 -29 -1 2 0
29 2 61 6 60 20 72 55 45z m-722 -28 c0 -5 -4 -10 -10 -10 -5 0 -10 5 -10 10
0 6 5 10 10 10 6 0 10 -4 10 -10z m-1835 -10 c3 -5 1 -10 -4 -10 -6 0 -11 5
-11 10 0 6 2 10 4 10 3 0 8 -4 11 -10z m2059 -35 c-4 -8 -11 -12 -16 -9 -6 4
-5 10 3 15 19 12 19 11 13 -6z m-889 -23 c11 -6 16 -12 10 -13 -90 -12 -140
-26 -143 -39 -1 -9 23 -32 63 -58 67 -45 70 -48 56 -70 -6 -11 -25 -10 -102 2
-183 28 -266 36 -449 42 -102 4 -188 9 -191 13 -11 12 -32 72 -26 77 8 8 194
44 277 54 109 12 480 7 505 -8z m-1231 -18 c5 -14 4 -15 -9 -4 -17 14 -19 20
-6 20 5 0 12 -7 15 -16z m2653 -16 c-3 -7 -5 -2 -5 12 0 14 2 19 5 13 2 -7 2
-19 0 -25z m-450 0 c-3 -8 -6 -5 -6 6 -1 11 2 17 5 13 3 -3 4 -12 1 -19z m316
7 c-3 -9 -8 -14 -10 -11 -3 3 -2 9 2 15 9 16 15 13 8 -4z m-1093 -56 c0 -53
-22 -119 -40 -119 -14 0 -200 122 -200 132 0 3 33 12 73 18 39 7 90 16 112 19
22 4 43 6 48 4 4 -2 7 -27 7 -54z m866 -5 c7 -26 0 -60 -15 -84 -15 -22 -18
-12 -24 75 l-6 80 20 -24 c10 -13 22 -34 25 -47z m-2266 16 c0 -5 -4 -10 -10
-10 -5 0 -10 5 -10 10 0 6 5 10 10 10 6 0 10 -4 10 -10z m2500 -42 c0 -36 -4
-35 -14 5 -4 16 -2 27 4 27 5 0 10 -14 10 -32z m-2520 -38 c0 -5 -17 -9 -37
-9 -38 1 -38 1 -8 9 43 11 45 11 45 0z m765 -10 c131 -10 347 -40 407 -57 26
-8 26 -8 11 -48 -8 -22 -26 -72 -40 -112 -25 -72 -26 -72 -67 -78 -42 -6 -75
-4 -231 15 -49 5 -120 14 -157 18 -58 7 -72 13 -111 47 -34 31 -47 51 -56 88
-6 26 -18 64 -26 83 -8 20 -15 40 -15 45 0 12 113 11 285 -1z m1959 -26 c3 -8
2 -12 -4 -9 -6 3 -10 10 -10 16 0 14 7 11 14 -7z m886 12 c0 -16 -284 -113
-360 -122 -19 -3 -59 -10 -88 -15 -30 -6 -55 -9 -56 -7 -11 13 -25 73 -19 78
14 12 137 30 278 40 77 6 156 15 175 20 40 9 70 12 70 6z m-3573 -56 c12 -28
19 -50 15 -50 -4 0 -61 14 -127 30 -66 16 -129 30 -140 31 -34 1 33 19 110 28
123 15 117 16 142 -39z m3517 -52 c-86 -106 -128 -150 -186 -199 -46 -39 -47
-40 -81 -26 -19 8 -53 18 -76 22 -37 6 -44 12 -66 56 -14 26 -25 55 -25 63 0
16 34 28 126 45 73 15 284 80 324 102 19 10 39 18 43 19 5 0 -22 -37 -59 -82z
m-1597 5 c-3 -10 -5 -4 -5 12 0 17 2 24 5 18 2 -7 2 -21 0 -30z m-1668 -182
c1 -52 -1 -92 -4 -89 -3 3 -6 56 -8 118 -1 62 1 102 4 89 4 -13 7 -66 8 -118z
m2260 98 c17 -48 14 -79 -6 -79 -31 0 -171 -89 -205 -129 l-33 -40 -10 52
c-10 48 -9 57 16 108 39 80 95 114 191 118 32 1 37 -2 47 -30z m-334 -8 c3 -5
2 -12 -3 -15 -5 -3 -9 1 -9 9 0 17 3 19 12 6z m-248 -123 c-2 -24 -4 -7 -4 37
0 44 2 63 4 43 2 -21 2 -57 0 -80z m843 67 c0 -5 -5 -3 -10 5 -5 8 -10 20 -10
25 0 6 5 3 10 -5 5 -8 10 -19 10 -25z m-230 -55 c0 -9 8 -42 19 -72 l19 -55
-35 -54 c-30 -49 -34 -60 -32 -118 3 -70 -1 -74 -63 -84 -31 -5 -38 -2 -43 14
-11 35 -65 87 -100 99 -33 11 -35 14 -35 55 0 65 47 127 140 186 41 25 78 45
82 43 4 -3 9 0 13 5 9 15 35 1 35 -19z m711 -74 c163 -55 331 -169 524 -355
61 -59 157 -151 215 -205 l105 -99 -115 60 c-202 106 -254 135 -310 173 -30
21 -73 47 -95 59 -22 12 -47 26 -55 31 -48 31 -199 114 -285 158 -197 100
-332 152 -393 152 -79 0 -82 13 -7 37 63 21 84 23 205 19 112 -3 148 -8 211
-30z m-616 -6 c3 -5 1 -10 -4 -10 -6 0 -11 5 -11 10 0 6 2 10 4 10 3 0 8 -4
11 -10z m-708 -72 c-3 -8 -6 -5 -6 6 -1 11 2 17 5 13 3 -3 4 -12 1 -19z m1063
-18 c89 -33 171 -69 260 -114 65 -33 356 -199 375 -213 49 -39 187 -117 407
-232 71 -36 123 -68 117 -70 -6 -2 -59 4 -117 13 -112 16 -274 37 -427 56
-313 38 -641 103 -756 149 -144 57 -238 120 -279 187 -23 37 -30 137 -12 180
14 33 62 63 119 75 73 14 232 -1 313 -31z m-774 -16 c1 -9 0 -13 -4 -10 -3 4
-7 14 -8 22 -1 9 0 13 4 10 3 -4 7 -14 8 -22z m-48 -59 c30 -13 37 -35 10 -35
-6 0 -62 -39 -125 -87 -64 -49 -136 -102 -162 -120 -50 -35 -294 -247 -468
-408 -59 -55 -128 -117 -153 -137 -92 -76 -212 -168 -220 -168 -5 0 -15 -6
-22 -13 -21 -20 -153 -100 -141 -85 5 7 52 65 104 129 93 114 159 202 344 454
129 177 166 218 254 284 42 31 78 58 81 62 9 10 134 96 160 110 73 39 259 46
338 14z m157 -77 c15 -11 36 -41 46 -66 31 -71 13 -143 -66 -266 -84 -131
-261 -253 -545 -375 -307 -131 -539 -212 -704 -246 -43 -9 -87 -20 -97 -25
-10 -6 -23 -10 -30 -10 -7 0 18 19 55 43 68 42 257 179 287 207 9 8 31 28 50
44 19 15 86 77 149 136 160 150 357 322 405 353 75 50 90 61 141 103 27 23 84
61 125 83 87 48 141 53 184 19z m-972 -141 c20 -10 37 -22 37 -26 0 -3 -41
-28 -91 -56 -50 -27 -107 -64 -127 -82 -67 -60 -259 -144 -492 -216 -131 -41
-170 -51 -170 -44 0 2 25 20 55 40 30 20 91 69 137 108 205 178 364 270 523
302 31 7 87 -4 128 -26z m-48 -219 c-59 -79 -115 -146 -124 -149 -9 -4 -54
-10 -101 -13 -47 -4 -119 -11 -160 -16 -41 -5 -118 -12 -170 -16 -52 -3 -99
-9 -105 -12 -7 -3 -7 -2 0 5 6 6 51 23 100 37 187 56 385 144 463 205 38 30
194 112 201 106 2 -2 -45 -68 -104 -147z"/>
<path d="M2228 4730 c18 -11 36 -20 40 -20 4 0 23 -13 42 -30 41 -34 62 -40
34 -8 -28 31 -105 78 -128 78 -17 0 -15 -4 12 -20z"/>
<path d="M2620 6026 c-20 -8 -59 -25 -87 -40 -29 -14 -69 -26 -89 -26 l-37 0
19 22 c17 19 15 18 -21 -4 -29 -19 -60 -28 -110 -32 l-70 -6 33 31 c51 46 32
45 -24 -1 -31 -25 -59 -40 -76 -40 -31 0 -33 3 -17 32 19 36 3 29 -23 -9 -37
-57 -86 -189 -99 -268 -6 -39 -11 -174 -11 -308 1 -227 5 -297 20 -297 4 0 7
141 7 313 0 274 2 319 19 370 31 101 56 149 73 143 8 -3 19 -6 24 -6 14 0 -40
-103 -65 -122 -16 -13 -18 -20 -9 -29 9 -9 7 -21 -5 -53 -14 -34 -17 -78 -16
-266 0 -163 4 -231 13 -245 10 -16 11 19 7 190 -5 200 -2 240 25 342 10 39 15
43 53 51 22 5 42 8 44 6 2 -1 -5 -19 -16 -41 -30 -60 -64 -170 -60 -195 3 -16
11 1 27 52 33 107 75 186 103 194 13 3 70 9 126 13 57 3 98 9 90 13 -7 3 -58
3 -113 0 -55 -4 -102 -5 -104 -3 -3 2 21 30 53 62 52 53 108 82 124 66 3 -2
-14 -23 -37 -46 -62 -59 -42 -61 23 -2 63 58 81 63 241 63 75 0 105 3 95 10
-8 5 -58 10 -110 10 -93 1 -94 1 -65 17 16 9 52 24 80 34 34 12 42 18 25 18
-14 0 -41 -6 -60 -13z m-351 -163 c-30 -32 -61 -61 -69 -65 -21 -9 -70 -10
-70 0 0 4 14 30 30 59 28 49 33 52 77 58 27 3 55 7 63 9 27 4 24 -3 -31 -61z"/>
<path d="M2097 5338 c-3 -29 -1 -57 4 -62 5 -6 9 15 9 52 0 34 -2 62 -4 62 -2
0 -6 -24 -9 -52z"/>
<path d="M1511 1554 c0 -11 3 -14 6 -6 3 7 2 16 -1 19 -3 4 -6 -2 -5 -13z"/>
<path d="M1521 1504 c0 -11 3 -14 6 -6 3 7 2 16 -1 19 -3 4 -6 -2 -5 -13z"/>
<path d="M2518 1365 c-3 -14 -1 -25 3 -25 5 0 9 11 9 25 0 14 -2 25 -4 25 -2
0 -6 -11 -8 -25z"/>
<path d="M2585 520 c-10 -11 -13 -20 -7 -20 6 0 16 9 22 20 6 11 9 20 7 20 -2
0 -12 -9 -22 -20z"/>
</g>
</svg>
