<?xml version="1.0" standalone="no"?>
<!DOCTYPE svg PUBLIC "-//W3C//DTD SVG 20010904//EN"
 "http://www.w3.org/TR/2001/REC-SVG-20010904/DTD/svg10.dtd">
<svg version="1.0" xmlns="http://www.w3.org/2000/svg"
 width="484.000000pt" height="572.000000pt" viewBox="0 0 484.000000 572.000000"
 preserveAspectRatio="xMidYMid meet">

<g transform="translate(0.000000,572.000000) scale(0.100000,-0.100000)"
fill="#000000" stroke="none">
<path d="M1774 5690 c-22 -11 -54 -34 -70 -51 l-29 -30 0 -181 0 -182 -170
-56 c-206 -69 -200 -66 -212 -93 -13 -29 -6 -261 13 -419 4 -36 3 -38 -36 -48
-48 -13 -108 -62 -112 -93 -3 -21 -9 -22 -108 -28 -118 -6 -142 -15 -208 -80
-61 -60 -89 -114 -106 -200 -22 -112 -16 -100 -144 -274 -85 -114 -125 -250
-103 -349 20 -89 59 -139 138 -177 64 -32 74 -34 170 -33 95 0 102 -1 107 -20
10 -36 7 -44 -16 -51 -46 -14 -245 -88 -310 -115 -62 -26 -236 -124 -248 -139
-3 -3 -25 -20 -50 -36 -83 -56 -170 -146 -202 -209 -66 -130 -43 -313 54 -438
49 -62 167 -139 273 -178 242 -87 333 -102 634 -106 112 -2 210 -5 218 -8 8
-3 13 -21 13 -43 0 -39 15 -68 60 -115 14 -14 42 -44 63 -66 21 -22 51 -43 67
-47 36 -8 38 -12 45 -61 9 -71 89 -107 185 -83 l55 14 2 45 c1 25 2 50 2 57 1
6 13 16 29 22 15 5 39 18 55 28 21 14 31 15 45 6 26 -16 35 -8 81 80 35 66 40
85 35 114 -6 34 -6 35 17 27 39 -14 91 -10 133 11 47 24 48 38 4 47 -46 9 -78
52 -78 106 0 84 -22 183 -47 210 -13 14 -23 29 -23 33 0 14 -57 39 -92 40 -42
1 -119 34 -98 42 8 3 86 7 172 9 141 4 161 6 185 25 l28 20 -4 177 c-4 171 -3
176 16 176 11 0 34 3 51 6 30 6 31 5 37 -42 3 -27 10 -76 15 -109 5 -33 17
-107 25 -165 34 -223 92 -326 209 -375 19 -8 77 -26 129 -40 79 -21 117 -25
231 -25 l136 0 28 -57 c16 -32 35 -58 43 -58 7 0 26 23 41 50 41 77 36 75 167
75 105 0 121 -2 145 -21 18 -14 26 -30 26 -50 0 -118 -126 -199 -475 -303
-246 -73 -244 -72 -337 -81 l-68 -6 -26 55 c-14 30 -31 57 -39 59 -8 4 -22
-18 -40 -64 -20 -51 -32 -70 -48 -73 -12 -2 -47 -9 -77 -15 -30 -6 -109 -17
-175 -26 -223 -28 -442 -88 -520 -141 -41 -28 -51 -26 -130 15 -27 14 -53 27
-57 29 -14 6 -8 -21 17 -89 l26 -67 -21 -80 c-11 -44 -20 -89 -20 -100 0 -39
38 -108 108 -194 77 -96 117 -158 128 -201 l6 -28 -37 25 c-21 15 -42 26 -47
26 -6 0 -24 7 -41 15 -40 18 -170 45 -217 45 -36 0 -80 -10 -240 -54 -91 -25
-267 -45 -448 -50 -39 -1 -73 -5 -75 -10 -2 -8 74 -37 173 -66 36 -10 99 -32
140 -49 41 -17 78 -31 82 -31 4 0 32 -11 62 -25 30 -14 59 -25 64 -25 5 0 24
-6 41 -13 l31 -13 -57 -40 c-32 -21 -123 -102 -201 -179 -203 -197 -322 -283
-440 -314 -44 -12 -51 -21 -29 -39 11 -10 344 -8 442 3 103 11 335 69 410 102
163 73 233 114 293 174 55 54 64 59 104 59 23 0 54 6 66 13 22 11 28 8 72 -34
27 -25 75 -59 107 -76 126 -68 359 -111 599 -113 108 0 181 6 457 42 112 14
115 26 12 43 -22 4 -53 15 -70 25 -16 10 -50 26 -75 36 -25 9 -119 67 -210
128 -91 60 -182 121 -203 135 l-37 25 67 31 c38 17 99 50 137 73 37 23 71 42
75 42 13 0 141 127 141 139 0 9 -8 11 -27 6 -135 -37 -222 -34 -354 10 -161
55 -311 64 -475 29 -31 -6 -33 -4 -83 78 -29 45 -72 110 -96 143 -49 67 -66
119 -44 140 23 23 155 84 214 100 30 7 128 26 218 40 381 63 885 170 1056 226
88 28 320 141 349 168 24 23 28 23 125 -12 45 -16 48 2 16 76 -34 80 -35 91
-12 143 64 151 38 302 -69 399 -82 73 -160 87 -338 60 -285 -44 -592 -21 -671
51 -18 16 -18 19 19 86 31 57 35 70 23 78 -10 5 -27 3 -50 -7 -54 -23 -90 -32
-95 -25 -18 30 -79 373 -73 408 9 46 32 114 38 114 4 0 35 -9 70 -19 35 -11
80 -22 99 -26 41 -7 179 16 232 39 99 42 386 309 506 470 40 53 105 139 145
192 105 139 107 143 107 201 l0 52 48 21 c89 41 285 99 386 116 156 27 229 6
262 -72 19 -44 18 -175 -1 -266 -18 -83 -85 -228 -142 -305 -21 -28 -65 -91
-98 -140 -60 -88 -211 -275 -228 -282 -5 -2 -19 -15 -31 -28 -11 -14 -34 -32
-49 -40 -20 -10 -27 -20 -24 -32 3 -11 -8 -30 -29 -51 -21 -20 -34 -43 -35
-59 0 -14 -4 -35 -8 -46 -16 -41 64 -138 263 -320 42 -38 76 -77 76 -87 0 -10
14 -27 31 -37 26 -16 49 -46 105 -138 16 -25 22 -15 36 50 10 49 10 60 -7 97
-11 24 -20 61 -20 84 -1 24 -5 48 -9 54 -4 7 -2 12 3 12 6 0 16 -9 23 -20 20
-31 155 -84 183 -72 14 7 27 6 39 0 13 -8 23 -5 40 11 12 12 30 21 40 21 33 0
88 33 147 87 46 43 63 68 85 124 l28 71 -18 52 c-10 28 -31 70 -46 92 -15 23
-31 61 -35 85 -10 59 -19 75 -76 132 -42 43 -52 48 -78 42 -16 -3 -32 -2 -35
3 -3 5 -22 13 -41 16 -20 4 -38 13 -41 21 -3 8 -14 17 -25 20 -10 4 -19 10
-19 14 0 4 27 43 60 87 101 133 183 319 211 481 6 36 9 123 7 196 -4 128 -5
135 -40 207 -31 63 -46 82 -90 112 -185 128 -367 127 -767 -3 -86 -28 -173
-60 -194 -71 -22 -11 -40 -18 -41 -16 -2 2 -9 25 -16 53 -15 53 -61 112 -114
144 -60 37 -172 60 -331 66 -82 3 -172 11 -200 17 -65 14 -144 59 -198 113
-43 42 -44 44 -71 186 -16 79 -34 181 -41 226 -8 45 -19 90 -26 101 -23 37
-182 65 -400 72 -13 0 -20 17 -29 68 -17 88 -77 277 -93 290 -16 13 -126 32
-187 32 -25 0 -63 -9 -86 -20z m229 -39 c27 -27 8 -64 -43 -85 -47 -19 -168
-23 -198 -7 -40 22 -44 45 -12 76 37 35 79 45 165 39 49 -3 75 -10 88 -23z
m71 -171 c56 -213 67 -271 53 -299 -7 -14 -22 -27 -33 -29 -19 -3 -20 1 -16
51 5 64 -11 197 -37 299 -10 40 -16 79 -13 86 8 22 18 -2 46 -108z m-214 52
c44 3 80 4 80 3 0 0 9 -42 20 -92 24 -112 29 -311 8 -325 -7 -5 -50 -7 -94 -5
-88 4 -128 21 -143 61 -5 12 -12 106 -16 209 l-8 188 37 -22 c32 -19 48 -21
116 -17z m170 -64 c13 -53 24 -142 28 -207 5 -118 1 -130 -39 -131 -13 0 -17
20 -22 133 -4 73 -14 166 -23 206 -14 62 -15 75 -3 82 29 18 37 6 59 -83z
m280 -193 c47 -3 113 -13 148 -22 57 -16 62 -20 62 -45 0 -36 -58 -79 -143
-107 -343 -113 -996 -143 -1033 -47 -13 33 16 55 110 85 136 44 229 66 233 55
12 -35 49 -78 81 -92 79 -34 311 -8 369 42 20 18 25 32 28 81 2 33 4 61 4 62
1 1 13 1 29 -2 15 -2 65 -7 112 -10z m265 -241 c14 -76 30 -152 35 -169 13
-41 48 -247 65 -380 8 -60 21 -150 29 -200 16 -103 15 -107 -51 -176 -53 -55
-182 -126 -308 -168 -99 -33 -287 -61 -405 -61 -203 1 -426 59 -515 134 -49
42 -19 42 63 -1 92 -48 108 -53 204 -54 64 -1 83 3 135 29 91 46 147 119 159
206 21 151 -245 378 -552 471 l-91 27 -7 61 c-8 83 -8 279 2 275 82 -42 83
-43 292 -44 248 -2 441 19 643 70 136 35 220 70 253 108 10 10 19 17 21 15 1
-2 14 -66 28 -143z m156 -371 c13 -16 12 -17 -3 -4 -17 13 -22 21 -14 21 2 0
10 -8 17 -17z m-1277 -23 c36 -12 54 -25 69 -51 l20 -35 -57 -98 c-85 -145
-109 -142 -125 19 -6 55 -13 121 -17 148 l-7 47 34 -7 c19 -3 56 -14 83 -23z
m1534 -77 c-10 -2 -28 -2 -40 0 -13 2 -5 4 17 4 22 1 32 -1 23 -4z m-1276 -45
c62 -42 63 -44 66 -93 3 -47 -2 -59 -59 -153 -34 -56 -67 -102 -73 -102 -6 0
-60 36 -119 80 l-108 80 39 58 c21 31 51 78 66 104 20 34 37 51 59 57 53 15
63 13 129 -31z m1525 36 c-3 -3 -12 -4 -19 -1 -8 3 -5 6 6 6 11 1 17 -2 13 -5z
m-467 -80 c0 -2 -9 0 -20 6 -11 6 -20 13 -20 16 0 2 9 0 20 -6 11 -6 20 -13
20 -16z m-1535 6 c3 -6 -1 -7 -9 -4 -18 7 -21 14 -7 14 6 0 13 -4 16 -10z
m2226 -7 c13 -16 12 -17 -3 -4 -17 13 -22 21 -14 21 2 0 10 -8 17 -17z m-2366
-9 c-34 -26 -55 -36 -55 -25 0 5 9 13 20 16 11 3 20 11 20 16 0 5 8 9 18 9 15
-1 15 -2 -3 -16z m1742 -34 c37 -5 101 -10 141 -10 184 0 326 -72 310 -157 -3
-15 -21 -20 -128 -30 -134 -13 -348 -50 -366 -64 -14 -11 -54 43 -54 73 0 13
-7 58 -15 101 -8 43 -15 90 -15 103 0 24 1 24 29 9 17 -8 60 -19 98 -25z
m-1587 -15 c37 -24 72 -51 79 -59 22 -26 50 -316 31 -316 -12 0 -13 -36 -1
-58 5 -9 11 -37 15 -62 l5 -45 -82 -45 c-105 -58 -357 -237 -357 -255 0 -7 -7
-18 -15 -25 -8 -7 -18 -30 -21 -52 -6 -33 -9 -38 -28 -32 -75 22 -116 85 -116
177 0 60 22 112 99 232 67 104 86 157 106 295 23 158 53 217 132 266 54 33 78
30 153 -21z m1663 38 c-7 -2 -21 -2 -30 0 -10 3 -4 5 12 5 17 0 24 -2 18 -5z
m-1633 -13 c0 -5 -2 -10 -4 -10 -3 0 -8 5 -11 10 -3 6 -1 10 4 10 6 0 11 -4
11 -10z m53 -9 c3 -11 -1 -22 -8 -24 -8 -4 -10 3 -7 19 5 29 8 30 15 5z m1787
11 c0 -5 -28 -7 -62 -5 -96 6 -101 11 -15 12 42 0 77 -3 77 -7z m-2100 -36 c0
-3 -4 -8 -10 -11 -5 -3 -10 -1 -10 4 0 6 5 11 10 11 6 0 10 -2 10 -4z m2220
-5 c0 -5 -9 -7 -20 -4 -11 3 -20 7 -20 9 0 2 9 4 20 4 11 0 20 -4 20 -9z
m-1329 -54 c65 -82 71 -151 21 -239 -18 -31 -40 -59 -49 -62 -23 -9 -214 92
-212 112 2 23 119 199 139 209 43 22 73 16 101 -20z m1606 -14 c-3 -10 -5 -4
-5 12 0 17 2 24 5 18 2 -7 2 -21 0 -30z m-2122 -14 c-10 -15 -25 -10 -19 6 4
8 10 12 15 9 5 -3 7 -10 4 -15z m92 -59 c85 -62 124 -89 142 -100 13 -7 12
-14 -5 -45 -22 -42 -45 -59 -99 -74 -39 -11 -41 -10 -113 37 -19 13 -35 188
-19 213 7 11 15 19 19 19 4 0 38 -22 75 -50z m2017 15 c-6 -16 -24 -21 -24 -7
0 11 11 22 21 22 5 0 6 -7 3 -15z m-111 -22 c-7 -2 -19 -2 -25 0 -7 3 -2 5 12
5 14 0 19 -2 13 -5z m-45 -67 c37 -19 62 -52 62 -83 0 -23 -30 -57 -165 -183
-38 -36 -126 -141 -195 -235 -151 -202 -212 -263 -317 -312 -99 -48 -170 -54
-228 -21 -74 42 -128 190 -117 319 3 34 6 37 75 63 176 69 301 147 333 208 14
26 14 40 5 86 -20 100 -17 108 37 126 26 8 97 22 157 30 61 9 124 17 140 20
59 8 182 -2 213 -18z m111 19 c-8 -7 -78 -9 -85 -2 -4 4 14 7 41 7 27 0 46 -2
44 -5z m91 -15 c8 -5 11 -10 5 -10 -5 0 -17 5 -25 10 -8 5 -10 10 -5 10 6 0
17 -5 25 -10z m91 -40 c13 -10 18 -19 12 -20 -7 0 -13 4 -13 8 0 5 -10 14 -22
20 -13 6 -18 11 -12 11 7 1 22 -8 35 -19z m-888 -12 c3 -13 9 -59 12 -103 l7
-80 -45 -42 c-54 -50 -193 -122 -303 -157 -342 -111 -683 -100 -899 27 -83 49
-102 73 -124 155 -20 75 -17 86 15 51 34 -38 138 -83 229 -100 28 -5 84 -16
125 -24 102 -20 252 -19 386 4 241 42 407 113 514 222 36 36 68 66 71 67 4 1
9 -8 12 -20z m-1826 -40 c-3 -7 -5 -2 -5 12 0 14 2 19 5 13 2 -7 2 -19 0 -25z
m827 -19 c47 -28 83 -56 80 -61 -21 -34 -189 -54 -212 -25 -24 30 -23 56 4 96
15 23 30 41 35 41 4 0 46 -23 93 -51z m1686 -14 c0 -8 -4 -15 -10 -15 -5 0 -7
7 -4 15 4 8 8 15 10 15 2 0 4 -7 4 -15z m-40 -44 c0 -5 -7 -12 -16 -15 -14 -5
-15 -4 -4 9 14 17 20 19 20 6z m260 -20 c0 -5 -6 -14 -14 -20 -12 -10 -13 -8
-9 8 5 21 23 30 23 12z m-2980 -16 c0 -8 -7 -15 -16 -15 -14 0 -14 3 -4 15 7
8 14 15 16 15 2 0 4 -7 4 -15z m2680 -5 c0 -5 -8 -10 -17 -10 -15 0 -16 2 -3
10 19 12 20 12 20 0z m-2485 -30 c-3 -5 -12 -10 -18 -10 -7 0 -6 4 3 10 19 12
23 12 15 0z m2445 -4 c0 -7 -9 -16 -20 -19 -11 -3 -20 -12 -20 -21 0 -9 -8
-16 -17 -16 -13 0 -8 9 17 35 38 39 40 40 40 21z m-2715 -54 l-28 -27 24 31
c13 17 26 30 28 27 3 -2 -8 -16 -24 -31z m2617 -39 c-7 -3 -18 -17 -24 -32 -6
-16 -12 -21 -15 -13 -6 15 24 52 41 51 6 0 5 -3 -2 -6z m-2412 -7 c0 -2 -8
-10 -17 -17 -16 -13 -17 -12 -4 4 13 16 21 21 21 13z m701 -91 c66 -38 188
-80 281 -95 141 -23 410 -5 549 36 14 4 17 -10 22 -93 4 -73 14 -121 37 -187
l31 -89 -23 -24 c-38 -41 -95 -64 -189 -75 -120 -15 -211 -1 -337 53 -218 92
-311 119 -454 129 -73 5 -151 13 -173 16 -50 8 -136 45 -153 67 -19 22 -27
121 -13 154 12 30 139 118 244 170 l59 29 30 -28 c17 -16 57 -44 89 -63z
m2029 85 c0 -5 -5 -10 -11 -10 -5 0 -7 5 -4 10 3 6 8 10 11 10 2 0 4 -4 4 -10z
m-2762 -45 c-3 -3 -9 2 -12 12 -6 14 -5 15 5 6 7 -7 10 -15 7 -18z m2379 -24
c0 -11 -5 -17 -9 -15 -4 3 -8 0 -8 -7 0 -7 -3 -10 -6 -7 -4 5 16 48 23 48 1 0
1 -9 0 -19z m-2614 -21 c-3 -12 -8 -19 -11 -16 -5 6 5 36 12 36 2 0 2 -9 -1
-20z m204 -5 c0 -8 -4 -12 -9 -9 -5 3 -6 10 -3 15 9 13 12 11 12 -6z m2373
-19 c0 -8 -7 -16 -15 -20 -12 -4 -13 -2 -2 14 14 24 17 25 17 6z m-37 -56 c-3
-11 -9 -20 -15 -20 -5 0 -4 9 2 20 6 11 12 20 14 20 2 0 2 -9 -1 -20z m-2356
-52 c-3 -7 -5 -2 -5 12 0 14 2 19 5 13 2 -7 2 -19 0 -25z m-190 -20 c-3 -8 -6
-5 -6 6 -1 11 2 17 5 13 3 -3 4 -12 1 -19z m2491 2 c-7 -10 -14 -17 -17 -15
-4 4 18 35 25 35 2 0 -1 -9 -8 -20z m-2290 -25 c-3 -3 -9 2 -12 12 -6 14 -5
15 5 6 7 -7 10 -15 7 -18z m32 -65 c6 -11 7 -20 2 -20 -6 0 -12 9 -15 20 -3
11 -3 20 -1 20 2 0 8 -9 14 -20z m2193 0 c-3 -11 -12 -20 -21 -20 -13 0 -12 3
3 20 10 11 19 20 21 20 1 0 0 -9 -3 -20z m-1843 -68 c0 -1 -9 2 -20 8 -11 6
-20 15 -20 20 0 6 9 2 20 -7 11 -10 20 -19 20 -21z m-295 18 c3 -5 -1 -10 -9
-10 -9 0 -16 5 -16 10 0 6 4 10 9 10 6 0 13 -4 16 -10z m2095 0 c0 -5 -5 -10
-11 -10 -5 0 -7 5 -4 10 3 6 8 10 11 10 2 0 4 -4 4 -10z m-2206 -19 c4 -5 -3
-7 -14 -4 -23 6 -26 13 -6 13 8 0 17 -4 20 -9z m466 -21 c13 -8 13 -10 -2 -10
-9 0 -20 5 -23 10 -8 13 5 13 25 0z m1700 0 c0 -5 -7 -10 -16 -10 -8 0 -12 5
-9 10 3 6 10 10 16 10 5 0 9 -4 9 -10z m270 -24 c0 -2 -8 -10 -17 -17 -16 -13
-17 -12 -4 4 13 16 21 21 21 13z m-1837 -13 c-7 -2 -19 -2 -25 0 -7 3 -2 5 12
5 14 0 19 -2 13 -5z m144 0 c-11 -10 -57 -13 -57 -2 0 5 14 9 32 9 17 0 28 -3
25 -7z m71 -10 c-10 -2 -26 -2 -35 0 -10 3 -2 5 17 5 19 0 27 -2 18 -5z m1582
-7 c0 -2 -7 -9 -15 -16 -12 -10 -15 -10 -15 4 0 9 7 16 15 16 8 0 15 -2 15 -4z
m-1430 -32 c0 -2 -9 -4 -20 -4 -11 0 -20 4 -20 9 0 5 9 7 20 4 11 -3 20 -7 20
-9z m-684 -13 c-6 -10 5 -26 29 -40 18 -11 19 -12 1 -9 -10 2 -30 17 -43 35
-23 30 -23 31 -4 26 12 -3 19 -8 17 -12z m1605 -20 c21 2 41 0 45 -4 4 -4 -24
-7 -62 -7 -41 0 -75 5 -82 12 -22 22 -12 27 24 12 20 -9 54 -14 75 -13z m459
25 c0 -2 -7 -9 -15 -16 -13 -11 -14 -10 -9 4 5 14 24 23 24 12z m-1237 -53 c5
-7 12 -11 18 -8 5 3 17 1 26 -4 16 -9 15 -10 -5 -11 -13 0 -35 9 -49 20 -14
11 -34 20 -44 20 -11 0 -19 4 -19 9 0 14 63 -9 73 -26z m636 24 c-2 -1 -13 -9
-24 -17 -19 -14 -19 -14 -6 3 7 9 18 17 24 17 6 0 8 -1 6 -3z m175 -56 c4 -5
-3 -7 -14 -4 -23 6 -26 13 -6 13 8 0 17 -4 20 -9z m-648 -29 c-10 -2 -22 0
-28 6 -6 6 0 7 19 4 21 -5 23 -7 9 -10z m374 10 c0 -5 -7 -9 -15 -9 -8 0 -15
4 -15 9 0 4 7 8 15 8 8 0 15 -4 15 -8z m371 -10 c-7 -2 -18 1 -23 6 -8 8 -4 9
13 5 13 -4 18 -8 10 -11z m-231 -49 c-11 -17 -11 -17 -6 0 3 10 6 24 7 30 0 9
2 9 5 0 3 -7 0 -20 -6 -30z m-1187 10 c-7 -2 -19 -2 -25 0 -7 3 -2 5 12 5 14
0 19 -2 13 -5z m80 -10 c-7 -2 -19 -2 -25 0 -7 3 -2 5 12 5 14 0 19 -2 13 -5z
m74 -9 c-3 -3 -12 -4 -19 -1 -8 3 -5 6 6 6 11 1 17 -2 13 -5z m-72 -39 c120
-16 221 -36 275 -54 99 -33 182 -57 226 -66 l31 -6 6 -102 c3 -56 4 -104 2
-106 -8 -8 -94 -21 -205 -31 -219 -20 -280 -37 -280 -81 0 -11 -13 -22 -35
-29 -19 -6 -53 -27 -76 -46 -22 -19 -44 -34 -48 -34 -4 0 -12 -21 -19 -47 -26
-96 -38 -113 -79 -115 -156 -7 -420 15 -558 47 -33 7 -100 30 -148 50 -104 44
-137 80 -145 154 -4 47 -3 49 56 112 75 80 168 136 410 246 221 101 338 144
372 138 14 -2 111 -16 215 -30z m1075 1 c0 -2 -8 -10 -17 -17 -16 -13 -17 -12
-4 4 13 16 21 21 21 13z m-54 -41 c-11 -8 -24 -15 -30 -15 -5 0 -1 7 10 15 10
8 24 14 29 14 6 0 1 -6 -9 -14z m-591 -5 c3 -5 1 -10 -4 -10 -6 0 -11 5 -11
10 0 6 2 10 4 10 3 0 8 -4 11 -10z m82 -26 c-3 -3 -12 -4 -19 -1 -8 3 -5 6 6
6 11 1 17 -2 13 -5z m428 -4 c-27 -12 -43 -12 -25 0 8 5 22 9 30 9 10 0 8 -3
-5 -9z m-268 -26 c-3 -3 -12 -4 -19 -1 -8 3 -5 6 6 6 11 1 17 -2 13 -5z m150
0 c-3 -3 -12 -4 -19 -1 -8 3 -5 6 6 6 11 1 17 -2 13 -5z m446 -397 c-31 -61
-45 -69 -67 -34 -29 45 -25 58 27 72 26 6 50 15 54 18 16 17 11 -5 -14 -56z
m487 -386 c0 -12 -33 -71 -40 -71 -3 0 -15 18 -27 40 l-21 40 44 0 c24 0 44
-4 44 -9z m594 -304 c19 -51 20 -58 4 -52 -7 2 -25 9 -40 14 l-28 10 17 36 c9
19 20 35 23 35 4 0 15 -19 24 -43z m-1144 -212 c0 -16 -23 -25 -66 -25 -24 0
-34 5 -34 15 0 8 4 15 9 15 5 0 11 12 14 28 3 15 11 40 17 56 l11 30 24 -53
c14 -29 25 -59 25 -66z m-956 -220 c6 -16 -33 -65 -51 -65 -10 0 -53 94 -53
115 0 13 9 11 49 -9 27 -14 51 -32 55 -41z m-59 -597 c79 -26 142 -63 150 -88
7 -23 -3 -80 -14 -80 -5 0 -26 13 -48 29 -64 47 -296 98 -458 102 -58 1 -59 1
-25 11 19 6 58 18 85 29 28 10 61 20 75 23 46 8 175 -6 235 -26z m748 22 c42
-6 119 -26 174 -44 89 -31 95 -34 69 -41 -17 -5 -69 -3 -116 3 -118 16 -292
15 -365 -2 -33 -8 -60 -14 -61 -13 -1 1 -4 19 -8 39 l-7 36 53 11 c106 22 163
24 261 11z m457 -75 c0 -17 -298 -185 -328 -185 -5 0 -15 -7 -22 -15 -8 -10
-18 -12 -29 -6 -9 5 -58 19 -109 31 -76 18 -112 22 -196 18 l-103 -5 13 50 c7
28 17 54 22 59 15 15 146 38 222 37 41 0 124 -6 185 -13 112 -13 232 -4 295
22 27 12 50 15 50 7z m-1450 -16 c149 -18 253 -47 314 -87 60 -40 64 -48 41
-92 -19 -37 -34 -38 -66 -4 -54 57 -136 66 -269 27 -30 -9 -65 -15 -78 -15
-32 2 -139 38 -277 92 -66 26 -145 54 -175 61 l-55 14 75 5 c138 10 404 10
490 -1z m257 -194 c23 -14 43 -27 43 -28 0 -1 -26 -2 -58 -3 -122 -1 -377
-131 -617 -315 -57 -43 -154 -107 -212 -138 -40 -21 -25 -6 26 28 28 17 116
97 197 176 188 186 279 247 421 285 97 27 147 25 200 -5z m698 -8 c130 -32
135 -35 390 -203 94 -62 195 -122 225 -133 67 -26 97 -44 60 -37 -14 3 -45 7
-70 11 -85 11 -199 56 -406 161 -114 58 -236 117 -273 130 -76 29 -194 42
-240 26 -35 -12 -35 -12 -19 22 8 18 22 27 47 32 20 3 41 7 46 9 23 8 185 -5
240 -18z m-628 -74 c16 -59 7 -131 -21 -168 -86 -112 -375 -231 -676 -278 -93
-15 -330 -31 -330 -23 0 2 28 14 63 25 65 22 168 86 372 233 123 89 293 184
387 218 32 11 82 19 125 19 71 1 73 0 80 -26z m528 -10 c28 -8 148 -64 268
-124 218 -110 354 -168 392 -170 20 0 20 0 -1 -9 -11 -4 -90 -11 -175 -15
-318 -15 -606 47 -744 161 -58 47 -62 64 -28 113 33 47 41 52 108 61 60 9 112
4 180 -17z"/>
<path d="M1813 5645 c-36 -16 -42 -35 -17 -56 12 -10 29 -11 81 -2 110 19 119
59 17 68 -31 3 -61 -1 -81 -10z"/>
<path d="M2116 4967 c-28 -28 -32 -51 -16 -91 8 -21 3 -34 -27 -78 -60 -89
-76 -134 -75 -215 0 -142 72 -260 190 -316 61 -29 76 -32 162 -32 89 0 100 2
163 35 65 33 127 87 127 110 0 6 -4 9 -10 5 -10 -6 -83 42 -165 109 -110 89
-168 147 -245 242 -114 141 -131 183 -89 225 11 11 18 23 15 26 -2 3 -16 -6
-30 -20z m96 -374 l38 -37 31 23 c27 20 33 21 47 9 9 -8 49 -41 87 -74 39 -33
96 -77 128 -99 31 -22 57 -45 57 -51 0 -26 -101 -87 -180 -107 -170 -45 -375
86 -397 253 l-6 41 41 -21 c24 -13 54 -20 74 -18 l33 3 -3 58 c-2 31 0 57 4
57 5 0 25 -17 46 -37z"/>
<path d="M2632 4007 c-56 -60 6 -118 72 -66 31 24 34 64 7 79 -31 16 -56 12
-79 -13z m75 -12 c7 -21 -25 -55 -52 -55 -32 0 -36 9 -19 41 16 32 60 41 71
14z"/>
<path d="M1474 3895 c-27 -19 -10 -62 31 -82 40 -19 65 -7 65 32 0 41 -63 74
-96 50z m74 -49 c4 -30 -12 -34 -46 -10 -39 27 -22 60 23 44 12 -4 21 -18 23
-34z"/>
<path d="M2334 3873 c-12 -2 -30 -13 -40 -24 -17 -18 -16 -20 6 -44 31 -33 93
-34 133 -2 34 27 29 51 -15 66 -31 11 -45 12 -84 4z m94 -35 c2 -12 -8 -23
-31 -34 -30 -14 -38 -15 -63 -3 -56 27 -23 60 56 56 24 -1 36 -7 38 -19z"/>
<path d="M1843 3823 c-35 -7 -41 -48 -12 -79 44 -46 139 -25 139 32 0 33 -70
59 -127 47z m92 -27 c42 -30 -23 -78 -73 -54 -32 16 -42 54 -15 61 36 9 70 7
88 -7z"/>
</g>
</svg>
