<?xml version="1.0" standalone="no"?>
<!DOCTYPE svg PUBLIC "-//W3C//DTD SVG 20010904//EN"
 "http://www.w3.org/TR/2001/REC-SVG-20010904/DTD/svg10.dtd">
<svg version="1.0" xmlns="http://www.w3.org/2000/svg"
 width="98.000000pt" height="155.000000pt" viewBox="0 0 98.000000 155.000000"
 preserveAspectRatio="xMidYMid meet">

<g transform="translate(0.000000,155.000000) scale(0.100000,-0.100000)"
fill="#000000" stroke="none">
<path d="M274 1516 c-23 -36 -31 -118 -13 -133 8 -5 44 -20 82 -32 38 -13 67
-28 67 -36 0 -7 3 -20 6 -29 8 -21 -51 -45 -95 -38 -80 11 -141 -61 -148 -178
-5 -84 15 -127 74 -155 32 -14 46 -29 58 -57 21 -53 20 -55 -21 -63 -26 -4
-53 -23 -92 -61 -35 -34 -69 -58 -93 -64 -43 -12 -89 -61 -89 -95 0 -28 27
-94 48 -117 8 -10 24 -18 35 -18 19 0 60 -28 104 -72 17 -16 22 -33 21 -70 0
-49 0 -49 -29 -43 -37 8 -96 -11 -109 -35 -15 -27 -12 -64 7 -102 9 -18 19
-40 23 -48 10 -23 96 -47 198 -54 l93 -7 10 31 c6 16 14 30 17 30 4 0 8 28 10
61 2 52 -1 68 -23 100 -24 37 -34 43 -62 40 -24 -3 -23 19 1 29 14 5 31 18 38
30 20 31 106 29 138 -5 13 -14 29 -25 37 -25 25 0 13 -18 -16 -25 -39 -8 -71
-80 -69 -157 0 -32 6 -62 12 -67 27 -22 130 -48 179 -45 29 2 73 4 98 5 43 1
97 18 60 19 -10 0 -11 3 -2 14 6 7 14 33 17 58 5 35 2 53 -12 78 -19 31 -19
32 0 42 57 32 81 91 56 139 -14 26 -56 25 -71 -2 l-11 -21 -24 23 c-30 28 -41
69 -47 179 l-4 85 49 30 c109 66 157 148 166 282 l5 82 -43 38 c-54 49 -186
126 -271 158 l-66 26 -5 96 c-5 83 -8 99 -27 114 -29 24 -160 77 -208 85 -37
6 -43 4 -59 -20z m56 -17 c0 7 9 11 23 9 18 -2 21 -8 19 -33 -4 -30 -38 -95
-50 -95 -4 0 -13 4 -21 9 -12 8 -13 12 -1 25 7 9 10 19 7 23 -4 3 -9 -2 -13
-11 -3 -9 -10 -16 -15 -16 -14 0 -11 37 7 78 15 35 16 36 30 18 8 -11 14 -14
14 -7z m181 -49 c10 -6 19 -15 19 -20 0 -17 -70 -80 -89 -80 -16 0 -15 5 8 55
27 58 31 61 62 45z m22 -90 c-12 -11 -63 -22 -63 -13 1 5 15 17 33 28 25 17
33 18 35 7 2 -8 0 -18 -5 -22z m17 -103 c0 -31 -18 -47 -51 -47 -42 0 -59 10
-59 36 0 20 5 23 48 27 26 2 50 4 55 5 4 1 7 -8 7 -21z m-130 -35 c0 -28 26
-47 135 -98 137 -64 282 -111 297 -96 24 24 -15 50 -177 117 -63 27 -101 48
-103 59 -3 15 2 14 50 -5 93 -36 206 -100 250 -140 42 -38 43 -39 23 -55 -41
-32 -205 15 -371 107 -126 70 -167 104 -144 119 24 15 40 12 40 -8z m-80 -2
c0 -5 -15 -25 -34 -43 -18 -19 -39 -43 -45 -55 -15 -29 -14 -102 3 -121 17
-20 29 -68 18 -75 -15 -9 -72 33 -82 60 -27 69 1 193 51 228 25 17 89 22 89 6z
m127 -94 c55 -32 62 -40 59 -64 -2 -15 -1 -20 1 -12 10 31 22 30 82 -5 33 -20
65 -34 69 -31 5 3 37 -4 71 -14 71 -22 141 -26 159 -8 6 6 14 9 18 5 12 -11
-7 -26 -56 -42 l-50 -17 -67 36 c-37 20 -68 34 -71 32 -2 -2 24 -19 57 -36 39
-21 61 -39 61 -50 0 -10 -17 -37 -38 -60 -38 -43 -38 -43 -65 -26 -16 11 -34
15 -47 11 -11 -4 -20 -2 -20 4 0 6 -20 11 -45 11 -40 0 -47 3 -55 26 -6 14
-10 49 -11 77 -1 42 -2 47 -9 25 -9 -30 3 -107 22 -138 21 -35 84 -62 136 -59
45 3 47 2 52 -26 6 -36 50 -56 80 -37 11 7 28 12 37 12 16 -1 16 -2 -1 -15
-26 -19 -111 -19 -166 0 -59 21 -117 70 -156 132 -19 29 -43 57 -53 63 -50 26
-92 -6 -90 -70 l1 -35 7 37 c9 41 27 68 47 68 8 0 28 -13 46 -29 l32 -29 -46
-45 c-36 -36 -48 -43 -58 -34 -10 10 -12 8 -6 -8 15 -42 -42 26 -66 78 -32 72
-32 215 2 300 l22 59 27 -25 c14 -14 54 -41 88 -61z m227 -7 c101 -41 144 -64
134 -74 -12 -12 -258 89 -258 106 0 15 22 10 124 -32z m-406 -41 c-5 -29 -12
-55 -14 -57 -6 -7 -5 76 2 93 14 35 21 13 12 -36z m637 -165 c-4 -26 -13 -63
-21 -83 -13 -32 -19 -36 -49 -36 -19 0 -35 4 -35 8 0 12 -38 10 -60 -4 -14 -9
-22 -10 -31 -1 -8 8 -6 14 9 22 11 6 34 33 52 60 26 42 40 53 78 65 26 7 51
14 56 15 4 1 5 -20 1 -46z m-381 -118 c33 -40 36 -48 25 -63 -12 -15 -11 -15
7 1 21 17 23 17 57 -3 37 -22 71 -31 125 -33 41 -1 41 -9 -3 -30 -48 -23 -86
-23 -78 1 4 12 1 12 -10 -4 -14 -19 -22 -20 -68 -13 -28 5 -54 10 -56 13 -3 2
0 15 7 28 10 21 10 22 -4 4 -10 -13 -22 -17 -39 -12 -35 8 -77 45 -77 66 0 19
55 90 69 90 4 0 24 -20 45 -45z m-330 -136 c40 -23 48 -44 14 -33 -31 9 -68
34 -68 45 0 14 16 11 54 -12z m114 -16 c2 -14 -4 -26 -18 -33 -28 -15 -40 -3
-33 33 4 22 10 27 27 25 13 -2 22 -11 24 -25z m-160 -2 c15 -10 44 -26 66 -35
26 -11 36 -20 32 -31 -3 -9 3 -19 14 -25 38 -20 20 -65 -25 -65 -12 0 -19 -6
-17 -14 5 -24 -8 -50 -29 -56 -24 -8 -69 19 -69 40 0 11 -7 14 -25 9 -33 -8
-55 11 -55 46 0 16 -7 30 -15 34 -38 14 3 89 58 105 18 5 34 10 35 10 2 1 16
-7 30 -18z m582 -260 c0 -4 -18 -8 -40 -8 -22 0 -40 4 -40 8 0 5 18 9 40 9 22
0 40 -4 40 -9z m-455 -15 c12 -9 16 -20 12 -36 -3 -13 1 -39 9 -58 16 -40 8
-57 -32 -65 -20 -3 -27 1 -35 20 -18 48 -5 153 19 153 4 0 16 -6 27 -14z m315
-16 c0 -5 -4 -10 -10 -10 -5 0 -10 5 -10 10 0 6 5 10 10 10 6 0 10 -4 10 -10z
m165 -10 c23 -26 40 -25 59 1 19 28 46 18 46 -16 0 -24 -21 -51 -74 -93 -20
-16 -20 -70 -1 -96 17 -23 20 -62 5 -71 -42 -26 -100 108 -71 164 15 28 2 61
-24 61 -12 0 -28 7 -36 16 -7 9 -22 14 -36 11 -27 -5 -29 0 -6 25 24 26 113
25 138 -2z m-109 -44 c8 -20 -36 -88 -55 -84 -28 5 -25 53 5 77 31 24 43 26
50 7z m62 -43 c5 -33 -24 -93 -45 -93 -49 0 -55 45 -13 90 32 34 53 35 58 3z"/>
<path d="M311 1464 c0 -11 3 -14 6 -6 3 7 2 16 -1 19 -3 4 -6 -2 -5 -13z"/>
<path d="M380 960 c-24 -15 -8 -17 30 -4 30 11 32 13 10 13 -14 1 -32 -3 -40
-9z"/>
</g>
</svg>
